%FSLAX24Y24*%
%MOIN*%
G70*
G01*
G75*
G04 Layer_Color=6899487*
%ADD10C,0.0060*%
%ADD11C,0.0197*%
G04:AMPARAMS|DCode=12|XSize=55.1mil|YSize=39.4mil|CornerRadius=3mil|HoleSize=0mil|Usage=FLASHONLY|Rotation=0.000|XOffset=0mil|YOffset=0mil|HoleType=Round|Shape=RoundedRectangle|*
%AMROUNDEDRECTD12*
21,1,0.0551,0.0335,0,0,0.0*
21,1,0.0492,0.0394,0,0,0.0*
1,1,0.0059,0.0246,-0.0167*
1,1,0.0059,-0.0246,-0.0167*
1,1,0.0059,-0.0246,0.0167*
1,1,0.0059,0.0246,0.0167*
%
%ADD12ROUNDEDRECTD12*%
G04:AMPARAMS|DCode=13|XSize=31.5mil|YSize=23.6mil|CornerRadius=1.2mil|HoleSize=0mil|Usage=FLASHONLY|Rotation=90.000|XOffset=0mil|YOffset=0mil|HoleType=Round|Shape=RoundedRectangle|*
%AMROUNDEDRECTD13*
21,1,0.0315,0.0213,0,0,90.0*
21,1,0.0291,0.0236,0,0,90.0*
1,1,0.0024,0.0106,0.0146*
1,1,0.0024,0.0106,-0.0146*
1,1,0.0024,-0.0106,-0.0146*
1,1,0.0024,-0.0106,0.0146*
%
%ADD13ROUNDEDRECTD13*%
G04:AMPARAMS|DCode=14|XSize=19.7mil|YSize=19.7mil|CornerRadius=1mil|HoleSize=0mil|Usage=FLASHONLY|Rotation=90.000|XOffset=0mil|YOffset=0mil|HoleType=Round|Shape=RoundedRectangle|*
%AMROUNDEDRECTD14*
21,1,0.0197,0.0177,0,0,90.0*
21,1,0.0177,0.0197,0,0,90.0*
1,1,0.0020,0.0089,0.0089*
1,1,0.0020,0.0089,-0.0089*
1,1,0.0020,-0.0089,-0.0089*
1,1,0.0020,-0.0089,0.0089*
%
%ADD14ROUNDEDRECTD14*%
G04:AMPARAMS|DCode=15|XSize=19.7mil|YSize=19.7mil|CornerRadius=1mil|HoleSize=0mil|Usage=FLASHONLY|Rotation=180.000|XOffset=0mil|YOffset=0mil|HoleType=Round|Shape=RoundedRectangle|*
%AMROUNDEDRECTD15*
21,1,0.0197,0.0177,0,0,180.0*
21,1,0.0177,0.0197,0,0,180.0*
1,1,0.0020,-0.0089,0.0089*
1,1,0.0020,0.0089,0.0089*
1,1,0.0020,0.0089,-0.0089*
1,1,0.0020,-0.0089,-0.0089*
%
%ADD15ROUNDEDRECTD15*%
G04:AMPARAMS|DCode=16|XSize=15.7mil|YSize=19.7mil|CornerRadius=0mil|HoleSize=0mil|Usage=FLASHONLY|Rotation=90.000|XOffset=0mil|YOffset=0mil|HoleType=Round|Shape=Octagon|*
%AMOCTAGOND16*
4,1,8,-0.0098,-0.0039,-0.0098,0.0039,-0.0059,0.0079,0.0059,0.0079,0.0098,0.0039,0.0098,-0.0039,0.0059,-0.0079,-0.0059,-0.0079,-0.0098,-0.0039,0.0*
%
%ADD16OCTAGOND16*%

G04:AMPARAMS|DCode=17|XSize=31.5mil|YSize=23.6mil|CornerRadius=1.2mil|HoleSize=0mil|Usage=FLASHONLY|Rotation=0.000|XOffset=0mil|YOffset=0mil|HoleType=Round|Shape=RoundedRectangle|*
%AMROUNDEDRECTD17*
21,1,0.0315,0.0213,0,0,0.0*
21,1,0.0291,0.0236,0,0,0.0*
1,1,0.0024,0.0146,-0.0106*
1,1,0.0024,-0.0146,-0.0106*
1,1,0.0024,-0.0146,0.0106*
1,1,0.0024,0.0146,0.0106*
%
%ADD17ROUNDEDRECTD17*%
G04:AMPARAMS|DCode=18|XSize=15.7mil|YSize=19.7mil|CornerRadius=0mil|HoleSize=0mil|Usage=FLASHONLY|Rotation=0.000|XOffset=0mil|YOffset=0mil|HoleType=Round|Shape=Octagon|*
%AMOCTAGOND18*
4,1,8,-0.0039,0.0098,0.0039,0.0098,0.0079,0.0059,0.0079,-0.0059,0.0039,-0.0098,-0.0039,-0.0098,-0.0079,-0.0059,-0.0079,0.0059,-0.0039,0.0098,0.0*
%
%ADD18OCTAGOND18*%

G04:AMPARAMS|DCode=19|XSize=13.8mil|YSize=33.5mil|CornerRadius=0.7mil|HoleSize=0mil|Usage=FLASHONLY|Rotation=270.000|XOffset=0mil|YOffset=0mil|HoleType=Round|Shape=RoundedRectangle|*
%AMROUNDEDRECTD19*
21,1,0.0138,0.0321,0,0,270.0*
21,1,0.0124,0.0335,0,0,270.0*
1,1,0.0014,-0.0160,-0.0062*
1,1,0.0014,-0.0160,0.0062*
1,1,0.0014,0.0160,0.0062*
1,1,0.0014,0.0160,-0.0062*
%
%ADD19ROUNDEDRECTD19*%
G04:AMPARAMS|DCode=20|XSize=25.6mil|YSize=39.4mil|CornerRadius=2.6mil|HoleSize=0mil|Usage=FLASHONLY|Rotation=90.000|XOffset=0mil|YOffset=0mil|HoleType=Round|Shape=RoundedRectangle|*
%AMROUNDEDRECTD20*
21,1,0.0256,0.0343,0,0,90.0*
21,1,0.0205,0.0394,0,0,90.0*
1,1,0.0051,0.0171,0.0102*
1,1,0.0051,0.0171,-0.0102*
1,1,0.0051,-0.0171,-0.0102*
1,1,0.0051,-0.0171,0.0102*
%
%ADD20ROUNDEDRECTD20*%
G04:AMPARAMS|DCode=21|XSize=196.9mil|YSize=196.9mil|CornerRadius=9.8mil|HoleSize=0mil|Usage=FLASHONLY|Rotation=90.000|XOffset=0mil|YOffset=0mil|HoleType=Round|Shape=RoundedRectangle|*
%AMROUNDEDRECTD21*
21,1,0.1969,0.1772,0,0,90.0*
21,1,0.1772,0.1969,0,0,90.0*
1,1,0.0197,0.0886,0.0886*
1,1,0.0197,0.0886,-0.0886*
1,1,0.0197,-0.0886,-0.0886*
1,1,0.0197,-0.0886,0.0886*
%
%ADD21ROUNDEDRECTD21*%
G04:AMPARAMS|DCode=22|XSize=47.2mil|YSize=11.8mil|CornerRadius=5.9mil|HoleSize=0mil|Usage=FLASHONLY|Rotation=90.000|XOffset=0mil|YOffset=0mil|HoleType=Round|Shape=RoundedRectangle|*
%AMROUNDEDRECTD22*
21,1,0.0472,0.0000,0,0,90.0*
21,1,0.0354,0.0118,0,0,90.0*
1,1,0.0118,0.0000,0.0177*
1,1,0.0118,0.0000,-0.0177*
1,1,0.0118,0.0000,-0.0177*
1,1,0.0118,0.0000,0.0177*
%
%ADD22ROUNDEDRECTD22*%
G04:AMPARAMS|DCode=23|XSize=47.2mil|YSize=11.8mil|CornerRadius=5.9mil|HoleSize=0mil|Usage=FLASHONLY|Rotation=0.000|XOffset=0mil|YOffset=0mil|HoleType=Round|Shape=RoundedRectangle|*
%AMROUNDEDRECTD23*
21,1,0.0472,0.0000,0,0,0.0*
21,1,0.0354,0.0118,0,0,0.0*
1,1,0.0118,0.0177,0.0000*
1,1,0.0118,-0.0177,0.0000*
1,1,0.0118,-0.0177,0.0000*
1,1,0.0118,0.0177,0.0000*
%
%ADD23ROUNDEDRECTD23*%
G04:AMPARAMS|DCode=24|XSize=39mil|YSize=11.8mil|CornerRadius=0.9mil|HoleSize=0mil|Usage=FLASHONLY|Rotation=180.000|XOffset=0mil|YOffset=0mil|HoleType=Round|Shape=RoundedRectangle|*
%AMROUNDEDRECTD24*
21,1,0.0390,0.0100,0,0,180.0*
21,1,0.0372,0.0118,0,0,180.0*
1,1,0.0018,-0.0186,0.0050*
1,1,0.0018,0.0186,0.0050*
1,1,0.0018,0.0186,-0.0050*
1,1,0.0018,-0.0186,-0.0050*
%
%ADD24ROUNDEDRECTD24*%
G04:AMPARAMS|DCode=25|XSize=31.5mil|YSize=29.5mil|CornerRadius=3mil|HoleSize=0mil|Usage=FLASHONLY|Rotation=180.000|XOffset=0mil|YOffset=0mil|HoleType=Round|Shape=RoundedRectangle|*
%AMROUNDEDRECTD25*
21,1,0.0315,0.0236,0,0,180.0*
21,1,0.0256,0.0295,0,0,180.0*
1,1,0.0059,-0.0128,0.0118*
1,1,0.0059,0.0128,0.0118*
1,1,0.0059,0.0128,-0.0118*
1,1,0.0059,-0.0128,-0.0118*
%
%ADD25ROUNDEDRECTD25*%
G04:AMPARAMS|DCode=26|XSize=31.5mil|YSize=29.5mil|CornerRadius=3mil|HoleSize=0mil|Usage=FLASHONLY|Rotation=270.000|XOffset=0mil|YOffset=0mil|HoleType=Round|Shape=RoundedRectangle|*
%AMROUNDEDRECTD26*
21,1,0.0315,0.0236,0,0,270.0*
21,1,0.0256,0.0295,0,0,270.0*
1,1,0.0059,-0.0118,-0.0128*
1,1,0.0059,-0.0118,0.0128*
1,1,0.0059,0.0118,0.0128*
1,1,0.0059,0.0118,-0.0128*
%
%ADD26ROUNDEDRECTD26*%
G04:AMPARAMS|DCode=27|XSize=31.5mil|YSize=31.5mil|CornerRadius=3.2mil|HoleSize=0mil|Usage=FLASHONLY|Rotation=180.000|XOffset=0mil|YOffset=0mil|HoleType=Round|Shape=RoundedRectangle|*
%AMROUNDEDRECTD27*
21,1,0.0315,0.0252,0,0,180.0*
21,1,0.0252,0.0315,0,0,180.0*
1,1,0.0063,-0.0126,0.0126*
1,1,0.0063,0.0126,0.0126*
1,1,0.0063,0.0126,-0.0126*
1,1,0.0063,-0.0126,-0.0126*
%
%ADD27ROUNDEDRECTD27*%
G04:AMPARAMS|DCode=28|XSize=31.5mil|YSize=31.5mil|CornerRadius=3.2mil|HoleSize=0mil|Usage=FLASHONLY|Rotation=90.000|XOffset=0mil|YOffset=0mil|HoleType=Round|Shape=RoundedRectangle|*
%AMROUNDEDRECTD28*
21,1,0.0315,0.0252,0,0,90.0*
21,1,0.0252,0.0315,0,0,90.0*
1,1,0.0063,0.0126,0.0126*
1,1,0.0063,0.0126,-0.0126*
1,1,0.0063,-0.0126,-0.0126*
1,1,0.0063,-0.0126,0.0126*
%
%ADD28ROUNDEDRECTD28*%
G04:AMPARAMS|DCode=29|XSize=47.2mil|YSize=78.7mil|CornerRadius=3.5mil|HoleSize=0mil|Usage=FLASHONLY|Rotation=90.000|XOffset=0mil|YOffset=0mil|HoleType=Round|Shape=RoundedRectangle|*
%AMROUNDEDRECTD29*
21,1,0.0472,0.0717,0,0,90.0*
21,1,0.0402,0.0787,0,0,90.0*
1,1,0.0071,0.0358,0.0201*
1,1,0.0071,0.0358,-0.0201*
1,1,0.0071,-0.0358,-0.0201*
1,1,0.0071,-0.0358,0.0201*
%
%ADD29ROUNDEDRECTD29*%
G04:AMPARAMS|DCode=30|XSize=47.2mil|YSize=78.7mil|CornerRadius=0mil|HoleSize=0mil|Usage=FLASHONLY|Rotation=90.000|XOffset=0mil|YOffset=0mil|HoleType=Round|Shape=RoundedRectangle|*
%AMROUNDEDRECTD30*
21,1,0.0472,0.0787,0,0,90.0*
21,1,0.0472,0.0787,0,0,90.0*
1,1,0.0000,0.0394,0.0236*
1,1,0.0000,0.0394,-0.0236*
1,1,0.0000,-0.0394,-0.0236*
1,1,0.0000,-0.0394,0.0236*
%
%ADD30ROUNDEDRECTD30*%
G04:AMPARAMS|DCode=31|XSize=39.4mil|YSize=59.1mil|CornerRadius=3mil|HoleSize=0mil|Usage=FLASHONLY|Rotation=0.000|XOffset=0mil|YOffset=0mil|HoleType=Round|Shape=RoundedRectangle|*
%AMROUNDEDRECTD31*
21,1,0.0394,0.0532,0,0,0.0*
21,1,0.0335,0.0591,0,0,0.0*
1,1,0.0059,0.0167,-0.0266*
1,1,0.0059,-0.0167,-0.0266*
1,1,0.0059,-0.0167,0.0266*
1,1,0.0059,0.0167,0.0266*
%
%ADD31ROUNDEDRECTD31*%
%ADD32C,0.0080*%
%ADD33C,0.0100*%
G04:AMPARAMS|DCode=34|XSize=3.9mil|YSize=3.9mil|CornerRadius=0.3mil|HoleSize=0mil|Usage=FLASHONLY|Rotation=0.000|XOffset=0mil|YOffset=0mil|HoleType=Round|Shape=RoundedRectangle|*
%AMROUNDEDRECTD34*
21,1,0.0039,0.0033,0,0,0.0*
21,1,0.0033,0.0039,0,0,0.0*
1,1,0.0006,0.0017,-0.0017*
1,1,0.0006,-0.0017,-0.0017*
1,1,0.0006,-0.0017,0.0017*
1,1,0.0006,0.0017,0.0017*
%
%ADD34ROUNDEDRECTD34*%
%ADD35C,0.0197*%
%ADD36C,0.0315*%
%ADD37C,0.0039*%
%ADD38O,0.1260X0.0512*%
%ADD39C,0.0472*%
G04:AMPARAMS|DCode=40|XSize=45.3mil|YSize=86.6mil|CornerRadius=1.1mil|HoleSize=0mil|Usage=FLASHONLY|Rotation=270.000|XOffset=0mil|YOffset=0mil|HoleType=Round|Shape=RoundedRectangle|*
%AMROUNDEDRECTD40*
21,1,0.0453,0.0843,0,0,270.0*
21,1,0.0430,0.0866,0,0,270.0*
1,1,0.0023,-0.0422,-0.0215*
1,1,0.0023,-0.0422,0.0215*
1,1,0.0023,0.0422,0.0215*
1,1,0.0023,0.0422,-0.0215*
%
%ADD40ROUNDEDRECTD40*%
G04:AMPARAMS|DCode=41|XSize=45.3mil|YSize=98.4mil|CornerRadius=1.1mil|HoleSize=0mil|Usage=FLASHONLY|Rotation=270.000|XOffset=0mil|YOffset=0mil|HoleType=Round|Shape=RoundedRectangle|*
%AMROUNDEDRECTD41*
21,1,0.0453,0.0962,0,0,270.0*
21,1,0.0430,0.0984,0,0,270.0*
1,1,0.0023,-0.0481,-0.0215*
1,1,0.0023,-0.0481,0.0215*
1,1,0.0023,0.0481,0.0215*
1,1,0.0023,0.0481,-0.0215*
%
%ADD41ROUNDEDRECTD41*%
G04:AMPARAMS|DCode=42|XSize=31.5mil|YSize=48.8mil|CornerRadius=0.8mil|HoleSize=0mil|Usage=FLASHONLY|Rotation=270.000|XOffset=0mil|YOffset=0mil|HoleType=Round|Shape=RoundedRectangle|*
%AMROUNDEDRECTD42*
21,1,0.0315,0.0472,0,0,270.0*
21,1,0.0299,0.0488,0,0,270.0*
1,1,0.0016,-0.0236,-0.0150*
1,1,0.0016,-0.0236,0.0150*
1,1,0.0016,0.0236,0.0150*
1,1,0.0016,0.0236,-0.0150*
%
%ADD42ROUNDEDRECTD42*%
G04:AMPARAMS|DCode=43|XSize=59.1mil|YSize=45.3mil|CornerRadius=1.1mil|HoleSize=0mil|Usage=FLASHONLY|Rotation=270.000|XOffset=0mil|YOffset=0mil|HoleType=Round|Shape=RoundedRectangle|*
%AMROUNDEDRECTD43*
21,1,0.0591,0.0430,0,0,270.0*
21,1,0.0568,0.0453,0,0,270.0*
1,1,0.0023,-0.0215,-0.0284*
1,1,0.0023,-0.0215,0.0284*
1,1,0.0023,0.0215,0.0284*
1,1,0.0023,0.0215,-0.0284*
%
%ADD43ROUNDEDRECTD43*%
G04:AMPARAMS|DCode=44|XSize=45.7mil|YSize=47.2mil|CornerRadius=1.1mil|HoleSize=0mil|Usage=FLASHONLY|Rotation=270.000|XOffset=0mil|YOffset=0mil|HoleType=Round|Shape=RoundedRectangle|*
%AMROUNDEDRECTD44*
21,1,0.0457,0.0450,0,0,270.0*
21,1,0.0434,0.0472,0,0,270.0*
1,1,0.0023,-0.0225,-0.0217*
1,1,0.0023,-0.0225,0.0217*
1,1,0.0023,0.0225,0.0217*
1,1,0.0023,0.0225,-0.0217*
%
%ADD44ROUNDEDRECTD44*%
%ADD45C,0.0079*%
%ADD46C,0.0070*%
%ADD47R,0.0236X0.1181*%
%ADD48R,0.0295X0.0315*%
%ADD49R,0.0157X0.0571*%
%ADD50R,0.0394X0.0236*%
%ADD51R,0.0236X0.0394*%
G04:AMPARAMS|DCode=52|XSize=192.9mil|YSize=192.9mil|CornerRadius=7.9mil|HoleSize=0mil|Usage=FLASHONLY|Rotation=90.000|XOffset=0mil|YOffset=0mil|HoleType=Round|Shape=RoundedRectangle|*
%AMROUNDEDRECTD52*
21,1,0.1929,0.1772,0,0,90.0*
21,1,0.1772,0.1929,0,0,90.0*
1,1,0.0157,0.0886,0.0886*
1,1,0.0157,0.0886,-0.0886*
1,1,0.0157,-0.0886,-0.0886*
1,1,0.0157,-0.0886,0.0886*
%
%ADD52ROUNDEDRECTD52*%
G04:AMPARAMS|DCode=53|XSize=43.3mil|YSize=7.9mil|CornerRadius=3.9mil|HoleSize=0mil|Usage=FLASHONLY|Rotation=90.000|XOffset=0mil|YOffset=0mil|HoleType=Round|Shape=RoundedRectangle|*
%AMROUNDEDRECTD53*
21,1,0.0433,0.0000,0,0,90.0*
21,1,0.0354,0.0079,0,0,90.0*
1,1,0.0079,0.0000,0.0177*
1,1,0.0079,0.0000,-0.0177*
1,1,0.0079,0.0000,-0.0177*
1,1,0.0079,0.0000,0.0177*
%
%ADD53ROUNDEDRECTD53*%
G04:AMPARAMS|DCode=54|XSize=43.3mil|YSize=7.9mil|CornerRadius=3.9mil|HoleSize=0mil|Usage=FLASHONLY|Rotation=0.000|XOffset=0mil|YOffset=0mil|HoleType=Round|Shape=RoundedRectangle|*
%AMROUNDEDRECTD54*
21,1,0.0433,0.0000,0,0,0.0*
21,1,0.0354,0.0079,0,0,0.0*
1,1,0.0079,0.0177,0.0000*
1,1,0.0079,-0.0177,0.0000*
1,1,0.0079,-0.0177,0.0000*
1,1,0.0079,0.0177,0.0000*
%
%ADD54ROUNDEDRECTD54*%
G04:AMPARAMS|DCode=55|XSize=43.3mil|YSize=74.8mil|CornerRadius=1.6mil|HoleSize=0mil|Usage=FLASHONLY|Rotation=90.000|XOffset=0mil|YOffset=0mil|HoleType=Round|Shape=RoundedRectangle|*
%AMROUNDEDRECTD55*
21,1,0.0433,0.0717,0,0,90.0*
21,1,0.0402,0.0748,0,0,90.0*
1,1,0.0032,0.0358,0.0201*
1,1,0.0032,0.0358,-0.0201*
1,1,0.0032,-0.0358,-0.0201*
1,1,0.0032,-0.0358,0.0201*
%
%ADD55ROUNDEDRECTD55*%
G04:AMPARAMS|DCode=56|XSize=43.3mil|YSize=74.8mil|CornerRadius=0mil|HoleSize=0mil|Usage=FLASHONLY|Rotation=90.000|XOffset=0mil|YOffset=0mil|HoleType=Round|Shape=RoundedRectangle|*
%AMROUNDEDRECTD56*
21,1,0.0433,0.0748,0,0,90.0*
21,1,0.0433,0.0748,0,0,90.0*
1,1,0.0000,0.0374,0.0217*
1,1,0.0000,0.0374,-0.0217*
1,1,0.0000,-0.0374,-0.0217*
1,1,0.0000,-0.0374,0.0217*
%
%ADD56ROUNDEDRECTD56*%
G04:AMPARAMS|DCode=57|XSize=35.4mil|YSize=55.1mil|CornerRadius=1mil|HoleSize=0mil|Usage=FLASHONLY|Rotation=0.000|XOffset=0mil|YOffset=0mil|HoleType=Round|Shape=RoundedRectangle|*
%AMROUNDEDRECTD57*
21,1,0.0354,0.0532,0,0,0.0*
21,1,0.0335,0.0551,0,0,0.0*
1,1,0.0020,0.0167,-0.0266*
1,1,0.0020,-0.0167,-0.0266*
1,1,0.0020,-0.0167,0.0266*
1,1,0.0020,0.0167,0.0266*
%
%ADD57ROUNDEDRECTD57*%
%ADD58C,0.0787*%
G04:AMPARAMS|DCode=59|XSize=63.1mil|YSize=47.4mil|CornerRadius=7mil|HoleSize=0mil|Usage=FLASHONLY|Rotation=0.000|XOffset=0mil|YOffset=0mil|HoleType=Round|Shape=RoundedRectangle|*
%AMROUNDEDRECTD59*
21,1,0.0631,0.0335,0,0,0.0*
21,1,0.0492,0.0474,0,0,0.0*
1,1,0.0139,0.0246,-0.0167*
1,1,0.0139,-0.0246,-0.0167*
1,1,0.0139,-0.0246,0.0167*
1,1,0.0139,0.0246,0.0167*
%
%ADD59ROUNDEDRECTD59*%
G04:AMPARAMS|DCode=60|XSize=35.4mil|YSize=27.6mil|CornerRadius=3.2mil|HoleSize=0mil|Usage=FLASHONLY|Rotation=90.000|XOffset=0mil|YOffset=0mil|HoleType=Round|Shape=RoundedRectangle|*
%AMROUNDEDRECTD60*
21,1,0.0354,0.0213,0,0,90.0*
21,1,0.0291,0.0276,0,0,90.0*
1,1,0.0063,0.0106,0.0146*
1,1,0.0063,0.0106,-0.0146*
1,1,0.0063,-0.0106,-0.0146*
1,1,0.0063,-0.0106,0.0146*
%
%ADD60ROUNDEDRECTD60*%
G04:AMPARAMS|DCode=61|XSize=23.6mil|YSize=23.6mil|CornerRadius=3mil|HoleSize=0mil|Usage=FLASHONLY|Rotation=90.000|XOffset=0mil|YOffset=0mil|HoleType=Round|Shape=RoundedRectangle|*
%AMROUNDEDRECTD61*
21,1,0.0236,0.0177,0,0,90.0*
21,1,0.0177,0.0236,0,0,90.0*
1,1,0.0059,0.0089,0.0089*
1,1,0.0059,0.0089,-0.0089*
1,1,0.0059,-0.0089,-0.0089*
1,1,0.0059,-0.0089,0.0089*
%
%ADD61ROUNDEDRECTD61*%
G04:AMPARAMS|DCode=62|XSize=23.6mil|YSize=23.6mil|CornerRadius=3mil|HoleSize=0mil|Usage=FLASHONLY|Rotation=180.000|XOffset=0mil|YOffset=0mil|HoleType=Round|Shape=RoundedRectangle|*
%AMROUNDEDRECTD62*
21,1,0.0236,0.0177,0,0,180.0*
21,1,0.0177,0.0236,0,0,180.0*
1,1,0.0059,-0.0089,0.0089*
1,1,0.0059,0.0089,0.0089*
1,1,0.0059,0.0089,-0.0089*
1,1,0.0059,-0.0089,-0.0089*
%
%ADD62ROUNDEDRECTD62*%
G04:AMPARAMS|DCode=63|XSize=19.7mil|YSize=23.6mil|CornerRadius=0mil|HoleSize=0mil|Usage=FLASHONLY|Rotation=90.000|XOffset=0mil|YOffset=0mil|HoleType=Round|Shape=Octagon|*
%AMOCTAGOND63*
4,1,8,-0.0118,-0.0049,-0.0118,0.0049,-0.0069,0.0098,0.0069,0.0098,0.0118,0.0049,0.0118,-0.0049,0.0069,-0.0098,-0.0069,-0.0098,-0.0118,-0.0049,0.0*
%
%ADD63OCTAGOND63*%

G04:AMPARAMS|DCode=64|XSize=35.4mil|YSize=27.6mil|CornerRadius=3.2mil|HoleSize=0mil|Usage=FLASHONLY|Rotation=0.000|XOffset=0mil|YOffset=0mil|HoleType=Round|Shape=RoundedRectangle|*
%AMROUNDEDRECTD64*
21,1,0.0354,0.0213,0,0,0.0*
21,1,0.0291,0.0276,0,0,0.0*
1,1,0.0063,0.0146,-0.0106*
1,1,0.0063,-0.0146,-0.0106*
1,1,0.0063,-0.0146,0.0106*
1,1,0.0063,0.0146,0.0106*
%
%ADD64ROUNDEDRECTD64*%
G04:AMPARAMS|DCode=65|XSize=19.7mil|YSize=23.6mil|CornerRadius=0mil|HoleSize=0mil|Usage=FLASHONLY|Rotation=0.000|XOffset=0mil|YOffset=0mil|HoleType=Round|Shape=Octagon|*
%AMOCTAGOND65*
4,1,8,-0.0049,0.0118,0.0049,0.0118,0.0098,0.0069,0.0098,-0.0069,0.0049,-0.0118,-0.0049,-0.0118,-0.0098,-0.0069,-0.0098,0.0069,-0.0049,0.0118,0.0*
%
%ADD65OCTAGOND65*%

G04:AMPARAMS|DCode=66|XSize=17.7mil|YSize=37.4mil|CornerRadius=2.7mil|HoleSize=0mil|Usage=FLASHONLY|Rotation=270.000|XOffset=0mil|YOffset=0mil|HoleType=Round|Shape=RoundedRectangle|*
%AMROUNDEDRECTD66*
21,1,0.0177,0.0321,0,0,270.0*
21,1,0.0124,0.0374,0,0,270.0*
1,1,0.0053,-0.0160,-0.0062*
1,1,0.0053,-0.0160,0.0062*
1,1,0.0053,0.0160,0.0062*
1,1,0.0053,0.0160,-0.0062*
%
%ADD66ROUNDEDRECTD66*%
G04:AMPARAMS|DCode=67|XSize=33.6mil|YSize=47.4mil|CornerRadius=6.6mil|HoleSize=0mil|Usage=FLASHONLY|Rotation=90.000|XOffset=0mil|YOffset=0mil|HoleType=Round|Shape=RoundedRectangle|*
%AMROUNDEDRECTD67*
21,1,0.0336,0.0343,0,0,90.0*
21,1,0.0205,0.0474,0,0,90.0*
1,1,0.0131,0.0171,0.0102*
1,1,0.0131,0.0171,-0.0102*
1,1,0.0131,-0.0171,-0.0102*
1,1,0.0131,-0.0171,0.0102*
%
%ADD67ROUNDEDRECTD67*%
G04:AMPARAMS|DCode=68|XSize=200.8mil|YSize=200.8mil|CornerRadius=11.8mil|HoleSize=0mil|Usage=FLASHONLY|Rotation=90.000|XOffset=0mil|YOffset=0mil|HoleType=Round|Shape=RoundedRectangle|*
%AMROUNDEDRECTD68*
21,1,0.2008,0.1772,0,0,90.0*
21,1,0.1772,0.2008,0,0,90.0*
1,1,0.0236,0.0886,0.0886*
1,1,0.0236,0.0886,-0.0886*
1,1,0.0236,-0.0886,-0.0886*
1,1,0.0236,-0.0886,0.0886*
%
%ADD68ROUNDEDRECTD68*%
G04:AMPARAMS|DCode=69|XSize=51.2mil|YSize=15.7mil|CornerRadius=7.9mil|HoleSize=0mil|Usage=FLASHONLY|Rotation=90.000|XOffset=0mil|YOffset=0mil|HoleType=Round|Shape=RoundedRectangle|*
%AMROUNDEDRECTD69*
21,1,0.0512,0.0000,0,0,90.0*
21,1,0.0354,0.0157,0,0,90.0*
1,1,0.0157,0.0000,0.0177*
1,1,0.0157,0.0000,-0.0177*
1,1,0.0157,0.0000,-0.0177*
1,1,0.0157,0.0000,0.0177*
%
%ADD69ROUNDEDRECTD69*%
G04:AMPARAMS|DCode=70|XSize=51.2mil|YSize=15.7mil|CornerRadius=7.9mil|HoleSize=0mil|Usage=FLASHONLY|Rotation=0.000|XOffset=0mil|YOffset=0mil|HoleType=Round|Shape=RoundedRectangle|*
%AMROUNDEDRECTD70*
21,1,0.0512,0.0000,0,0,0.0*
21,1,0.0354,0.0157,0,0,0.0*
1,1,0.0157,0.0177,0.0000*
1,1,0.0157,-0.0177,0.0000*
1,1,0.0157,-0.0177,0.0000*
1,1,0.0157,0.0177,0.0000*
%
%ADD70ROUNDEDRECTD70*%
G04:AMPARAMS|DCode=71|XSize=43.7mil|YSize=16.5mil|CornerRadius=3.2mil|HoleSize=0mil|Usage=FLASHONLY|Rotation=180.000|XOffset=0mil|YOffset=0mil|HoleType=Round|Shape=RoundedRectangle|*
%AMROUNDEDRECTD71*
21,1,0.0437,0.0100,0,0,180.0*
21,1,0.0372,0.0165,0,0,180.0*
1,1,0.0065,-0.0186,0.0050*
1,1,0.0065,0.0186,0.0050*
1,1,0.0065,0.0186,-0.0050*
1,1,0.0065,-0.0186,-0.0050*
%
%ADD71ROUNDEDRECTD71*%
G04:AMPARAMS|DCode=72|XSize=39.4mil|YSize=37.4mil|CornerRadius=6.9mil|HoleSize=0mil|Usage=FLASHONLY|Rotation=180.000|XOffset=0mil|YOffset=0mil|HoleType=Round|Shape=RoundedRectangle|*
%AMROUNDEDRECTD72*
21,1,0.0394,0.0236,0,0,180.0*
21,1,0.0256,0.0374,0,0,180.0*
1,1,0.0138,-0.0128,0.0118*
1,1,0.0138,0.0128,0.0118*
1,1,0.0138,0.0128,-0.0118*
1,1,0.0138,-0.0128,-0.0118*
%
%ADD72ROUNDEDRECTD72*%
G04:AMPARAMS|DCode=73|XSize=39.4mil|YSize=37.4mil|CornerRadius=6.9mil|HoleSize=0mil|Usage=FLASHONLY|Rotation=270.000|XOffset=0mil|YOffset=0mil|HoleType=Round|Shape=RoundedRectangle|*
%AMROUNDEDRECTD73*
21,1,0.0394,0.0236,0,0,270.0*
21,1,0.0256,0.0374,0,0,270.0*
1,1,0.0138,-0.0118,-0.0128*
1,1,0.0138,-0.0118,0.0128*
1,1,0.0138,0.0118,0.0128*
1,1,0.0138,0.0118,-0.0128*
%
%ADD73ROUNDEDRECTD73*%
G04:AMPARAMS|DCode=74|XSize=39.4mil|YSize=39.4mil|CornerRadius=7.1mil|HoleSize=0mil|Usage=FLASHONLY|Rotation=180.000|XOffset=0mil|YOffset=0mil|HoleType=Round|Shape=RoundedRectangle|*
%AMROUNDEDRECTD74*
21,1,0.0394,0.0252,0,0,180.0*
21,1,0.0252,0.0394,0,0,180.0*
1,1,0.0142,-0.0126,0.0126*
1,1,0.0142,0.0126,0.0126*
1,1,0.0142,0.0126,-0.0126*
1,1,0.0142,-0.0126,-0.0126*
%
%ADD74ROUNDEDRECTD74*%
G04:AMPARAMS|DCode=75|XSize=39.4mil|YSize=39.4mil|CornerRadius=7.1mil|HoleSize=0mil|Usage=FLASHONLY|Rotation=90.000|XOffset=0mil|YOffset=0mil|HoleType=Round|Shape=RoundedRectangle|*
%AMROUNDEDRECTD75*
21,1,0.0394,0.0252,0,0,90.0*
21,1,0.0252,0.0394,0,0,90.0*
1,1,0.0142,0.0126,0.0126*
1,1,0.0142,0.0126,-0.0126*
1,1,0.0142,-0.0126,-0.0126*
1,1,0.0142,-0.0126,0.0126*
%
%ADD75ROUNDEDRECTD75*%
G04:AMPARAMS|DCode=76|XSize=51.2mil|YSize=82.7mil|CornerRadius=5.5mil|HoleSize=0mil|Usage=FLASHONLY|Rotation=90.000|XOffset=0mil|YOffset=0mil|HoleType=Round|Shape=RoundedRectangle|*
%AMROUNDEDRECTD76*
21,1,0.0512,0.0717,0,0,90.0*
21,1,0.0402,0.0827,0,0,90.0*
1,1,0.0110,0.0358,0.0201*
1,1,0.0110,0.0358,-0.0201*
1,1,0.0110,-0.0358,-0.0201*
1,1,0.0110,-0.0358,0.0201*
%
%ADD76ROUNDEDRECTD76*%
G04:AMPARAMS|DCode=77|XSize=51.2mil|YSize=82.7mil|CornerRadius=0mil|HoleSize=0mil|Usage=FLASHONLY|Rotation=90.000|XOffset=0mil|YOffset=0mil|HoleType=Round|Shape=RoundedRectangle|*
%AMROUNDEDRECTD77*
21,1,0.0512,0.0827,0,0,90.0*
21,1,0.0512,0.0827,0,0,90.0*
1,1,0.0000,0.0413,0.0256*
1,1,0.0000,0.0413,-0.0256*
1,1,0.0000,-0.0413,-0.0256*
1,1,0.0000,-0.0413,0.0256*
%
%ADD77ROUNDEDRECTD77*%
G04:AMPARAMS|DCode=78|XSize=43.3mil|YSize=63mil|CornerRadius=4.9mil|HoleSize=0mil|Usage=FLASHONLY|Rotation=0.000|XOffset=0mil|YOffset=0mil|HoleType=Round|Shape=RoundedRectangle|*
%AMROUNDEDRECTD78*
21,1,0.0433,0.0532,0,0,0.0*
21,1,0.0335,0.0630,0,0,0.0*
1,1,0.0098,0.0167,-0.0266*
1,1,0.0098,-0.0167,-0.0266*
1,1,0.0098,-0.0167,0.0266*
1,1,0.0098,0.0167,0.0266*
%
%ADD78ROUNDEDRECTD78*%
G04:AMPARAMS|DCode=79|XSize=35.4mil|YSize=33.5mil|CornerRadius=4.9mil|HoleSize=0mil|Usage=FLASHONLY|Rotation=0.000|XOffset=0mil|YOffset=0mil|HoleType=Round|Shape=RoundedRectangle|*
%AMROUNDEDRECTD79*
21,1,0.0354,0.0236,0,0,0.0*
21,1,0.0256,0.0335,0,0,0.0*
1,1,0.0098,0.0128,-0.0118*
1,1,0.0098,-0.0128,-0.0118*
1,1,0.0098,-0.0128,0.0118*
1,1,0.0098,0.0128,0.0118*
%
%ADD79ROUNDEDRECTD79*%
G04:AMPARAMS|DCode=80|XSize=35.4mil|YSize=33.5mil|CornerRadius=4.9mil|HoleSize=0mil|Usage=FLASHONLY|Rotation=90.000|XOffset=0mil|YOffset=0mil|HoleType=Round|Shape=RoundedRectangle|*
%AMROUNDEDRECTD80*
21,1,0.0354,0.0236,0,0,90.0*
21,1,0.0256,0.0335,0,0,90.0*
1,1,0.0098,0.0118,0.0128*
1,1,0.0098,0.0118,-0.0128*
1,1,0.0098,-0.0118,-0.0128*
1,1,0.0098,-0.0118,0.0128*
%
%ADD80ROUNDEDRECTD80*%
G04:AMPARAMS|DCode=81|XSize=7.9mil|YSize=7.9mil|CornerRadius=2.3mil|HoleSize=0mil|Usage=FLASHONLY|Rotation=0.000|XOffset=0mil|YOffset=0mil|HoleType=Round|Shape=RoundedRectangle|*
%AMROUNDEDRECTD81*
21,1,0.0079,0.0033,0,0,0.0*
21,1,0.0033,0.0079,0,0,0.0*
1,1,0.0045,0.0017,-0.0017*
1,1,0.0045,-0.0017,-0.0017*
1,1,0.0045,-0.0017,0.0017*
1,1,0.0045,0.0017,0.0017*
%
%ADD81ROUNDEDRECTD81*%
%ADD82C,0.0591*%
%ADD83C,0.0079*%
%ADD84O,0.1299X0.0551*%
G04:AMPARAMS|DCode=85|XSize=23.6mil|YSize=17.7mil|CornerRadius=4.4mil|HoleSize=0mil|Usage=FLASHONLY|Rotation=180.000|XOffset=0mil|YOffset=0mil|HoleType=Round|Shape=RoundedRectangle|*
%AMROUNDEDRECTD85*
21,1,0.0236,0.0089,0,0,180.0*
21,1,0.0148,0.0177,0,0,180.0*
1,1,0.0089,-0.0074,0.0044*
1,1,0.0089,0.0074,0.0044*
1,1,0.0089,0.0074,-0.0044*
1,1,0.0089,-0.0074,-0.0044*
%
%ADD85ROUNDEDRECTD85*%
%ADD86C,0.0552*%
G04:AMPARAMS|DCode=87|XSize=49.2mil|YSize=90.6mil|CornerRadius=3.1mil|HoleSize=0mil|Usage=FLASHONLY|Rotation=270.000|XOffset=0mil|YOffset=0mil|HoleType=Round|Shape=RoundedRectangle|*
%AMROUNDEDRECTD87*
21,1,0.0492,0.0843,0,0,270.0*
21,1,0.0430,0.0906,0,0,270.0*
1,1,0.0062,-0.0422,-0.0215*
1,1,0.0062,-0.0422,0.0215*
1,1,0.0062,0.0422,0.0215*
1,1,0.0062,0.0422,-0.0215*
%
%ADD87ROUNDEDRECTD87*%
G04:AMPARAMS|DCode=88|XSize=49.2mil|YSize=102.4mil|CornerRadius=3.1mil|HoleSize=0mil|Usage=FLASHONLY|Rotation=270.000|XOffset=0mil|YOffset=0mil|HoleType=Round|Shape=RoundedRectangle|*
%AMROUNDEDRECTD88*
21,1,0.0492,0.0962,0,0,270.0*
21,1,0.0430,0.1024,0,0,270.0*
1,1,0.0062,-0.0481,-0.0215*
1,1,0.0062,-0.0481,0.0215*
1,1,0.0062,0.0481,0.0215*
1,1,0.0062,0.0481,-0.0215*
%
%ADD88ROUNDEDRECTD88*%
G04:AMPARAMS|DCode=89|XSize=35.4mil|YSize=52.8mil|CornerRadius=2.8mil|HoleSize=0mil|Usage=FLASHONLY|Rotation=270.000|XOffset=0mil|YOffset=0mil|HoleType=Round|Shape=RoundedRectangle|*
%AMROUNDEDRECTD89*
21,1,0.0354,0.0472,0,0,270.0*
21,1,0.0299,0.0528,0,0,270.0*
1,1,0.0055,-0.0236,-0.0150*
1,1,0.0055,-0.0236,0.0150*
1,1,0.0055,0.0236,0.0150*
1,1,0.0055,0.0236,-0.0150*
%
%ADD89ROUNDEDRECTD89*%
G04:AMPARAMS|DCode=90|XSize=63mil|YSize=49.2mil|CornerRadius=3.1mil|HoleSize=0mil|Usage=FLASHONLY|Rotation=270.000|XOffset=0mil|YOffset=0mil|HoleType=Round|Shape=RoundedRectangle|*
%AMROUNDEDRECTD90*
21,1,0.0630,0.0430,0,0,270.0*
21,1,0.0568,0.0492,0,0,270.0*
1,1,0.0062,-0.0215,-0.0284*
1,1,0.0062,-0.0215,0.0284*
1,1,0.0062,0.0215,0.0284*
1,1,0.0062,0.0215,-0.0284*
%
%ADD90ROUNDEDRECTD90*%
G04:AMPARAMS|DCode=91|XSize=49.6mil|YSize=51.2mil|CornerRadius=3.1mil|HoleSize=0mil|Usage=FLASHONLY|Rotation=270.000|XOffset=0mil|YOffset=0mil|HoleType=Round|Shape=RoundedRectangle|*
%AMROUNDEDRECTD91*
21,1,0.0496,0.0450,0,0,270.0*
21,1,0.0434,0.0512,0,0,270.0*
1,1,0.0062,-0.0225,-0.0217*
1,1,0.0062,-0.0225,0.0217*
1,1,0.0062,0.0225,0.0217*
1,1,0.0062,0.0225,-0.0217*
%
%ADD91ROUNDEDRECTD91*%
D58*
X2461Y5276D02*
D03*
X14311Y3307D02*
D03*
D61*
X9803Y1713D02*
D03*
D62*
X10591D02*
D03*
D64*
X10197D02*
D03*
Y1516D02*
D03*
Y1909D02*
D03*
D65*
X10512Y1713D02*
D03*
X9882D02*
D03*
D72*
X7953Y4665D02*
D03*
Y5276D02*
D03*
X8563Y4665D02*
D03*
Y5276D02*
D03*
D73*
Y2303D02*
D03*
X7953D02*
D03*
X8563Y2894D02*
D03*
X7953D02*
D03*
X8563Y4075D02*
D03*
X7953D02*
D03*
X8563Y1713D02*
D03*
X7953D02*
D03*
X8563Y689D02*
D03*
X7953D02*
D03*
X8563Y3484D02*
D03*
X7953D02*
D03*
D81*
X2283Y7362D02*
D03*
X2598D02*
D03*
X2913D02*
D03*
X3228D02*
D03*
X3543D02*
D03*
Y6732D02*
D03*
X3228D02*
D03*
X2913D02*
D03*
X2598D02*
D03*
X2283D02*
D03*
X11575D02*
D03*
X11890D02*
D03*
X12205D02*
D03*
X12520D02*
D03*
X12835D02*
D03*
Y7362D02*
D03*
X12520D02*
D03*
X12205D02*
D03*
X11890D02*
D03*
X11575D02*
D03*
D82*
X787Y6299D02*
D03*
X14173Y394D02*
D03*
D83*
X14016Y4216D02*
D03*
Y2444D02*
D03*
D84*
Y1027D02*
D03*
Y5633D02*
D03*
D85*
X11614Y6142D02*
D03*
Y6358D02*
D03*
X11909D02*
D03*
Y6142D02*
D03*
D86*
X10197Y3484D02*
D03*
X9252Y4370D02*
D03*
X10236Y5827D02*
D03*
X10197Y2638D02*
D03*
X591Y3898D02*
D03*
Y2717D02*
D03*
X9252Y5827D02*
D03*
X8268D02*
D03*
X591Y5079D02*
D03*
Y1535D02*
D03*
X12874Y2598D02*
D03*
X12598Y709D02*
D03*
X10945D02*
D03*
D87*
X6874Y6159D02*
D03*
X2413Y533D02*
D03*
D88*
Y6159D02*
D03*
D89*
X2165Y4488D02*
D03*
Y4055D02*
D03*
Y3622D02*
D03*
Y3189D02*
D03*
Y2756D02*
D03*
Y2323D02*
D03*
Y1890D02*
D03*
Y1457D02*
D03*
D90*
X7187Y4465D02*
D03*
Y1402D02*
D03*
D91*
X6803Y691D02*
D03*
X3260D02*
D03*
M02*
