%FSLAX24Y24*%
%MOIN*%
G70*
G01*
G75*
G04 Layer_Physical_Order=1*
G04 Layer_Color=255*
%ADD10C,0.0060*%
%ADD11C,0.0197*%
G04:AMPARAMS|DCode=12|XSize=55.1mil|YSize=39.4mil|CornerRadius=3mil|HoleSize=0mil|Usage=FLASHONLY|Rotation=0.000|XOffset=0mil|YOffset=0mil|HoleType=Round|Shape=RoundedRectangle|*
%AMROUNDEDRECTD12*
21,1,0.0551,0.0335,0,0,0.0*
21,1,0.0492,0.0394,0,0,0.0*
1,1,0.0059,0.0246,-0.0167*
1,1,0.0059,-0.0246,-0.0167*
1,1,0.0059,-0.0246,0.0167*
1,1,0.0059,0.0246,0.0167*
%
%ADD12ROUNDEDRECTD12*%
G04:AMPARAMS|DCode=13|XSize=31.5mil|YSize=23.6mil|CornerRadius=1.2mil|HoleSize=0mil|Usage=FLASHONLY|Rotation=90.000|XOffset=0mil|YOffset=0mil|HoleType=Round|Shape=RoundedRectangle|*
%AMROUNDEDRECTD13*
21,1,0.0315,0.0213,0,0,90.0*
21,1,0.0291,0.0236,0,0,90.0*
1,1,0.0024,0.0106,0.0146*
1,1,0.0024,0.0106,-0.0146*
1,1,0.0024,-0.0106,-0.0146*
1,1,0.0024,-0.0106,0.0146*
%
%ADD13ROUNDEDRECTD13*%
G04:AMPARAMS|DCode=14|XSize=19.7mil|YSize=19.7mil|CornerRadius=1mil|HoleSize=0mil|Usage=FLASHONLY|Rotation=90.000|XOffset=0mil|YOffset=0mil|HoleType=Round|Shape=RoundedRectangle|*
%AMROUNDEDRECTD14*
21,1,0.0197,0.0177,0,0,90.0*
21,1,0.0177,0.0197,0,0,90.0*
1,1,0.0020,0.0089,0.0089*
1,1,0.0020,0.0089,-0.0089*
1,1,0.0020,-0.0089,-0.0089*
1,1,0.0020,-0.0089,0.0089*
%
%ADD14ROUNDEDRECTD14*%
G04:AMPARAMS|DCode=15|XSize=19.7mil|YSize=19.7mil|CornerRadius=1mil|HoleSize=0mil|Usage=FLASHONLY|Rotation=180.000|XOffset=0mil|YOffset=0mil|HoleType=Round|Shape=RoundedRectangle|*
%AMROUNDEDRECTD15*
21,1,0.0197,0.0177,0,0,180.0*
21,1,0.0177,0.0197,0,0,180.0*
1,1,0.0020,-0.0089,0.0089*
1,1,0.0020,0.0089,0.0089*
1,1,0.0020,0.0089,-0.0089*
1,1,0.0020,-0.0089,-0.0089*
%
%ADD15ROUNDEDRECTD15*%
G04:AMPARAMS|DCode=16|XSize=15.7mil|YSize=19.7mil|CornerRadius=0mil|HoleSize=0mil|Usage=FLASHONLY|Rotation=90.000|XOffset=0mil|YOffset=0mil|HoleType=Round|Shape=Octagon|*
%AMOCTAGOND16*
4,1,8,-0.0098,-0.0039,-0.0098,0.0039,-0.0059,0.0079,0.0059,0.0079,0.0098,0.0039,0.0098,-0.0039,0.0059,-0.0079,-0.0059,-0.0079,-0.0098,-0.0039,0.0*
%
%ADD16OCTAGOND16*%

G04:AMPARAMS|DCode=17|XSize=31.5mil|YSize=23.6mil|CornerRadius=1.2mil|HoleSize=0mil|Usage=FLASHONLY|Rotation=0.000|XOffset=0mil|YOffset=0mil|HoleType=Round|Shape=RoundedRectangle|*
%AMROUNDEDRECTD17*
21,1,0.0315,0.0213,0,0,0.0*
21,1,0.0291,0.0236,0,0,0.0*
1,1,0.0024,0.0146,-0.0106*
1,1,0.0024,-0.0146,-0.0106*
1,1,0.0024,-0.0146,0.0106*
1,1,0.0024,0.0146,0.0106*
%
%ADD17ROUNDEDRECTD17*%
G04:AMPARAMS|DCode=18|XSize=15.7mil|YSize=19.7mil|CornerRadius=0mil|HoleSize=0mil|Usage=FLASHONLY|Rotation=0.000|XOffset=0mil|YOffset=0mil|HoleType=Round|Shape=Octagon|*
%AMOCTAGOND18*
4,1,8,-0.0039,0.0098,0.0039,0.0098,0.0079,0.0059,0.0079,-0.0059,0.0039,-0.0098,-0.0039,-0.0098,-0.0079,-0.0059,-0.0079,0.0059,-0.0039,0.0098,0.0*
%
%ADD18OCTAGOND18*%

G04:AMPARAMS|DCode=19|XSize=13.8mil|YSize=33.5mil|CornerRadius=0.7mil|HoleSize=0mil|Usage=FLASHONLY|Rotation=270.000|XOffset=0mil|YOffset=0mil|HoleType=Round|Shape=RoundedRectangle|*
%AMROUNDEDRECTD19*
21,1,0.0138,0.0321,0,0,270.0*
21,1,0.0124,0.0335,0,0,270.0*
1,1,0.0014,-0.0160,-0.0062*
1,1,0.0014,-0.0160,0.0062*
1,1,0.0014,0.0160,0.0062*
1,1,0.0014,0.0160,-0.0062*
%
%ADD19ROUNDEDRECTD19*%
G04:AMPARAMS|DCode=20|XSize=25.6mil|YSize=39.4mil|CornerRadius=2.6mil|HoleSize=0mil|Usage=FLASHONLY|Rotation=90.000|XOffset=0mil|YOffset=0mil|HoleType=Round|Shape=RoundedRectangle|*
%AMROUNDEDRECTD20*
21,1,0.0256,0.0343,0,0,90.0*
21,1,0.0205,0.0394,0,0,90.0*
1,1,0.0051,0.0171,0.0102*
1,1,0.0051,0.0171,-0.0102*
1,1,0.0051,-0.0171,-0.0102*
1,1,0.0051,-0.0171,0.0102*
%
%ADD20ROUNDEDRECTD20*%
G04:AMPARAMS|DCode=21|XSize=196.9mil|YSize=196.9mil|CornerRadius=9.8mil|HoleSize=0mil|Usage=FLASHONLY|Rotation=90.000|XOffset=0mil|YOffset=0mil|HoleType=Round|Shape=RoundedRectangle|*
%AMROUNDEDRECTD21*
21,1,0.1969,0.1772,0,0,90.0*
21,1,0.1772,0.1969,0,0,90.0*
1,1,0.0197,0.0886,0.0886*
1,1,0.0197,0.0886,-0.0886*
1,1,0.0197,-0.0886,-0.0886*
1,1,0.0197,-0.0886,0.0886*
%
%ADD21ROUNDEDRECTD21*%
G04:AMPARAMS|DCode=22|XSize=47.2mil|YSize=11.8mil|CornerRadius=5.9mil|HoleSize=0mil|Usage=FLASHONLY|Rotation=90.000|XOffset=0mil|YOffset=0mil|HoleType=Round|Shape=RoundedRectangle|*
%AMROUNDEDRECTD22*
21,1,0.0472,0.0000,0,0,90.0*
21,1,0.0354,0.0118,0,0,90.0*
1,1,0.0118,0.0000,0.0177*
1,1,0.0118,0.0000,-0.0177*
1,1,0.0118,0.0000,-0.0177*
1,1,0.0118,0.0000,0.0177*
%
%ADD22ROUNDEDRECTD22*%
G04:AMPARAMS|DCode=23|XSize=47.2mil|YSize=11.8mil|CornerRadius=5.9mil|HoleSize=0mil|Usage=FLASHONLY|Rotation=0.000|XOffset=0mil|YOffset=0mil|HoleType=Round|Shape=RoundedRectangle|*
%AMROUNDEDRECTD23*
21,1,0.0472,0.0000,0,0,0.0*
21,1,0.0354,0.0118,0,0,0.0*
1,1,0.0118,0.0177,0.0000*
1,1,0.0118,-0.0177,0.0000*
1,1,0.0118,-0.0177,0.0000*
1,1,0.0118,0.0177,0.0000*
%
%ADD23ROUNDEDRECTD23*%
G04:AMPARAMS|DCode=24|XSize=39mil|YSize=11.8mil|CornerRadius=0.9mil|HoleSize=0mil|Usage=FLASHONLY|Rotation=180.000|XOffset=0mil|YOffset=0mil|HoleType=Round|Shape=RoundedRectangle|*
%AMROUNDEDRECTD24*
21,1,0.0390,0.0100,0,0,180.0*
21,1,0.0372,0.0118,0,0,180.0*
1,1,0.0018,-0.0186,0.0050*
1,1,0.0018,0.0186,0.0050*
1,1,0.0018,0.0186,-0.0050*
1,1,0.0018,-0.0186,-0.0050*
%
%ADD24ROUNDEDRECTD24*%
G04:AMPARAMS|DCode=25|XSize=31.5mil|YSize=29.5mil|CornerRadius=3mil|HoleSize=0mil|Usage=FLASHONLY|Rotation=180.000|XOffset=0mil|YOffset=0mil|HoleType=Round|Shape=RoundedRectangle|*
%AMROUNDEDRECTD25*
21,1,0.0315,0.0236,0,0,180.0*
21,1,0.0256,0.0295,0,0,180.0*
1,1,0.0059,-0.0128,0.0118*
1,1,0.0059,0.0128,0.0118*
1,1,0.0059,0.0128,-0.0118*
1,1,0.0059,-0.0128,-0.0118*
%
%ADD25ROUNDEDRECTD25*%
G04:AMPARAMS|DCode=26|XSize=31.5mil|YSize=29.5mil|CornerRadius=3mil|HoleSize=0mil|Usage=FLASHONLY|Rotation=270.000|XOffset=0mil|YOffset=0mil|HoleType=Round|Shape=RoundedRectangle|*
%AMROUNDEDRECTD26*
21,1,0.0315,0.0236,0,0,270.0*
21,1,0.0256,0.0295,0,0,270.0*
1,1,0.0059,-0.0118,-0.0128*
1,1,0.0059,-0.0118,0.0128*
1,1,0.0059,0.0118,0.0128*
1,1,0.0059,0.0118,-0.0128*
%
%ADD26ROUNDEDRECTD26*%
G04:AMPARAMS|DCode=27|XSize=31.5mil|YSize=31.5mil|CornerRadius=3.2mil|HoleSize=0mil|Usage=FLASHONLY|Rotation=180.000|XOffset=0mil|YOffset=0mil|HoleType=Round|Shape=RoundedRectangle|*
%AMROUNDEDRECTD27*
21,1,0.0315,0.0252,0,0,180.0*
21,1,0.0252,0.0315,0,0,180.0*
1,1,0.0063,-0.0126,0.0126*
1,1,0.0063,0.0126,0.0126*
1,1,0.0063,0.0126,-0.0126*
1,1,0.0063,-0.0126,-0.0126*
%
%ADD27ROUNDEDRECTD27*%
G04:AMPARAMS|DCode=28|XSize=31.5mil|YSize=31.5mil|CornerRadius=3.2mil|HoleSize=0mil|Usage=FLASHONLY|Rotation=90.000|XOffset=0mil|YOffset=0mil|HoleType=Round|Shape=RoundedRectangle|*
%AMROUNDEDRECTD28*
21,1,0.0315,0.0252,0,0,90.0*
21,1,0.0252,0.0315,0,0,90.0*
1,1,0.0063,0.0126,0.0126*
1,1,0.0063,0.0126,-0.0126*
1,1,0.0063,-0.0126,-0.0126*
1,1,0.0063,-0.0126,0.0126*
%
%ADD28ROUNDEDRECTD28*%
G04:AMPARAMS|DCode=29|XSize=47.2mil|YSize=78.7mil|CornerRadius=3.5mil|HoleSize=0mil|Usage=FLASHONLY|Rotation=90.000|XOffset=0mil|YOffset=0mil|HoleType=Round|Shape=RoundedRectangle|*
%AMROUNDEDRECTD29*
21,1,0.0472,0.0717,0,0,90.0*
21,1,0.0402,0.0787,0,0,90.0*
1,1,0.0071,0.0358,0.0201*
1,1,0.0071,0.0358,-0.0201*
1,1,0.0071,-0.0358,-0.0201*
1,1,0.0071,-0.0358,0.0201*
%
%ADD29ROUNDEDRECTD29*%
G04:AMPARAMS|DCode=30|XSize=47.2mil|YSize=78.7mil|CornerRadius=0mil|HoleSize=0mil|Usage=FLASHONLY|Rotation=90.000|XOffset=0mil|YOffset=0mil|HoleType=Round|Shape=RoundedRectangle|*
%AMROUNDEDRECTD30*
21,1,0.0472,0.0787,0,0,90.0*
21,1,0.0472,0.0787,0,0,90.0*
1,1,0.0000,0.0394,0.0236*
1,1,0.0000,0.0394,-0.0236*
1,1,0.0000,-0.0394,-0.0236*
1,1,0.0000,-0.0394,0.0236*
%
%ADD30ROUNDEDRECTD30*%
G04:AMPARAMS|DCode=31|XSize=39.4mil|YSize=59.1mil|CornerRadius=3mil|HoleSize=0mil|Usage=FLASHONLY|Rotation=0.000|XOffset=0mil|YOffset=0mil|HoleType=Round|Shape=RoundedRectangle|*
%AMROUNDEDRECTD31*
21,1,0.0394,0.0532,0,0,0.0*
21,1,0.0335,0.0591,0,0,0.0*
1,1,0.0059,0.0167,-0.0266*
1,1,0.0059,-0.0167,-0.0266*
1,1,0.0059,-0.0167,0.0266*
1,1,0.0059,0.0167,0.0266*
%
%ADD31ROUNDEDRECTD31*%
%ADD32C,0.0080*%
%ADD33C,0.0100*%
G04:AMPARAMS|DCode=34|XSize=3.9mil|YSize=3.9mil|CornerRadius=0.3mil|HoleSize=0mil|Usage=FLASHONLY|Rotation=0.000|XOffset=0mil|YOffset=0mil|HoleType=Round|Shape=RoundedRectangle|*
%AMROUNDEDRECTD34*
21,1,0.0039,0.0033,0,0,0.0*
21,1,0.0033,0.0039,0,0,0.0*
1,1,0.0006,0.0017,-0.0017*
1,1,0.0006,-0.0017,-0.0017*
1,1,0.0006,-0.0017,0.0017*
1,1,0.0006,0.0017,0.0017*
%
%ADD34ROUNDEDRECTD34*%
%ADD35C,0.0197*%
%ADD36C,0.0315*%
%ADD37C,0.0039*%
%ADD38O,0.1260X0.0512*%
G36*
X12832Y6470D02*
X12796Y6446D01*
X12779Y6421D01*
X12333D01*
X12264Y6407D01*
X12205Y6368D01*
X12188Y6350D01*
X12043D01*
X12003Y6342D01*
X11968Y6319D01*
X11945Y6285D01*
X11937Y6244D01*
Y6039D01*
X11945Y5999D01*
X11957Y5981D01*
X11953Y5961D01*
X11925Y5919D01*
X11915Y5870D01*
Y5818D01*
X12215D01*
Y5718D01*
X11915D01*
Y5665D01*
X11925Y5616D01*
X11953Y5575D01*
X11957Y5554D01*
X11945Y5537D01*
X11937Y5496D01*
Y5291D01*
X11945Y5251D01*
X11968Y5216D01*
X12003Y5193D01*
X12043Y5185D01*
X12386D01*
X12427Y5193D01*
X12456Y5213D01*
X12811D01*
Y5025D01*
X12634D01*
X12589Y5016D01*
X12552Y4991D01*
X12526Y4953D01*
X12517Y4909D01*
Y4643D01*
X12234Y4360D01*
X12195Y4301D01*
X12190Y4276D01*
X12120Y4283D01*
Y4340D01*
X11620D01*
Y4262D01*
X11630Y4211D01*
X11659Y4168D01*
X11651Y4089D01*
X11650Y4088D01*
X11642Y4045D01*
Y3789D01*
X11650Y3747D01*
X11651Y3745D01*
X11659Y3666D01*
X11630Y3623D01*
X11620Y3573D01*
Y3495D01*
X12120D01*
Y3573D01*
X12110Y3623D01*
X12082Y3666D01*
X12089Y3745D01*
X12090Y3747D01*
X12098Y3786D01*
X12166D01*
X12192Y3747D01*
X12270Y3695D01*
X12362Y3676D01*
X12450Y3694D01*
X12465Y3693D01*
X12520Y3664D01*
Y3409D01*
X13324D01*
X13412Y3321D01*
X13383Y3251D01*
X12520D01*
Y2985D01*
X12141D01*
X12139Y2987D01*
X12110Y3007D01*
X12076Y3014D01*
X11704D01*
X11670Y3007D01*
X11641Y2987D01*
X11621Y2958D01*
X11614Y2924D01*
Y2836D01*
X11605Y2828D01*
X11576Y2818D01*
X11570Y2818D01*
X11535Y2839D01*
Y2924D01*
X11528Y2958D01*
X11509Y2987D01*
X11480Y3007D01*
X11446Y3014D01*
X11133D01*
X11104Y3084D01*
X11227Y3207D01*
X11378D01*
X11420Y3215D01*
X11456Y3239D01*
X11480Y3275D01*
X11488Y3317D01*
Y3573D01*
X11480Y3615D01*
X11479Y3617D01*
X11471Y3696D01*
X11500Y3739D01*
X11510Y3789D01*
Y3867D01*
X11010D01*
Y3789D01*
X11020Y3739D01*
X11048Y3696D01*
X11041Y3617D01*
X11040Y3615D01*
X11031Y3573D01*
Y3404D01*
X10992Y3372D01*
X10923Y3400D01*
X10911Y3458D01*
X10859Y3536D01*
X10781Y3589D01*
X10755Y3594D01*
X10732Y3670D01*
X10801Y3739D01*
X10830Y3782D01*
X10840Y3832D01*
Y4174D01*
X10879Y4200D01*
X10931Y4278D01*
X10950Y4370D01*
X10931Y4462D01*
X10879Y4540D01*
X10801Y4593D01*
X10774Y4598D01*
X10715Y4632D01*
X10733Y4724D01*
X10715Y4817D01*
X10662Y4895D01*
X10584Y4947D01*
X10492Y4965D01*
X10400Y4947D01*
X10322Y4895D01*
X10316Y4886D01*
X10249Y4910D01*
Y5163D01*
X10287Y5195D01*
X10539D01*
X10582Y5203D01*
X10597Y5213D01*
X10692D01*
X10754Y5171D01*
X10846Y5153D01*
X10939Y5171D01*
X11001Y5213D01*
X11008D01*
X11038Y5193D01*
X11069Y5187D01*
Y5072D01*
X11064Y5068D01*
X11040Y5032D01*
X11031Y4990D01*
Y4734D01*
X11040Y4692D01*
X11064Y4656D01*
Y4596D01*
X11040Y4560D01*
X11031Y4518D01*
Y4262D01*
X11040Y4220D01*
X11041Y4218D01*
X11048Y4139D01*
X11020Y4096D01*
X11010Y4045D01*
Y3967D01*
X11510D01*
Y4045D01*
X11500Y4096D01*
X11471Y4139D01*
X11479Y4218D01*
X11480Y4220D01*
X11488Y4262D01*
Y4518D01*
X11480Y4560D01*
X11456Y4596D01*
Y4656D01*
X11480Y4692D01*
X11488Y4734D01*
Y4990D01*
X11480Y5032D01*
X11456Y5068D01*
X11464Y5110D01*
X11534Y5157D01*
X11555Y5153D01*
X11647Y5171D01*
X11725Y5223D01*
X11778Y5302D01*
X11796Y5394D01*
X11778Y5486D01*
X11725Y5564D01*
X11647Y5616D01*
X11555Y5635D01*
X11463Y5616D01*
X11437Y5599D01*
X11421Y5602D01*
X11079D01*
X11038Y5594D01*
X11008Y5574D01*
X11001D01*
X10939Y5616D01*
X10846Y5635D01*
X10754Y5616D01*
X10717Y5591D01*
X10683Y5596D01*
X10638Y5610D01*
X10619Y5639D01*
X10582Y5663D01*
X10539Y5671D01*
X10326D01*
X10297Y5741D01*
X10400Y5844D01*
X10551D01*
X10593Y5853D01*
X10629Y5877D01*
X10653Y5912D01*
X10662Y5955D01*
Y6211D01*
X10653Y6253D01*
X10629Y6289D01*
X10593Y6313D01*
X10551Y6321D01*
X10315D01*
X10273Y6313D01*
X10237Y6289D01*
X10213Y6253D01*
X10205Y6211D01*
Y6020D01*
X10119Y5934D01*
X10078Y5947D01*
X10051Y5966D01*
Y6211D01*
X10043Y6253D01*
X10019Y6289D01*
X9983Y6313D01*
X9941Y6321D01*
X9705D01*
X9662Y6313D01*
X9627Y6289D01*
X9603Y6253D01*
X9594Y6211D01*
Y5955D01*
X9603Y5912D01*
X9627Y5877D01*
X9662Y5853D01*
X9692Y5847D01*
Y5670D01*
X9654Y5663D01*
X9617Y5639D01*
X9593Y5602D01*
X9589Y5584D01*
X9523Y5548D01*
X9488Y5562D01*
X9468Y5636D01*
X9474Y5644D01*
X9482Y5686D01*
Y5698D01*
X9213D01*
Y5748D01*
X9163D01*
Y5919D01*
X9111D01*
X9102Y5930D01*
X9080Y5989D01*
X9120Y6050D01*
X9138Y6142D01*
X9120Y6234D01*
X9068Y6312D01*
X8990Y6364D01*
X8898Y6383D01*
X8805Y6364D01*
X8727Y6312D01*
X8675Y6234D01*
X8659Y6155D01*
X8641Y6131D01*
X8594Y6098D01*
X8588Y6099D01*
X8569Y6128D01*
X8540Y6147D01*
X8507Y6153D01*
X8186D01*
X8153Y6147D01*
X8136Y6135D01*
X7482D01*
Y6171D01*
X7474Y6213D01*
X7450Y6249D01*
X7414Y6273D01*
X7372Y6282D01*
X7116D01*
X7074Y6273D01*
X7038Y6249D01*
X7014Y6213D01*
X7008Y6184D01*
X6574D01*
X6569Y6213D01*
X6545Y6249D01*
X6509Y6273D01*
X6467Y6282D01*
X6211D01*
X6168Y6273D01*
X6133Y6249D01*
X6109Y6213D01*
X6100Y6171D01*
Y5935D01*
X6109Y5893D01*
X6133Y5857D01*
X6168Y5833D01*
X6211Y5825D01*
X6436D01*
X6465Y5755D01*
X6381Y5671D01*
X6211D01*
X6168Y5663D01*
X6137Y5642D01*
X6116Y5656D01*
X6024Y5674D01*
X5931Y5656D01*
X5853Y5603D01*
X5801Y5525D01*
X5783Y5433D01*
X5801Y5341D01*
X5819Y5314D01*
X5777Y5251D01*
X5728Y5261D01*
X5636Y5242D01*
X5558Y5190D01*
X5532Y5151D01*
X5324D01*
X5273Y5141D01*
X5231Y5113D01*
X5153Y5034D01*
X3950D01*
X3832Y5153D01*
Y5372D01*
X3868D01*
X3910Y5380D01*
X3946Y5404D01*
X3970Y5440D01*
X3979Y5482D01*
Y6014D01*
X3970Y6056D01*
X3946Y6092D01*
X3910Y6116D01*
X3868Y6124D01*
X3533D01*
X3491Y6116D01*
X3455Y6092D01*
X3431Y6056D01*
X3423Y6014D01*
Y5482D01*
X3431Y5440D01*
X3455Y5404D01*
X3491Y5380D01*
X3533Y5372D01*
X3570D01*
Y5098D01*
X3580Y5048D01*
X3608Y5006D01*
X3693Y4920D01*
X3666Y4856D01*
X3184D01*
X3091Y4949D01*
Y5374D01*
X3123Y5380D01*
X3159Y5404D01*
X3183Y5440D01*
X3191Y5482D01*
Y6014D01*
X3183Y6056D01*
X3159Y6092D01*
X3123Y6116D01*
X3081Y6124D01*
X2746D01*
X2704Y6116D01*
X2668Y6092D01*
X2644Y6056D01*
X2636Y6014D01*
Y5482D01*
X2644Y5440D01*
X2668Y5404D01*
X2704Y5380D01*
X2746Y5372D01*
X2829D01*
Y4894D01*
X2839Y4844D01*
X2867Y4801D01*
X3037Y4632D01*
X3080Y4603D01*
X3130Y4593D01*
X5237D01*
X5263Y4554D01*
X5341Y4502D01*
X5433Y4484D01*
X5525Y4502D01*
X5603Y4554D01*
X5629Y4593D01*
X6525D01*
X6546Y4523D01*
X6542Y4521D01*
X6490Y4443D01*
X6472Y4350D01*
X6480Y4311D01*
X6469Y4291D01*
X6421Y4246D01*
X6369D01*
Y4046D01*
X6579D01*
Y4071D01*
X6588Y4084D01*
X6645Y4122D01*
X6647Y4123D01*
X6713Y4110D01*
X6805Y4128D01*
X6883Y4180D01*
X6935Y4258D01*
X6953Y4350D01*
X7010Y4414D01*
X7694D01*
Y4203D01*
X7662Y4146D01*
X7626Y4139D01*
X7530D01*
Y3976D01*
X7430D01*
Y4139D01*
X7303D01*
X7241Y4126D01*
X7188Y4091D01*
X7153Y4038D01*
X7147Y4005D01*
X7067Y4020D01*
X6975Y4002D01*
X6897Y3950D01*
X6844Y3872D01*
X6826Y3780D01*
X6844Y3687D01*
X6897Y3609D01*
X6930Y3587D01*
X6909Y3517D01*
X6555D01*
X6549Y3546D01*
X6525Y3582D01*
X6489Y3606D01*
X6447Y3614D01*
X6191D01*
X6149Y3606D01*
X6113Y3582D01*
X6089Y3546D01*
X6081Y3504D01*
Y3458D01*
X1669D01*
X1470Y3657D01*
Y4895D01*
X1489Y4908D01*
X1541Y4987D01*
X1560Y5079D01*
X1541Y5171D01*
X1489Y5249D01*
X1470Y5262D01*
Y5372D01*
X1506D01*
X1548Y5380D01*
X1584Y5404D01*
X1608Y5440D01*
X1616Y5482D01*
Y6014D01*
X1608Y6056D01*
X1584Y6092D01*
X1548Y6116D01*
X1506Y6124D01*
X1171D01*
X1129Y6116D01*
X1093Y6092D01*
X1069Y6056D01*
X1061Y6014D01*
Y5482D01*
X1069Y5440D01*
X1093Y5404D01*
X1129Y5380D01*
X1171Y5372D01*
X1207D01*
Y5288D01*
X1149Y5249D01*
X1096Y5171D01*
X1078Y5079D01*
X1096Y4987D01*
X1149Y4908D01*
X1207Y4869D01*
Y4110D01*
X1196Y4101D01*
X1137Y4079D01*
X1076Y4120D01*
X984Y4138D01*
X892Y4120D01*
X814Y4068D01*
X762Y3990D01*
X743Y3898D01*
X762Y3805D01*
X814Y3727D01*
X892Y3675D01*
X984Y3657D01*
X1076Y3675D01*
X1137Y3716D01*
X1196Y3694D01*
X1207Y3685D01*
Y3602D01*
X1217Y3552D01*
X1246Y3510D01*
X1490Y3266D01*
X1513Y3218D01*
X1489Y3171D01*
X1226Y2908D01*
X1225Y2907D01*
X1205Y2901D01*
X1138Y2898D01*
X1076Y2939D01*
X984Y2957D01*
X892Y2939D01*
X814Y2887D01*
X762Y2809D01*
X743Y2717D01*
X762Y2624D01*
X814Y2546D01*
X892Y2494D01*
X984Y2476D01*
X1076Y2494D01*
X1118Y2522D01*
X1188Y2484D01*
Y1768D01*
X1118Y1730D01*
X1076Y1758D01*
X984Y1776D01*
X892Y1758D01*
X814Y1706D01*
X762Y1628D01*
X743Y1535D01*
X762Y1443D01*
X787Y1405D01*
X782Y1376D01*
X719Y1321D01*
X656D01*
X650Y1322D01*
X643Y1321D01*
X384D01*
X342Y1313D01*
X306Y1289D01*
X282Y1253D01*
X273Y1211D01*
Y679D01*
X282Y637D01*
X306Y601D01*
X342Y577D01*
X384Y569D01*
X719D01*
X761Y577D01*
X793Y598D01*
X813Y585D01*
X906Y566D01*
X998Y585D01*
X1039Y612D01*
X1093Y601D01*
X1129Y577D01*
X1171Y569D01*
X1506D01*
X1548Y577D01*
X1584Y601D01*
X1608Y637D01*
X1616Y679D01*
Y1211D01*
X1608Y1253D01*
X1584Y1289D01*
X1548Y1313D01*
X1506Y1321D01*
X1450D01*
Y2761D01*
X1668Y2978D01*
X6512D01*
X6516Y2979D01*
X6748D01*
X6837Y2890D01*
X6802Y2825D01*
X6732Y2839D01*
X6640Y2821D01*
X6577Y2779D01*
X6319D01*
X6310Y2777D01*
X6230D01*
X6196Y2770D01*
X6166Y2751D01*
X6147Y2722D01*
X6140Y2687D01*
Y2607D01*
X6138Y2598D01*
X6140Y2590D01*
Y2510D01*
X6088Y2464D01*
X6016D01*
X5972Y2456D01*
X5935Y2431D01*
X5910Y2394D01*
X5902Y2350D01*
Y2255D01*
X6122D01*
Y2155D01*
X5902D01*
Y2059D01*
X5840Y2011D01*
X4724D01*
X4655Y1998D01*
X4597Y1958D01*
X4360Y1722D01*
X4321Y1664D01*
X4308Y1594D01*
Y1374D01*
X4238Y1337D01*
X4226Y1345D01*
X4134Y1363D01*
X4042Y1345D01*
X3977Y1301D01*
X3961Y1304D01*
X3919Y1333D01*
X3868Y1343D01*
X3751D01*
Y945D01*
Y547D01*
X3868D01*
X3919Y557D01*
X3961Y586D01*
X4022Y598D01*
X4042Y585D01*
X4134Y566D01*
X4226Y585D01*
X4247Y598D01*
X4279Y577D01*
X4321Y569D01*
X4656D01*
X4698Y577D01*
X4734Y601D01*
X4757Y637D01*
X4766Y679D01*
Y1211D01*
X4757Y1253D01*
X4734Y1289D01*
X4698Y1313D01*
X4669Y1318D01*
Y1520D01*
X4799Y1650D01*
X5102D01*
X5123Y1580D01*
X5105Y1568D01*
X5053Y1490D01*
X5035Y1398D01*
X5053Y1305D01*
X5053Y1304D01*
X5030Y1289D01*
X5006Y1253D01*
X4998Y1211D01*
Y679D01*
X5006Y637D01*
X5030Y601D01*
X5066Y577D01*
X5108Y569D01*
X5443D01*
X5485Y577D01*
X5521Y601D01*
X5545Y637D01*
X5553Y679D01*
Y814D01*
X6009D01*
X6081Y742D01*
Y571D01*
X6089Y529D01*
X6113Y493D01*
X6149Y469D01*
X6191Y460D01*
X6447D01*
X6489Y469D01*
X6521Y490D01*
X6529Y492D01*
X6604Y485D01*
X6609Y477D01*
X6652Y449D01*
X6703Y439D01*
X6781D01*
Y689D01*
X6831D01*
Y739D01*
X7091D01*
Y807D01*
X7081Y858D01*
X7064Y882D01*
X7078Y891D01*
X7210Y1023D01*
X7238Y1065D01*
X7248Y1116D01*
Y1483D01*
X7247Y1491D01*
Y1802D01*
X7301Y1846D01*
X7303Y1846D01*
X7430D01*
Y2008D01*
X7530D01*
Y1846D01*
X7626D01*
X7662Y1838D01*
X7694Y1782D01*
Y1476D01*
X7703Y1430D01*
Y1358D01*
X7664Y1332D01*
X7612Y1254D01*
X7594Y1161D01*
X7612Y1069D01*
X7654Y1007D01*
Y994D01*
X7584Y946D01*
X7569Y949D01*
X7501D01*
Y689D01*
Y429D01*
X7569D01*
X7619Y439D01*
X7662Y468D01*
X7691Y510D01*
X7701Y561D01*
Y695D01*
X7771Y724D01*
X7833Y662D01*
Y561D01*
X7841Y519D01*
X7865Y483D01*
X7901Y459D01*
X7943Y451D01*
X8044D01*
X8268Y227D01*
X8322Y190D01*
X8323Y185D01*
X8284Y120D01*
X120D01*
Y6540D01*
X511D01*
X546Y6470D01*
X529Y6448D01*
X500Y6376D01*
X490Y6299D01*
X500Y6222D01*
X511Y6194D01*
X465Y6124D01*
X384D01*
X342Y6116D01*
X306Y6092D01*
X282Y6056D01*
X273Y6014D01*
Y5482D01*
X282Y5440D01*
X306Y5404D01*
X342Y5380D01*
X384Y5372D01*
X719D01*
X761Y5380D01*
X797Y5404D01*
X820Y5440D01*
X829Y5482D01*
Y6007D01*
X864Y6012D01*
X936Y6041D01*
X998Y6089D01*
X1045Y6150D01*
X1075Y6222D01*
X1085Y6299D01*
X1075Y6376D01*
X1045Y6448D01*
X1029Y6470D01*
X1063Y6540D01*
X12822D01*
X12832Y6470D01*
D02*
G37*
G36*
X7024Y2702D02*
X7067Y2674D01*
X7105Y2666D01*
X7125Y2653D01*
X7163Y2598D01*
X7173Y2545D01*
X7203Y2500D01*
X7173Y2455D01*
X7163Y2402D01*
X7163Y2399D01*
X7154Y2326D01*
X7112Y2298D01*
X7023Y2208D01*
X6994Y2166D01*
X6984Y2115D01*
Y1549D01*
X6959Y1528D01*
X6703D01*
X6661Y1519D01*
X6625Y1495D01*
X6614Y1479D01*
X6603Y1476D01*
X6547D01*
X6536Y1479D01*
X6525Y1495D01*
X6489Y1519D01*
X6450Y1527D01*
Y1644D01*
X6471Y1659D01*
X6491Y1688D01*
X6498Y1722D01*
Y1861D01*
X6500Y1870D01*
X6499Y1875D01*
X6498Y1898D01*
Y1900D01*
X6549Y1945D01*
X6622D01*
X6666Y1954D01*
X6703Y1978D01*
X6727Y2015D01*
X6736Y2059D01*
Y2155D01*
X6516D01*
Y2255D01*
X6736D01*
Y2350D01*
X6742Y2360D01*
X6824Y2376D01*
X6903Y2428D01*
X6955Y2506D01*
X6973Y2598D01*
X6959Y2668D01*
X7024Y2703D01*
X7024Y2702D01*
D02*
G37*
G36*
X8765Y1347D02*
X8819Y1336D01*
X8873Y1347D01*
X8917Y1376D01*
X8962Y1347D01*
X9016Y1336D01*
X9070Y1347D01*
X9114Y1376D01*
X9159Y1347D01*
X9213Y1336D01*
X9278Y1278D01*
Y927D01*
X9124D01*
X9082Y919D01*
X9046Y895D01*
X9022Y859D01*
X9014Y817D01*
Y561D01*
X8992Y535D01*
X8903D01*
X8882Y561D01*
Y639D01*
X8632D01*
Y689D01*
X8582D01*
Y949D01*
X8514D01*
X8463Y939D01*
X8420Y910D01*
X8392Y867D01*
X8382Y817D01*
Y771D01*
X8312Y736D01*
X8290Y752D01*
Y817D01*
X8281Y859D01*
X8257Y895D01*
X8221Y919D01*
X8179Y927D01*
X8078D01*
X8015Y990D01*
Y1007D01*
X8022Y1016D01*
X8057Y1069D01*
X8111Y1034D01*
X8136Y1018D01*
X8228Y999D01*
X8321Y1018D01*
X8399Y1070D01*
X8451Y1148D01*
X8469Y1240D01*
X8451Y1332D01*
X8473Y1345D01*
X8479Y1347D01*
X8524Y1376D01*
X8568Y1347D01*
X8622Y1336D01*
X8676Y1347D01*
X8720Y1376D01*
X8765Y1347D01*
D02*
G37*
G36*
X14980Y120D02*
X14417D01*
X14396Y160D01*
X14389Y190D01*
X14431Y245D01*
X14461Y317D01*
X14471Y394D01*
X14461Y471D01*
X14431Y543D01*
X14389Y598D01*
X14389Y617D01*
X14412Y671D01*
X14483Y680D01*
X14569Y716D01*
X14644Y773D01*
X14701Y847D01*
X14737Y934D01*
X14742Y977D01*
X13289D01*
X13295Y934D01*
X13331Y847D01*
X13388Y773D01*
X13462Y716D01*
X13549Y680D01*
X13642Y668D01*
X13931D01*
X13952Y625D01*
X13958Y598D01*
X13915Y543D01*
X13886Y471D01*
X13875Y394D01*
X13886Y317D01*
X13915Y245D01*
X13957Y190D01*
X13950Y160D01*
X13929Y120D01*
X9580D01*
X9541Y185D01*
X9542Y190D01*
X9596Y227D01*
X9847Y478D01*
X9926Y471D01*
X9937Y459D01*
Y386D01*
X9946Y342D01*
X9971Y305D01*
X10008Y280D01*
X10051Y272D01*
X10147D01*
Y492D01*
X10247D01*
Y272D01*
X10343D01*
X10386Y280D01*
X10423Y305D01*
X10448Y342D01*
X10457Y386D01*
Y459D01*
X10502Y510D01*
X10504D01*
X10527Y509D01*
X10532Y508D01*
X10540Y510D01*
X10679D01*
X10714Y517D01*
X10743Y537D01*
X10763Y566D01*
X10769Y600D01*
Y739D01*
X10771Y748D01*
Y888D01*
X10813Y951D01*
X10820Y984D01*
X10894Y999D01*
X10896Y995D01*
X10932Y971D01*
X10956Y966D01*
X10975Y908D01*
X10975Y895D01*
X10951Y859D01*
X10943Y817D01*
Y561D01*
X10951Y519D01*
X10975Y483D01*
X11011Y459D01*
X11053Y451D01*
X11289D01*
X11332Y459D01*
X11367Y483D01*
X11391Y519D01*
X11400Y561D01*
Y817D01*
X11391Y859D01*
X11369Y892D01*
X11372Y908D01*
X11392Y962D01*
X11467D01*
X11509Y971D01*
X11545Y995D01*
X11569Y1031D01*
X11577Y1073D01*
Y1407D01*
X11569Y1450D01*
X11545Y1486D01*
X11509Y1509D01*
X11467Y1518D01*
X11460Y1526D01*
X11461Y1535D01*
X11443Y1628D01*
X11434Y1640D01*
X11467Y1710D01*
X11509Y1719D01*
X11545Y1743D01*
X11569Y1779D01*
X11577Y1821D01*
Y2156D01*
X11569Y2198D01*
X11545Y2234D01*
X11509Y2257D01*
X11467Y2266D01*
X11129D01*
X11102Y2336D01*
X11107Y2341D01*
X11446D01*
X11480Y2348D01*
X11509Y2367D01*
X11528Y2396D01*
X11535Y2430D01*
Y2516D01*
X11570Y2536D01*
X11576Y2536D01*
X11605Y2526D01*
X11614Y2518D01*
Y2430D01*
X11621Y2396D01*
X11641Y2367D01*
X11670Y2348D01*
X11704Y2341D01*
X12010D01*
X12097Y2254D01*
X12133Y2230D01*
X12176Y2221D01*
X12498D01*
Y2002D01*
X13486D01*
Y2224D01*
X13516Y2230D01*
X13552Y2254D01*
X13658Y2360D01*
X13680Y2362D01*
X13736Y2348D01*
X13758Y2295D01*
X13805Y2234D01*
X13867Y2186D01*
X13939Y2157D01*
X14016Y2146D01*
X14093Y2157D01*
X14165Y2186D01*
X14226Y2234D01*
X14274Y2295D01*
X14303Y2367D01*
X14314Y2444D01*
X14303Y2521D01*
X14274Y2593D01*
X14226Y2655D01*
X14165Y2702D01*
X14093Y2732D01*
X14016Y2742D01*
X13939Y2732D01*
X13867Y2702D01*
X13805Y2655D01*
X13764Y2601D01*
X13738Y2601D01*
X13694Y2620D01*
Y3307D01*
X13685Y3350D01*
X13661Y3385D01*
X13465Y3582D01*
Y4039D01*
X12565D01*
X12543Y4072D01*
Y4157D01*
X12776Y4391D01*
X13350D01*
X13395Y4400D01*
X13433Y4425D01*
X13458Y4463D01*
X13467Y4507D01*
Y4909D01*
X13458Y4953D01*
X13433Y4991D01*
X13395Y5016D01*
X13350Y5025D01*
X13173D01*
Y5394D01*
Y6024D01*
X13188Y6034D01*
X13212Y6070D01*
X13221Y6112D01*
Y6368D01*
X13212Y6410D01*
X13188Y6446D01*
X13152Y6470D01*
X13162Y6540D01*
X13382D01*
X13403Y6470D01*
X13391Y6461D01*
X13362Y6419D01*
X13352Y6368D01*
Y6290D01*
X13853D01*
Y6368D01*
X13842Y6419D01*
X13814Y6461D01*
X13802Y6470D01*
X13823Y6540D01*
X14980D01*
Y120D01*
D02*
G37*
G36*
X6188Y1644D02*
Y1527D01*
X6149Y1519D01*
X6113Y1495D01*
X6089Y1460D01*
X6081Y1417D01*
Y1181D01*
X6089Y1139D01*
X6081Y1120D01*
X6047Y1076D01*
X5553D01*
Y1211D01*
X5545Y1253D01*
X5521Y1289D01*
X5498Y1304D01*
X5498Y1305D01*
X5516Y1398D01*
X5498Y1490D01*
X5446Y1568D01*
X5428Y1580D01*
X5449Y1650D01*
X6179D01*
X6188Y1644D01*
D02*
G37*
%LPC*%
G36*
X14390Y1386D02*
X14066D01*
Y1077D01*
X14742D01*
X14737Y1120D01*
X14701Y1206D01*
X14644Y1281D01*
X14569Y1338D01*
X14483Y1374D01*
X14390Y1386D01*
D02*
G37*
G36*
X3651Y1343D02*
X3533D01*
X3483Y1333D01*
X3440Y1304D01*
X3411Y1261D01*
X3401Y1211D01*
Y995D01*
X3651D01*
Y1343D01*
D02*
G37*
G36*
X13966Y1386D02*
X13642D01*
X13549Y1374D01*
X13462Y1338D01*
X13388Y1281D01*
X13331Y1206D01*
X13295Y1120D01*
X13289Y1077D01*
X13966D01*
Y1386D01*
D02*
G37*
G36*
X12037Y1914D02*
X11841D01*
X11790Y1904D01*
X11747Y1875D01*
X11719Y1832D01*
X11708Y1781D01*
Y1664D01*
X12037D01*
Y1914D01*
D02*
G37*
G36*
X14311Y3704D02*
X14208Y3691D01*
X14112Y3651D01*
X14030Y3588D01*
X13967Y3506D01*
X13927Y3410D01*
X13914Y3307D01*
X13927Y3204D01*
X13967Y3109D01*
X14030Y3026D01*
X14112Y2963D01*
X14208Y2924D01*
X14311Y2910D01*
X14414Y2924D01*
X14510Y2963D01*
X14592Y3026D01*
X14655Y3109D01*
X14695Y3204D01*
X14708Y3307D01*
X14695Y3410D01*
X14655Y3506D01*
X14592Y3588D01*
X14510Y3651D01*
X14414Y3691D01*
X14311Y3704D01*
D02*
G37*
G36*
X13486Y1902D02*
X13042D01*
Y1616D01*
X13486D01*
Y1902D01*
D02*
G37*
G36*
X12037Y1564D02*
X11708D01*
Y1447D01*
X11719Y1396D01*
X11747Y1353D01*
X11790Y1325D01*
X11841Y1315D01*
X12037D01*
Y1564D01*
D02*
G37*
G36*
X12333Y1914D02*
X12137D01*
Y1614D01*
Y1315D01*
X12333D01*
X12383Y1325D01*
X12426Y1353D01*
X12455Y1396D01*
X12465Y1447D01*
Y1560D01*
X12498Y1616D01*
X12535Y1616D01*
X12942D01*
Y1902D01*
X12498D01*
Y1893D01*
X12428Y1871D01*
X12426Y1875D01*
X12383Y1904D01*
X12333Y1914D01*
D02*
G37*
G36*
X7091Y639D02*
X6881D01*
Y439D01*
X6959D01*
X7009Y449D01*
X7052Y477D01*
X7081Y520D01*
X7091Y571D01*
Y639D01*
D02*
G37*
G36*
X3651Y895D02*
X3401D01*
Y679D01*
X3411Y629D01*
X3440Y586D01*
X3483Y557D01*
X3533Y547D01*
X3651D01*
Y895D01*
D02*
G37*
G36*
X13252Y639D02*
X13052D01*
Y429D01*
X13120D01*
X13171Y439D01*
X13213Y468D01*
X13242Y510D01*
X13252Y561D01*
Y639D01*
D02*
G37*
G36*
X7401D02*
X7201D01*
Y561D01*
X7211Y510D01*
X7239Y468D01*
X7282Y439D01*
X7333Y429D01*
X7401D01*
Y639D01*
D02*
G37*
G36*
X12952D02*
X12752D01*
Y561D01*
X12762Y510D01*
X12790Y468D01*
X12833Y439D01*
X12884Y429D01*
X12952D01*
Y639D01*
D02*
G37*
G36*
X2657Y2839D02*
X2565Y2821D01*
X2487Y2769D01*
X2461Y2730D01*
X2283D01*
X2233Y2720D01*
X2191Y2691D01*
X2033Y2534D01*
X2005Y2491D01*
X1995Y2441D01*
Y1321D01*
X1959D01*
X1916Y1313D01*
X1881Y1289D01*
X1857Y1253D01*
X1848Y1211D01*
Y679D01*
X1857Y637D01*
X1881Y601D01*
X1916Y577D01*
X1959Y569D01*
X2293D01*
X2336Y577D01*
X2371Y601D01*
X2395Y637D01*
X2404Y679D01*
Y1211D01*
X2395Y1253D01*
X2371Y1289D01*
X2336Y1313D01*
X2293Y1321D01*
X2257D01*
Y2387D01*
X2338Y2467D01*
X2461D01*
X2487Y2428D01*
X2565Y2376D01*
X2625Y2364D01*
X2675Y2295D01*
X2673Y2283D01*
X2691Y2191D01*
X2743Y2113D01*
X2782Y2087D01*
Y1321D01*
X2746D01*
X2704Y1313D01*
X2668Y1289D01*
X2644Y1253D01*
X2636Y1211D01*
Y679D01*
X2644Y637D01*
X2668Y601D01*
X2704Y577D01*
X2746Y569D01*
X3081D01*
X3123Y577D01*
X3159Y601D01*
X3183Y637D01*
X3191Y679D01*
Y1211D01*
X3183Y1253D01*
X3159Y1289D01*
X3123Y1313D01*
X3081Y1321D01*
X3045D01*
Y2087D01*
X3084Y2113D01*
X3136Y2191D01*
X3154Y2283D01*
X3136Y2376D01*
X3084Y2454D01*
X3006Y2506D01*
X2945Y2518D01*
X2896Y2587D01*
X2898Y2598D01*
X2880Y2691D01*
X2828Y2769D01*
X2750Y2821D01*
X2657Y2839D01*
D02*
G37*
G36*
X13120Y949D02*
X13052D01*
Y739D01*
X13252D01*
Y817D01*
X13242Y867D01*
X13213Y910D01*
X13171Y939D01*
X13120Y949D01*
D02*
G37*
G36*
X12087Y950D02*
X11994Y931D01*
X11959Y907D01*
X11942Y919D01*
X11900Y927D01*
X11663D01*
X11621Y919D01*
X11585Y895D01*
X11561Y859D01*
X11553Y817D01*
Y561D01*
X11561Y519D01*
X11585Y483D01*
X11621Y459D01*
X11663Y451D01*
X11900D01*
X11942Y459D01*
X11978Y483D01*
X11994Y486D01*
X11994Y486D01*
X12087Y468D01*
X12179Y486D01*
X12179Y486D01*
X12196Y483D01*
X12231Y459D01*
X12274Y451D01*
X12510D01*
X12552Y459D01*
X12588Y483D01*
X12612Y519D01*
X12620Y561D01*
Y817D01*
X12612Y859D01*
X12588Y895D01*
X12552Y919D01*
X12510Y927D01*
X12274D01*
X12231Y919D01*
X12214Y907D01*
X12179Y931D01*
X12087Y950D01*
D02*
G37*
G36*
X12952Y949D02*
X12884D01*
X12833Y939D01*
X12790Y910D01*
X12762Y867D01*
X12752Y817D01*
Y739D01*
X12952D01*
Y949D01*
D02*
G37*
G36*
X7401D02*
X7333D01*
X7282Y939D01*
X7239Y910D01*
X7211Y867D01*
X7201Y817D01*
Y739D01*
X7401D01*
Y949D01*
D02*
G37*
G36*
X8750D02*
X8682D01*
Y739D01*
X8882D01*
Y817D01*
X8872Y867D01*
X8843Y910D01*
X8801Y939D01*
X8750Y949D01*
D02*
G37*
G36*
X2293Y6124D02*
X1959D01*
X1916Y6116D01*
X1881Y6092D01*
X1857Y6056D01*
X1848Y6014D01*
Y5482D01*
X1857Y5440D01*
X1881Y5404D01*
X1916Y5380D01*
X1959Y5372D01*
X2293D01*
X2336Y5380D01*
X2371Y5404D01*
X2395Y5440D01*
X2404Y5482D01*
Y6014D01*
X2395Y6056D01*
X2371Y6092D01*
X2336Y6116D01*
X2293Y6124D01*
D02*
G37*
G36*
X4656D02*
X4321D01*
X4279Y6116D01*
X4243Y6092D01*
X4219Y6056D01*
X4210Y6014D01*
Y5482D01*
X4219Y5440D01*
X4243Y5404D01*
X4279Y5380D01*
X4321Y5372D01*
X4656D01*
X4698Y5380D01*
X4734Y5404D01*
X4757Y5440D01*
X4766Y5482D01*
Y6014D01*
X4757Y6056D01*
X4734Y6092D01*
X4698Y6116D01*
X4656Y6124D01*
D02*
G37*
G36*
X5575Y5698D02*
X5326D01*
Y5350D01*
X5443D01*
X5493Y5360D01*
X5536Y5389D01*
X5565Y5432D01*
X5575Y5482D01*
Y5698D01*
D02*
G37*
G36*
X14742Y5583D02*
X14066D01*
Y5274D01*
X14390D01*
X14483Y5286D01*
X14569Y5322D01*
X14644Y5379D01*
X14701Y5454D01*
X14737Y5540D01*
X14742Y5583D01*
D02*
G37*
G36*
X5226Y5698D02*
X4976D01*
Y5482D01*
X4986Y5432D01*
X5015Y5389D01*
X5058Y5360D01*
X5108Y5350D01*
X5226D01*
Y5698D01*
D02*
G37*
G36*
X13853Y6190D02*
X13352D01*
Y6112D01*
X13362Y6062D01*
X13391Y6019D01*
X13420Y6000D01*
X13431Y5944D01*
X13430Y5919D01*
X13388Y5887D01*
X13331Y5813D01*
X13295Y5726D01*
X13289Y5683D01*
X13966D01*
Y5992D01*
X13880D01*
X13842Y6062D01*
X13853Y6112D01*
Y6190D01*
D02*
G37*
G36*
X5443Y6146D02*
X5326D01*
Y5798D01*
X5575D01*
Y6014D01*
X5565Y6064D01*
X5536Y6107D01*
X5493Y6136D01*
X5443Y6146D01*
D02*
G37*
G36*
X11421Y6350D02*
X11079D01*
X11038Y6342D01*
X11004Y6319D01*
X10980Y6285D01*
X10972Y6244D01*
Y6039D01*
X10980Y5999D01*
X11004Y5964D01*
X11038Y5941D01*
X11079Y5933D01*
X11421D01*
X11462Y5941D01*
X11496Y5964D01*
X11520Y5999D01*
X11528Y6039D01*
Y6244D01*
X11520Y6285D01*
X11496Y6319D01*
X11462Y6342D01*
X11421Y6350D01*
D02*
G37*
G36*
X5226Y6146D02*
X5108D01*
X5058Y6136D01*
X5015Y6107D01*
X4986Y6064D01*
X4976Y6014D01*
Y5798D01*
X5226D01*
Y6146D01*
D02*
G37*
G36*
X14390Y5992D02*
X14066D01*
Y5683D01*
X14742D01*
X14737Y5726D01*
X14701Y5813D01*
X14644Y5887D01*
X14569Y5944D01*
X14483Y5980D01*
X14390Y5992D01*
D02*
G37*
G36*
X9373Y5919D02*
X9263D01*
Y5798D01*
X9482D01*
Y5810D01*
X9474Y5852D01*
X9450Y5887D01*
X9415Y5911D01*
X9373Y5919D01*
D02*
G37*
G36*
X6579Y3946D02*
X6369D01*
Y3746D01*
X6447D01*
X6497Y3756D01*
X6540Y3785D01*
X6569Y3827D01*
X6579Y3878D01*
Y3946D01*
D02*
G37*
G36*
X14016Y4514D02*
X13939Y4503D01*
X13867Y4474D01*
X13805Y4426D01*
X13758Y4365D01*
X13728Y4293D01*
X13718Y4216D01*
X13728Y4139D01*
X13758Y4067D01*
X13805Y4005D01*
X13867Y3958D01*
X13939Y3928D01*
X14016Y3918D01*
X14093Y3928D01*
X14165Y3958D01*
X14226Y4005D01*
X14274Y4067D01*
X14303Y4139D01*
X14314Y4216D01*
X14303Y4293D01*
X14274Y4365D01*
X14226Y4426D01*
X14165Y4474D01*
X14093Y4503D01*
X14016Y4514D01*
D02*
G37*
G36*
X6269Y3946D02*
X6059D01*
Y3878D01*
X6069Y3827D01*
X6098Y3785D01*
X6140Y3756D01*
X6191Y3746D01*
X6269D01*
Y3946D01*
D02*
G37*
G36*
X11820Y3395D02*
X11620D01*
Y3317D01*
X11630Y3266D01*
X11659Y3224D01*
X11701Y3195D01*
X11752Y3185D01*
X11820D01*
Y3395D01*
D02*
G37*
G36*
X12120D02*
X11920D01*
Y3185D01*
X11988D01*
X12039Y3195D01*
X12082Y3224D01*
X12110Y3266D01*
X12120Y3317D01*
Y3395D01*
D02*
G37*
G36*
X6269Y4246D02*
X6191D01*
X6140Y4236D01*
X6098Y4208D01*
X6069Y4165D01*
X6059Y4114D01*
Y4046D01*
X6269D01*
Y4246D01*
D02*
G37*
G36*
X11988Y5122D02*
X11920D01*
Y4912D01*
X12120D01*
Y4990D01*
X12110Y5041D01*
X12082Y5084D01*
X12039Y5112D01*
X11988Y5122D01*
D02*
G37*
G36*
X13966Y5583D02*
X13289D01*
X13295Y5540D01*
X13331Y5454D01*
X13388Y5379D01*
X13462Y5322D01*
X13549Y5286D01*
X13642Y5274D01*
X13966D01*
Y5583D01*
D02*
G37*
G36*
X11820Y5122D02*
X11752D01*
X11701Y5112D01*
X11659Y5084D01*
X11630Y5041D01*
X11620Y4990D01*
Y4912D01*
X11820D01*
Y5122D01*
D02*
G37*
G36*
X2205Y4925D02*
X2102Y4911D01*
X2006Y4871D01*
X1924Y4808D01*
X1861Y4726D01*
X1821Y4630D01*
X1808Y4528D01*
X1821Y4425D01*
X1861Y4329D01*
X1924Y4247D01*
X2006Y4184D01*
X2102Y4144D01*
X2205Y4130D01*
X2307Y4144D01*
X2403Y4184D01*
X2486Y4247D01*
X2549Y4329D01*
X2588Y4425D01*
X2602Y4528D01*
X2588Y4630D01*
X2549Y4726D01*
X2486Y4808D01*
X2403Y4871D01*
X2307Y4911D01*
X2205Y4925D01*
D02*
G37*
G36*
X12120Y4812D02*
X11620D01*
Y4734D01*
X11630Y4684D01*
X11659Y4641D01*
Y4611D01*
X11630Y4568D01*
X11620Y4518D01*
Y4440D01*
X12120D01*
Y4518D01*
X12110Y4568D01*
X12082Y4611D01*
Y4641D01*
X12110Y4684D01*
X12120Y4734D01*
Y4812D01*
D02*
G37*
%LPD*%
D10*
X10163Y2431D02*
G03*
X10157Y2402I73J-29D01*
G01*
X10163Y2431D02*
G03*
X10192Y2402I29J0D01*
G01*
X12176Y2332D02*
X13474D01*
X12028Y2480D02*
X12176Y2332D01*
X11890Y2480D02*
X12028D01*
X10157Y2598D02*
X10886D01*
X13583Y2441D02*
Y3307D01*
X13474Y2332D02*
X13583Y2441D01*
X12992Y3724D02*
X13166D01*
X13583Y3307D01*
X12930Y2874D02*
X12992Y2936D01*
X11890Y2874D02*
X12930D01*
X11024D02*
X11260D01*
X10945Y2402D02*
X11024Y2480D01*
X11260D01*
X10886Y2598D02*
X10956Y2669D01*
Y2807D01*
X11024Y2874D01*
X10192Y2402D02*
X10945D01*
D11*
X2303Y4528D02*
G03*
X2303Y4528I-98J0D01*
G01*
X14409Y3307D02*
G03*
X14409Y3307I-98J0D01*
G01*
X12087Y709D02*
X12392D01*
X12067D02*
X12087Y728D01*
X11782Y709D02*
X12067D01*
X10453Y5394D02*
X11250D01*
X6319Y2598D02*
X6732D01*
X10532Y689D02*
X10591Y748D01*
X11181Y1988D02*
X11220D01*
X10591Y1398D02*
X11181Y1988D01*
X10591Y1378D02*
Y1398D01*
X4488Y945D02*
X4488Y945D01*
X10591Y748D02*
Y1043D01*
Y1378D01*
X12362Y3917D02*
Y4232D01*
X12838Y4708D01*
X10413Y5433D02*
X10453Y5394D01*
X4488Y945D02*
Y1594D01*
X7835Y915D02*
Y1161D01*
Y915D02*
X8061Y689D01*
X12067Y709D02*
X12087D01*
X11260Y4390D02*
Y4862D01*
X11250Y4872D02*
X11260Y4862D01*
X12838Y4708D02*
X12992D01*
X12333Y6240D02*
X12992D01*
X12234Y6142D02*
X12333Y6240D01*
X12992Y5394D02*
Y6240D01*
Y4708D02*
Y5394D01*
X12992Y5394D02*
X12992Y5394D01*
X12234Y5394D02*
X12992D01*
X8061Y689D02*
X8396Y354D01*
X9469D01*
X9803Y689D01*
X11250Y4872D02*
Y5394D01*
X4488Y1594D02*
X4724Y1831D01*
X6280D01*
X11250Y5394D02*
X11250Y5394D01*
X906Y807D02*
Y1122D01*
X689Y807D02*
X906D01*
X551Y945D02*
X689Y807D01*
X669Y1122D02*
X906D01*
X650Y1142D02*
X669Y1122D01*
X4134Y807D02*
Y1122D01*
Y807D02*
X4350D01*
X4488Y945D01*
X4134Y1122D02*
X4331D01*
X4350Y1142D01*
X11250Y5394D02*
X11555D01*
X10197Y689D02*
X10197Y689D01*
X10197Y689D02*
Y1713D01*
X6280Y1831D02*
X6319Y1870D01*
D12*
X11220Y1240D02*
D03*
X12087Y1614D02*
D03*
X11220Y1988D02*
D03*
D13*
X6319Y2205D02*
D03*
X6122D02*
D03*
X6516D02*
D03*
D14*
X6319Y2598D02*
D03*
X9803Y689D02*
D03*
D15*
X6319Y1811D02*
D03*
X10591Y689D02*
D03*
D16*
X6319Y2520D02*
D03*
Y1890D02*
D03*
D17*
X10197Y689D02*
D03*
Y886D02*
D03*
Y492D02*
D03*
D18*
X10512Y689D02*
D03*
X9882D02*
D03*
D19*
X8346Y6004D02*
D03*
Y5492D02*
D03*
X9213Y5748D02*
D03*
D20*
X11250Y5394D02*
D03*
Y6142D02*
D03*
X12215D02*
D03*
Y5768D02*
D03*
Y5394D02*
D03*
D21*
X8819Y2992D02*
D03*
D22*
X9803Y1654D02*
D03*
X9606D02*
D03*
X9409D02*
D03*
X9213D02*
D03*
X9016Y1654D02*
D03*
X8819D02*
D03*
X8622Y1654D02*
D03*
X8425D02*
D03*
X8228D02*
D03*
X8031Y1654D02*
D03*
X7835D02*
D03*
Y4331D02*
D03*
X8031D02*
D03*
X8228Y4331D02*
D03*
X8425D02*
D03*
X8622D02*
D03*
X8819Y4331D02*
D03*
X9016D02*
D03*
X9213Y4331D02*
D03*
X9409D02*
D03*
X9606D02*
D03*
X9803D02*
D03*
D23*
X7480Y2008D02*
D03*
Y2205D02*
D03*
X7480Y2402D02*
D03*
Y2598D02*
D03*
X7480Y2795D02*
D03*
Y2992D02*
D03*
Y3189D02*
D03*
X7480Y3386D02*
D03*
Y3583D02*
D03*
X7480Y3780D02*
D03*
Y3976D02*
D03*
X10157Y3976D02*
D03*
Y3780D02*
D03*
Y3583D02*
D03*
Y3386D02*
D03*
Y3189D02*
D03*
Y2992D02*
D03*
Y2795D02*
D03*
Y2598D02*
D03*
Y2402D02*
D03*
Y2205D02*
D03*
Y2008D02*
D03*
D24*
X11890Y2480D02*
D03*
X11890Y2874D02*
D03*
X11260D02*
D03*
Y2480D02*
D03*
Y2677D02*
D03*
X11890D02*
D03*
D25*
X6319Y689D02*
D03*
Y1299D02*
D03*
Y3386D02*
D03*
Y3996D02*
D03*
X6339Y6053D02*
D03*
Y5443D02*
D03*
X7244Y6053D02*
D03*
Y5443D02*
D03*
X6831Y1299D02*
D03*
Y689D02*
D03*
D26*
X11782D02*
D03*
X11171D02*
D03*
X9823Y6083D02*
D03*
X10433D02*
D03*
X11260Y4862D02*
D03*
X11870D02*
D03*
X11260Y4390D02*
D03*
X11870D02*
D03*
Y3917D02*
D03*
X11260D02*
D03*
X12992Y6240D02*
D03*
X13602D02*
D03*
X12392Y689D02*
D03*
X13002D02*
D03*
X11260Y3445D02*
D03*
X11870D02*
D03*
X9242Y689D02*
D03*
X8632D02*
D03*
X8061D02*
D03*
X7451D02*
D03*
D27*
X9823Y5433D02*
D03*
D28*
X10413D02*
D03*
D29*
X12992Y4708D02*
D03*
D30*
Y3724D02*
D03*
Y2936D02*
D03*
Y1952D02*
D03*
D31*
X551Y5748D02*
D03*
X1339D02*
D03*
X2126D02*
D03*
X2913D02*
D03*
X3701D02*
D03*
X4488D02*
D03*
X5276D02*
D03*
Y945D02*
D03*
X4488D02*
D03*
X3701D02*
D03*
X2913D02*
D03*
X2126D02*
D03*
X1339D02*
D03*
X551D02*
D03*
D32*
X11574Y2462D02*
X11575Y2461D01*
X11574Y2462D02*
Y2659D01*
X11555Y2677D02*
X11574Y2659D01*
X11575Y2697D02*
Y3012D01*
X11555Y2677D02*
X11575Y2697D01*
X11260Y2677D02*
X11555D01*
X8031Y1654D02*
Y2205D01*
X8819Y2992D01*
X9606Y1654D02*
Y2205D01*
X9016Y2795D02*
X10157D01*
X9016D02*
X9606Y2205D01*
X9213Y3386D02*
Y4331D01*
X7480Y3976D02*
Y3976D01*
X7835Y3976D02*
X8819Y2992D01*
X7480Y3976D02*
X7835D01*
X8819Y2992D02*
X9213Y3386D01*
X8819Y2992D02*
X9016Y2795D01*
X7480Y2008D02*
Y2009D01*
X7835D02*
X8031Y2205D01*
X7480Y2009D02*
X7835D01*
D33*
X11171Y1191D02*
X11220Y1240D01*
X11171Y689D02*
Y1191D01*
X2913Y945D02*
Y2283D01*
X3701Y5098D02*
Y5748D01*
X8228Y1240D02*
Y1654D01*
X7067Y3780D02*
X7067Y3780D01*
X7480D01*
X9409Y4331D02*
Y4646D01*
X12283Y2677D02*
X12362Y2598D01*
X11890Y2677D02*
X12283D01*
X11870Y3917D02*
X12362D01*
X10512Y3189D02*
X10689Y3366D01*
X10522Y3899D02*
Y4143D01*
X10403Y3780D02*
X10522Y3899D01*
X10157Y3780D02*
X10403D01*
X6319Y1870D02*
Y1890D01*
Y1811D02*
Y1870D01*
X5276Y945D02*
X6063D01*
X6319Y689D01*
X6614Y984D01*
X6986D01*
X7117Y1116D01*
X7205Y2205D02*
X7480D01*
X7115Y2115D02*
X7205Y2205D01*
X7115Y1484D02*
Y2115D01*
Y1484D02*
X7117Y1483D01*
Y1116D02*
Y1483D01*
X6831Y1299D02*
X6870D01*
X6319D02*
X6831D01*
X7835Y1161D02*
Y1654D01*
X2913Y945D02*
X2933Y965D01*
X10412Y2196D02*
X10541Y2067D01*
X6319Y3386D02*
X7480D01*
X8228Y1654D02*
X8237Y1644D01*
X10118Y4910D02*
Y5748D01*
X9803Y4595D02*
X10118Y4910D01*
X6319Y1299D02*
Y1811D01*
X7117Y2795D02*
X7480D01*
X2126Y945D02*
X2146D01*
X1319Y965D02*
X1339Y945D01*
X9803Y4331D02*
Y4595D01*
X10118Y5748D02*
X10433Y6063D01*
Y6083D01*
X9823D02*
X9823Y6083D01*
Y5433D02*
Y6083D01*
X10167Y2196D02*
X10412D01*
X10157Y3189D02*
X10512D01*
X10157Y2992D02*
X10827D01*
X9803Y1654D02*
X9803Y1654D01*
X9409Y856D02*
Y1654D01*
X9242Y689D02*
X9409Y856D01*
X11260Y3425D02*
Y3445D01*
X10827Y2992D02*
X11260Y3425D01*
X10541Y2067D02*
X10689D01*
X10157Y2205D02*
X10167Y2196D01*
X6339Y5443D02*
X6644Y5748D01*
X6339Y6053D02*
X7244D01*
X7293Y6004D02*
X8346D01*
X7244Y6053D02*
X7293Y6004D01*
X6909Y5433D02*
X7234D01*
X7244Y5443D01*
X6024Y5433D02*
X6329D01*
X6339Y5443D01*
X9606Y4331D02*
Y4941D01*
X9606Y4941D01*
X9114D02*
X9409Y4646D01*
X9114Y4941D02*
Y5354D01*
X5276Y945D02*
X5335Y1004D01*
X2126Y945D02*
Y2441D01*
X2283Y2598D01*
X2657D01*
X5276Y945D02*
Y1063D01*
Y1398D01*
X5256Y1083D02*
X5276Y1063D01*
X6713Y4350D02*
X6908Y4546D01*
X3701Y5098D02*
X3896Y4903D01*
X5965Y5020D02*
X6081Y4903D01*
X5728Y5020D02*
X5965D01*
X3896Y4903D02*
X5207D01*
X5324Y5020D01*
X5728D01*
X3130Y4724D02*
X5433D01*
X2960Y4894D02*
X3130Y4724D01*
X2913Y5748D02*
X2960Y5701D01*
Y4894D02*
Y5701D01*
X7244Y5443D02*
X7605Y5082D01*
X7530Y5409D02*
Y5627D01*
Y5409D02*
X7679Y5261D01*
X6644Y5748D02*
X7409D01*
X7530Y5627D01*
X6908Y4546D02*
X7817D01*
X7835Y4528D01*
Y4331D02*
Y4528D01*
X8031Y4331D02*
Y4596D01*
X5433Y4724D02*
X7903D01*
X8031Y4596D01*
X8228Y4331D02*
Y4652D01*
X6081Y4903D02*
X7977D01*
X8228Y4652D01*
X8425Y4331D02*
Y4708D01*
X7605Y5082D02*
X8051D01*
X8425Y4708D01*
X8622Y4331D02*
Y4764D01*
X7679Y5261D02*
X8125D01*
X8622Y4764D01*
X8346Y5492D02*
X8642D01*
X8819Y5315D01*
Y4331D02*
Y5315D01*
X10295Y4370D02*
X10522Y4143D01*
X10709Y3832D02*
Y4370D01*
X10157Y3583D02*
X10459D01*
X10709Y3832D01*
X10197Y4724D02*
X10492D01*
X8346Y6004D02*
X8465D01*
X9114Y5354D01*
X10000Y3976D02*
X10157D01*
X10000Y4528D02*
X10197Y4724D01*
X9803Y768D02*
Y1654D01*
X1319Y965D02*
Y2815D01*
X6802Y3110D02*
X7117Y2795D01*
X6512Y3109D02*
X6513Y3110D01*
X6802D01*
X1319Y2815D02*
X1613Y3109D01*
X6512D01*
X1339Y3602D02*
X1614Y3327D01*
X6260D01*
X6319Y3386D01*
X9803Y768D02*
X9882Y689D01*
X5276Y1063D02*
X5335Y1004D01*
X10000Y3976D02*
Y4528D01*
X1339Y3602D02*
Y5748D01*
D34*
X2283Y7362D02*
D03*
X2598D02*
D03*
X2913D02*
D03*
X3228D02*
D03*
X3543D02*
D03*
Y6732D02*
D03*
X3228D02*
D03*
X2913D02*
D03*
X2598D02*
D03*
X2283D02*
D03*
X11575D02*
D03*
X11890D02*
D03*
X12205D02*
D03*
X12520D02*
D03*
X12835D02*
D03*
Y7362D02*
D03*
X12520D02*
D03*
X12205D02*
D03*
X11890D02*
D03*
X11575D02*
D03*
D35*
X787Y6299D02*
D03*
X14173Y394D02*
D03*
D36*
X6319Y2205D02*
D03*
X10197Y1713D02*
D03*
X10197Y689D02*
D03*
X13661Y2047D02*
D03*
X11220Y1535D02*
D03*
X984D02*
D03*
Y3898D02*
D03*
Y2717D02*
D03*
X2657Y2598D02*
D03*
X12323Y4685D02*
D03*
X8898Y6142D02*
D03*
X9409Y5315D02*
D03*
X12362Y3917D02*
D03*
X10689Y3366D02*
D03*
X7835Y1161D02*
D03*
X2913Y2283D02*
D03*
X6732Y2598D02*
D03*
X10591Y1378D02*
D03*
X10295Y4370D02*
D03*
X7067Y3780D02*
D03*
X7717Y6378D02*
D03*
X8228Y1240D02*
D03*
X12087Y709D02*
D03*
X10591Y1043D02*
D03*
X11850Y5768D02*
D03*
X10689Y2067D02*
D03*
X11732Y2185D02*
D03*
X11594Y3150D02*
D03*
X12362Y2598D02*
D03*
X9606Y4941D02*
D03*
X14823Y4803D02*
D03*
Y2047D02*
D03*
X5689Y4350D02*
D03*
X4646Y6378D02*
D03*
X1654D02*
D03*
X276Y4488D02*
D03*
Y2087D02*
D03*
X13307Y276D02*
D03*
X11575D02*
D03*
X7795D02*
D03*
X6417D02*
D03*
X4921D02*
D03*
X3720D02*
D03*
X1654D02*
D03*
X276D02*
D03*
Y3307D02*
D03*
Y6378D02*
D03*
X3346D02*
D03*
X5984D02*
D03*
X10846D02*
D03*
X14823D02*
D03*
Y276D02*
D03*
X9902D02*
D03*
X9094Y2992D02*
D03*
X9606D02*
D03*
Y3819D02*
D03*
X9094D02*
D03*
Y2165D02*
D03*
X9606D02*
D03*
X6909Y5433D02*
D03*
X6024D02*
D03*
X9114Y4941D02*
D03*
X9232Y6378D02*
D03*
X1319Y5079D02*
D03*
X5276Y1398D02*
D03*
X6713Y4350D02*
D03*
X5728Y5020D02*
D03*
X5433Y4724D02*
D03*
X10709Y4370D02*
D03*
X10492Y4724D02*
D03*
X10846Y5394D02*
D03*
X4134Y807D02*
D03*
Y1122D02*
D03*
X906Y807D02*
D03*
Y1122D02*
D03*
X13071Y4213D02*
D03*
X12323Y1102D02*
D03*
X5906Y1476D02*
D03*
X1634Y1909D02*
D03*
X1299Y3228D02*
D03*
X1673Y3780D02*
D03*
X1791Y5197D02*
D03*
X3071Y4350D02*
D03*
X4882Y5197D02*
D03*
X6654Y3799D02*
D03*
X10866Y5000D02*
D03*
X11634Y4626D02*
D03*
X8996Y1181D02*
D03*
X11555Y5394D02*
D03*
D37*
X14016Y4216D02*
D03*
Y2444D02*
D03*
D38*
Y1027D02*
D03*
Y5633D02*
D03*
M02*
