%FSLAX24Y24*%
%MOIN*%
G70*
G01*
G75*
G04 Layer_Color=7709086*
%ADD10C,0.0060*%
%ADD11C,0.0197*%
G04:AMPARAMS|DCode=12|XSize=55.1mil|YSize=39.4mil|CornerRadius=3mil|HoleSize=0mil|Usage=FLASHONLY|Rotation=0.000|XOffset=0mil|YOffset=0mil|HoleType=Round|Shape=RoundedRectangle|*
%AMROUNDEDRECTD12*
21,1,0.0551,0.0335,0,0,0.0*
21,1,0.0492,0.0394,0,0,0.0*
1,1,0.0059,0.0246,-0.0167*
1,1,0.0059,-0.0246,-0.0167*
1,1,0.0059,-0.0246,0.0167*
1,1,0.0059,0.0246,0.0167*
%
%ADD12ROUNDEDRECTD12*%
G04:AMPARAMS|DCode=13|XSize=31.5mil|YSize=23.6mil|CornerRadius=1.2mil|HoleSize=0mil|Usage=FLASHONLY|Rotation=90.000|XOffset=0mil|YOffset=0mil|HoleType=Round|Shape=RoundedRectangle|*
%AMROUNDEDRECTD13*
21,1,0.0315,0.0213,0,0,90.0*
21,1,0.0291,0.0236,0,0,90.0*
1,1,0.0024,0.0106,0.0146*
1,1,0.0024,0.0106,-0.0146*
1,1,0.0024,-0.0106,-0.0146*
1,1,0.0024,-0.0106,0.0146*
%
%ADD13ROUNDEDRECTD13*%
G04:AMPARAMS|DCode=14|XSize=19.7mil|YSize=19.7mil|CornerRadius=1mil|HoleSize=0mil|Usage=FLASHONLY|Rotation=90.000|XOffset=0mil|YOffset=0mil|HoleType=Round|Shape=RoundedRectangle|*
%AMROUNDEDRECTD14*
21,1,0.0197,0.0177,0,0,90.0*
21,1,0.0177,0.0197,0,0,90.0*
1,1,0.0020,0.0089,0.0089*
1,1,0.0020,0.0089,-0.0089*
1,1,0.0020,-0.0089,-0.0089*
1,1,0.0020,-0.0089,0.0089*
%
%ADD14ROUNDEDRECTD14*%
G04:AMPARAMS|DCode=15|XSize=19.7mil|YSize=19.7mil|CornerRadius=1mil|HoleSize=0mil|Usage=FLASHONLY|Rotation=180.000|XOffset=0mil|YOffset=0mil|HoleType=Round|Shape=RoundedRectangle|*
%AMROUNDEDRECTD15*
21,1,0.0197,0.0177,0,0,180.0*
21,1,0.0177,0.0197,0,0,180.0*
1,1,0.0020,-0.0089,0.0089*
1,1,0.0020,0.0089,0.0089*
1,1,0.0020,0.0089,-0.0089*
1,1,0.0020,-0.0089,-0.0089*
%
%ADD15ROUNDEDRECTD15*%
G04:AMPARAMS|DCode=16|XSize=15.7mil|YSize=19.7mil|CornerRadius=0mil|HoleSize=0mil|Usage=FLASHONLY|Rotation=90.000|XOffset=0mil|YOffset=0mil|HoleType=Round|Shape=Octagon|*
%AMOCTAGOND16*
4,1,8,-0.0098,-0.0039,-0.0098,0.0039,-0.0059,0.0079,0.0059,0.0079,0.0098,0.0039,0.0098,-0.0039,0.0059,-0.0079,-0.0059,-0.0079,-0.0098,-0.0039,0.0*
%
%ADD16OCTAGOND16*%

G04:AMPARAMS|DCode=17|XSize=31.5mil|YSize=23.6mil|CornerRadius=1.2mil|HoleSize=0mil|Usage=FLASHONLY|Rotation=0.000|XOffset=0mil|YOffset=0mil|HoleType=Round|Shape=RoundedRectangle|*
%AMROUNDEDRECTD17*
21,1,0.0315,0.0213,0,0,0.0*
21,1,0.0291,0.0236,0,0,0.0*
1,1,0.0024,0.0146,-0.0106*
1,1,0.0024,-0.0146,-0.0106*
1,1,0.0024,-0.0146,0.0106*
1,1,0.0024,0.0146,0.0106*
%
%ADD17ROUNDEDRECTD17*%
G04:AMPARAMS|DCode=18|XSize=15.7mil|YSize=19.7mil|CornerRadius=0mil|HoleSize=0mil|Usage=FLASHONLY|Rotation=0.000|XOffset=0mil|YOffset=0mil|HoleType=Round|Shape=Octagon|*
%AMOCTAGOND18*
4,1,8,-0.0039,0.0098,0.0039,0.0098,0.0079,0.0059,0.0079,-0.0059,0.0039,-0.0098,-0.0039,-0.0098,-0.0079,-0.0059,-0.0079,0.0059,-0.0039,0.0098,0.0*
%
%ADD18OCTAGOND18*%

G04:AMPARAMS|DCode=19|XSize=13.8mil|YSize=33.5mil|CornerRadius=0.7mil|HoleSize=0mil|Usage=FLASHONLY|Rotation=270.000|XOffset=0mil|YOffset=0mil|HoleType=Round|Shape=RoundedRectangle|*
%AMROUNDEDRECTD19*
21,1,0.0138,0.0321,0,0,270.0*
21,1,0.0124,0.0335,0,0,270.0*
1,1,0.0014,-0.0160,-0.0062*
1,1,0.0014,-0.0160,0.0062*
1,1,0.0014,0.0160,0.0062*
1,1,0.0014,0.0160,-0.0062*
%
%ADD19ROUNDEDRECTD19*%
G04:AMPARAMS|DCode=20|XSize=25.6mil|YSize=39.4mil|CornerRadius=2.6mil|HoleSize=0mil|Usage=FLASHONLY|Rotation=90.000|XOffset=0mil|YOffset=0mil|HoleType=Round|Shape=RoundedRectangle|*
%AMROUNDEDRECTD20*
21,1,0.0256,0.0343,0,0,90.0*
21,1,0.0205,0.0394,0,0,90.0*
1,1,0.0051,0.0171,0.0102*
1,1,0.0051,0.0171,-0.0102*
1,1,0.0051,-0.0171,-0.0102*
1,1,0.0051,-0.0171,0.0102*
%
%ADD20ROUNDEDRECTD20*%
G04:AMPARAMS|DCode=21|XSize=196.9mil|YSize=196.9mil|CornerRadius=9.8mil|HoleSize=0mil|Usage=FLASHONLY|Rotation=90.000|XOffset=0mil|YOffset=0mil|HoleType=Round|Shape=RoundedRectangle|*
%AMROUNDEDRECTD21*
21,1,0.1969,0.1772,0,0,90.0*
21,1,0.1772,0.1969,0,0,90.0*
1,1,0.0197,0.0886,0.0886*
1,1,0.0197,0.0886,-0.0886*
1,1,0.0197,-0.0886,-0.0886*
1,1,0.0197,-0.0886,0.0886*
%
%ADD21ROUNDEDRECTD21*%
G04:AMPARAMS|DCode=22|XSize=47.2mil|YSize=11.8mil|CornerRadius=5.9mil|HoleSize=0mil|Usage=FLASHONLY|Rotation=90.000|XOffset=0mil|YOffset=0mil|HoleType=Round|Shape=RoundedRectangle|*
%AMROUNDEDRECTD22*
21,1,0.0472,0.0000,0,0,90.0*
21,1,0.0354,0.0118,0,0,90.0*
1,1,0.0118,0.0000,0.0177*
1,1,0.0118,0.0000,-0.0177*
1,1,0.0118,0.0000,-0.0177*
1,1,0.0118,0.0000,0.0177*
%
%ADD22ROUNDEDRECTD22*%
G04:AMPARAMS|DCode=23|XSize=47.2mil|YSize=11.8mil|CornerRadius=5.9mil|HoleSize=0mil|Usage=FLASHONLY|Rotation=0.000|XOffset=0mil|YOffset=0mil|HoleType=Round|Shape=RoundedRectangle|*
%AMROUNDEDRECTD23*
21,1,0.0472,0.0000,0,0,0.0*
21,1,0.0354,0.0118,0,0,0.0*
1,1,0.0118,0.0177,0.0000*
1,1,0.0118,-0.0177,0.0000*
1,1,0.0118,-0.0177,0.0000*
1,1,0.0118,0.0177,0.0000*
%
%ADD23ROUNDEDRECTD23*%
G04:AMPARAMS|DCode=24|XSize=39mil|YSize=11.8mil|CornerRadius=0.9mil|HoleSize=0mil|Usage=FLASHONLY|Rotation=180.000|XOffset=0mil|YOffset=0mil|HoleType=Round|Shape=RoundedRectangle|*
%AMROUNDEDRECTD24*
21,1,0.0390,0.0100,0,0,180.0*
21,1,0.0372,0.0118,0,0,180.0*
1,1,0.0018,-0.0186,0.0050*
1,1,0.0018,0.0186,0.0050*
1,1,0.0018,0.0186,-0.0050*
1,1,0.0018,-0.0186,-0.0050*
%
%ADD24ROUNDEDRECTD24*%
G04:AMPARAMS|DCode=25|XSize=31.5mil|YSize=29.5mil|CornerRadius=3mil|HoleSize=0mil|Usage=FLASHONLY|Rotation=180.000|XOffset=0mil|YOffset=0mil|HoleType=Round|Shape=RoundedRectangle|*
%AMROUNDEDRECTD25*
21,1,0.0315,0.0236,0,0,180.0*
21,1,0.0256,0.0295,0,0,180.0*
1,1,0.0059,-0.0128,0.0118*
1,1,0.0059,0.0128,0.0118*
1,1,0.0059,0.0128,-0.0118*
1,1,0.0059,-0.0128,-0.0118*
%
%ADD25ROUNDEDRECTD25*%
G04:AMPARAMS|DCode=26|XSize=31.5mil|YSize=29.5mil|CornerRadius=3mil|HoleSize=0mil|Usage=FLASHONLY|Rotation=270.000|XOffset=0mil|YOffset=0mil|HoleType=Round|Shape=RoundedRectangle|*
%AMROUNDEDRECTD26*
21,1,0.0315,0.0236,0,0,270.0*
21,1,0.0256,0.0295,0,0,270.0*
1,1,0.0059,-0.0118,-0.0128*
1,1,0.0059,-0.0118,0.0128*
1,1,0.0059,0.0118,0.0128*
1,1,0.0059,0.0118,-0.0128*
%
%ADD26ROUNDEDRECTD26*%
G04:AMPARAMS|DCode=27|XSize=31.5mil|YSize=31.5mil|CornerRadius=3.2mil|HoleSize=0mil|Usage=FLASHONLY|Rotation=180.000|XOffset=0mil|YOffset=0mil|HoleType=Round|Shape=RoundedRectangle|*
%AMROUNDEDRECTD27*
21,1,0.0315,0.0252,0,0,180.0*
21,1,0.0252,0.0315,0,0,180.0*
1,1,0.0063,-0.0126,0.0126*
1,1,0.0063,0.0126,0.0126*
1,1,0.0063,0.0126,-0.0126*
1,1,0.0063,-0.0126,-0.0126*
%
%ADD27ROUNDEDRECTD27*%
G04:AMPARAMS|DCode=28|XSize=31.5mil|YSize=31.5mil|CornerRadius=3.2mil|HoleSize=0mil|Usage=FLASHONLY|Rotation=90.000|XOffset=0mil|YOffset=0mil|HoleType=Round|Shape=RoundedRectangle|*
%AMROUNDEDRECTD28*
21,1,0.0315,0.0252,0,0,90.0*
21,1,0.0252,0.0315,0,0,90.0*
1,1,0.0063,0.0126,0.0126*
1,1,0.0063,0.0126,-0.0126*
1,1,0.0063,-0.0126,-0.0126*
1,1,0.0063,-0.0126,0.0126*
%
%ADD28ROUNDEDRECTD28*%
G04:AMPARAMS|DCode=29|XSize=47.2mil|YSize=78.7mil|CornerRadius=3.5mil|HoleSize=0mil|Usage=FLASHONLY|Rotation=90.000|XOffset=0mil|YOffset=0mil|HoleType=Round|Shape=RoundedRectangle|*
%AMROUNDEDRECTD29*
21,1,0.0472,0.0717,0,0,90.0*
21,1,0.0402,0.0787,0,0,90.0*
1,1,0.0071,0.0358,0.0201*
1,1,0.0071,0.0358,-0.0201*
1,1,0.0071,-0.0358,-0.0201*
1,1,0.0071,-0.0358,0.0201*
%
%ADD29ROUNDEDRECTD29*%
G04:AMPARAMS|DCode=30|XSize=47.2mil|YSize=78.7mil|CornerRadius=0mil|HoleSize=0mil|Usage=FLASHONLY|Rotation=90.000|XOffset=0mil|YOffset=0mil|HoleType=Round|Shape=RoundedRectangle|*
%AMROUNDEDRECTD30*
21,1,0.0472,0.0787,0,0,90.0*
21,1,0.0472,0.0787,0,0,90.0*
1,1,0.0000,0.0394,0.0236*
1,1,0.0000,0.0394,-0.0236*
1,1,0.0000,-0.0394,-0.0236*
1,1,0.0000,-0.0394,0.0236*
%
%ADD30ROUNDEDRECTD30*%
G04:AMPARAMS|DCode=31|XSize=39.4mil|YSize=59.1mil|CornerRadius=3mil|HoleSize=0mil|Usage=FLASHONLY|Rotation=0.000|XOffset=0mil|YOffset=0mil|HoleType=Round|Shape=RoundedRectangle|*
%AMROUNDEDRECTD31*
21,1,0.0394,0.0532,0,0,0.0*
21,1,0.0335,0.0591,0,0,0.0*
1,1,0.0059,0.0167,-0.0266*
1,1,0.0059,-0.0167,-0.0266*
1,1,0.0059,-0.0167,0.0266*
1,1,0.0059,0.0167,0.0266*
%
%ADD31ROUNDEDRECTD31*%
%ADD32C,0.0080*%
%ADD33C,0.0100*%
G04:AMPARAMS|DCode=34|XSize=3.9mil|YSize=3.9mil|CornerRadius=0.3mil|HoleSize=0mil|Usage=FLASHONLY|Rotation=0.000|XOffset=0mil|YOffset=0mil|HoleType=Round|Shape=RoundedRectangle|*
%AMROUNDEDRECTD34*
21,1,0.0039,0.0033,0,0,0.0*
21,1,0.0033,0.0039,0,0,0.0*
1,1,0.0006,0.0017,-0.0017*
1,1,0.0006,-0.0017,-0.0017*
1,1,0.0006,-0.0017,0.0017*
1,1,0.0006,0.0017,0.0017*
%
%ADD34ROUNDEDRECTD34*%
%ADD35C,0.0197*%
%ADD36C,0.0315*%
%ADD37C,0.0039*%
%ADD38O,0.1260X0.0512*%
%ADD39C,0.0472*%
G04:AMPARAMS|DCode=40|XSize=45.3mil|YSize=86.6mil|CornerRadius=1.1mil|HoleSize=0mil|Usage=FLASHONLY|Rotation=270.000|XOffset=0mil|YOffset=0mil|HoleType=Round|Shape=RoundedRectangle|*
%AMROUNDEDRECTD40*
21,1,0.0453,0.0843,0,0,270.0*
21,1,0.0430,0.0866,0,0,270.0*
1,1,0.0023,-0.0422,-0.0215*
1,1,0.0023,-0.0422,0.0215*
1,1,0.0023,0.0422,0.0215*
1,1,0.0023,0.0422,-0.0215*
%
%ADD40ROUNDEDRECTD40*%
G04:AMPARAMS|DCode=41|XSize=45.3mil|YSize=98.4mil|CornerRadius=1.1mil|HoleSize=0mil|Usage=FLASHONLY|Rotation=270.000|XOffset=0mil|YOffset=0mil|HoleType=Round|Shape=RoundedRectangle|*
%AMROUNDEDRECTD41*
21,1,0.0453,0.0962,0,0,270.0*
21,1,0.0430,0.0984,0,0,270.0*
1,1,0.0023,-0.0481,-0.0215*
1,1,0.0023,-0.0481,0.0215*
1,1,0.0023,0.0481,0.0215*
1,1,0.0023,0.0481,-0.0215*
%
%ADD41ROUNDEDRECTD41*%
G04:AMPARAMS|DCode=42|XSize=31.5mil|YSize=48.8mil|CornerRadius=0.8mil|HoleSize=0mil|Usage=FLASHONLY|Rotation=270.000|XOffset=0mil|YOffset=0mil|HoleType=Round|Shape=RoundedRectangle|*
%AMROUNDEDRECTD42*
21,1,0.0315,0.0472,0,0,270.0*
21,1,0.0299,0.0488,0,0,270.0*
1,1,0.0016,-0.0236,-0.0150*
1,1,0.0016,-0.0236,0.0150*
1,1,0.0016,0.0236,0.0150*
1,1,0.0016,0.0236,-0.0150*
%
%ADD42ROUNDEDRECTD42*%
G04:AMPARAMS|DCode=43|XSize=59.1mil|YSize=45.3mil|CornerRadius=1.1mil|HoleSize=0mil|Usage=FLASHONLY|Rotation=270.000|XOffset=0mil|YOffset=0mil|HoleType=Round|Shape=RoundedRectangle|*
%AMROUNDEDRECTD43*
21,1,0.0591,0.0430,0,0,270.0*
21,1,0.0568,0.0453,0,0,270.0*
1,1,0.0023,-0.0215,-0.0284*
1,1,0.0023,-0.0215,0.0284*
1,1,0.0023,0.0215,0.0284*
1,1,0.0023,0.0215,-0.0284*
%
%ADD43ROUNDEDRECTD43*%
G04:AMPARAMS|DCode=44|XSize=45.7mil|YSize=47.2mil|CornerRadius=1.1mil|HoleSize=0mil|Usage=FLASHONLY|Rotation=270.000|XOffset=0mil|YOffset=0mil|HoleType=Round|Shape=RoundedRectangle|*
%AMROUNDEDRECTD44*
21,1,0.0457,0.0450,0,0,270.0*
21,1,0.0434,0.0472,0,0,270.0*
1,1,0.0023,-0.0225,-0.0217*
1,1,0.0023,-0.0225,0.0217*
1,1,0.0023,0.0225,0.0217*
1,1,0.0023,0.0225,-0.0217*
%
%ADD44ROUNDEDRECTD44*%
%ADD45C,0.0079*%
%ADD46C,0.0070*%
%ADD47R,0.0236X0.1181*%
%ADD48R,0.0295X0.0315*%
%ADD49R,0.0157X0.0571*%
%ADD50R,0.0394X0.0236*%
%ADD51R,0.0236X0.0394*%
G04:AMPARAMS|DCode=52|XSize=192.9mil|YSize=192.9mil|CornerRadius=7.9mil|HoleSize=0mil|Usage=FLASHONLY|Rotation=90.000|XOffset=0mil|YOffset=0mil|HoleType=Round|Shape=RoundedRectangle|*
%AMROUNDEDRECTD52*
21,1,0.1929,0.1772,0,0,90.0*
21,1,0.1772,0.1929,0,0,90.0*
1,1,0.0157,0.0886,0.0886*
1,1,0.0157,0.0886,-0.0886*
1,1,0.0157,-0.0886,-0.0886*
1,1,0.0157,-0.0886,0.0886*
%
%ADD52ROUNDEDRECTD52*%
G04:AMPARAMS|DCode=53|XSize=43.3mil|YSize=7.9mil|CornerRadius=3.9mil|HoleSize=0mil|Usage=FLASHONLY|Rotation=90.000|XOffset=0mil|YOffset=0mil|HoleType=Round|Shape=RoundedRectangle|*
%AMROUNDEDRECTD53*
21,1,0.0433,0.0000,0,0,90.0*
21,1,0.0354,0.0079,0,0,90.0*
1,1,0.0079,0.0000,0.0177*
1,1,0.0079,0.0000,-0.0177*
1,1,0.0079,0.0000,-0.0177*
1,1,0.0079,0.0000,0.0177*
%
%ADD53ROUNDEDRECTD53*%
G04:AMPARAMS|DCode=54|XSize=43.3mil|YSize=7.9mil|CornerRadius=3.9mil|HoleSize=0mil|Usage=FLASHONLY|Rotation=0.000|XOffset=0mil|YOffset=0mil|HoleType=Round|Shape=RoundedRectangle|*
%AMROUNDEDRECTD54*
21,1,0.0433,0.0000,0,0,0.0*
21,1,0.0354,0.0079,0,0,0.0*
1,1,0.0079,0.0177,0.0000*
1,1,0.0079,-0.0177,0.0000*
1,1,0.0079,-0.0177,0.0000*
1,1,0.0079,0.0177,0.0000*
%
%ADD54ROUNDEDRECTD54*%
G04:AMPARAMS|DCode=55|XSize=43.3mil|YSize=74.8mil|CornerRadius=1.6mil|HoleSize=0mil|Usage=FLASHONLY|Rotation=90.000|XOffset=0mil|YOffset=0mil|HoleType=Round|Shape=RoundedRectangle|*
%AMROUNDEDRECTD55*
21,1,0.0433,0.0717,0,0,90.0*
21,1,0.0402,0.0748,0,0,90.0*
1,1,0.0032,0.0358,0.0201*
1,1,0.0032,0.0358,-0.0201*
1,1,0.0032,-0.0358,-0.0201*
1,1,0.0032,-0.0358,0.0201*
%
%ADD55ROUNDEDRECTD55*%
G04:AMPARAMS|DCode=56|XSize=43.3mil|YSize=74.8mil|CornerRadius=0mil|HoleSize=0mil|Usage=FLASHONLY|Rotation=90.000|XOffset=0mil|YOffset=0mil|HoleType=Round|Shape=RoundedRectangle|*
%AMROUNDEDRECTD56*
21,1,0.0433,0.0748,0,0,90.0*
21,1,0.0433,0.0748,0,0,90.0*
1,1,0.0000,0.0374,0.0217*
1,1,0.0000,0.0374,-0.0217*
1,1,0.0000,-0.0374,-0.0217*
1,1,0.0000,-0.0374,0.0217*
%
%ADD56ROUNDEDRECTD56*%
G04:AMPARAMS|DCode=57|XSize=35.4mil|YSize=55.1mil|CornerRadius=1mil|HoleSize=0mil|Usage=FLASHONLY|Rotation=0.000|XOffset=0mil|YOffset=0mil|HoleType=Round|Shape=RoundedRectangle|*
%AMROUNDEDRECTD57*
21,1,0.0354,0.0532,0,0,0.0*
21,1,0.0335,0.0551,0,0,0.0*
1,1,0.0020,0.0167,-0.0266*
1,1,0.0020,-0.0167,-0.0266*
1,1,0.0020,-0.0167,0.0266*
1,1,0.0020,0.0167,0.0266*
%
%ADD57ROUNDEDRECTD57*%
%ADD58C,0.0787*%
G04:AMPARAMS|DCode=59|XSize=63.1mil|YSize=47.4mil|CornerRadius=7mil|HoleSize=0mil|Usage=FLASHONLY|Rotation=0.000|XOffset=0mil|YOffset=0mil|HoleType=Round|Shape=RoundedRectangle|*
%AMROUNDEDRECTD59*
21,1,0.0631,0.0335,0,0,0.0*
21,1,0.0492,0.0474,0,0,0.0*
1,1,0.0139,0.0246,-0.0167*
1,1,0.0139,-0.0246,-0.0167*
1,1,0.0139,-0.0246,0.0167*
1,1,0.0139,0.0246,0.0167*
%
%ADD59ROUNDEDRECTD59*%
G04:AMPARAMS|DCode=60|XSize=35.4mil|YSize=27.6mil|CornerRadius=3.2mil|HoleSize=0mil|Usage=FLASHONLY|Rotation=90.000|XOffset=0mil|YOffset=0mil|HoleType=Round|Shape=RoundedRectangle|*
%AMROUNDEDRECTD60*
21,1,0.0354,0.0213,0,0,90.0*
21,1,0.0291,0.0276,0,0,90.0*
1,1,0.0063,0.0106,0.0146*
1,1,0.0063,0.0106,-0.0146*
1,1,0.0063,-0.0106,-0.0146*
1,1,0.0063,-0.0106,0.0146*
%
%ADD60ROUNDEDRECTD60*%
G04:AMPARAMS|DCode=61|XSize=23.6mil|YSize=23.6mil|CornerRadius=3mil|HoleSize=0mil|Usage=FLASHONLY|Rotation=90.000|XOffset=0mil|YOffset=0mil|HoleType=Round|Shape=RoundedRectangle|*
%AMROUNDEDRECTD61*
21,1,0.0236,0.0177,0,0,90.0*
21,1,0.0177,0.0236,0,0,90.0*
1,1,0.0059,0.0089,0.0089*
1,1,0.0059,0.0089,-0.0089*
1,1,0.0059,-0.0089,-0.0089*
1,1,0.0059,-0.0089,0.0089*
%
%ADD61ROUNDEDRECTD61*%
G04:AMPARAMS|DCode=62|XSize=23.6mil|YSize=23.6mil|CornerRadius=3mil|HoleSize=0mil|Usage=FLASHONLY|Rotation=180.000|XOffset=0mil|YOffset=0mil|HoleType=Round|Shape=RoundedRectangle|*
%AMROUNDEDRECTD62*
21,1,0.0236,0.0177,0,0,180.0*
21,1,0.0177,0.0236,0,0,180.0*
1,1,0.0059,-0.0089,0.0089*
1,1,0.0059,0.0089,0.0089*
1,1,0.0059,0.0089,-0.0089*
1,1,0.0059,-0.0089,-0.0089*
%
%ADD62ROUNDEDRECTD62*%
G04:AMPARAMS|DCode=63|XSize=19.7mil|YSize=23.6mil|CornerRadius=0mil|HoleSize=0mil|Usage=FLASHONLY|Rotation=90.000|XOffset=0mil|YOffset=0mil|HoleType=Round|Shape=Octagon|*
%AMOCTAGOND63*
4,1,8,-0.0118,-0.0049,-0.0118,0.0049,-0.0069,0.0098,0.0069,0.0098,0.0118,0.0049,0.0118,-0.0049,0.0069,-0.0098,-0.0069,-0.0098,-0.0118,-0.0049,0.0*
%
%ADD63OCTAGOND63*%

G04:AMPARAMS|DCode=64|XSize=35.4mil|YSize=27.6mil|CornerRadius=3.2mil|HoleSize=0mil|Usage=FLASHONLY|Rotation=0.000|XOffset=0mil|YOffset=0mil|HoleType=Round|Shape=RoundedRectangle|*
%AMROUNDEDRECTD64*
21,1,0.0354,0.0213,0,0,0.0*
21,1,0.0291,0.0276,0,0,0.0*
1,1,0.0063,0.0146,-0.0106*
1,1,0.0063,-0.0146,-0.0106*
1,1,0.0063,-0.0146,0.0106*
1,1,0.0063,0.0146,0.0106*
%
%ADD64ROUNDEDRECTD64*%
G04:AMPARAMS|DCode=65|XSize=19.7mil|YSize=23.6mil|CornerRadius=0mil|HoleSize=0mil|Usage=FLASHONLY|Rotation=0.000|XOffset=0mil|YOffset=0mil|HoleType=Round|Shape=Octagon|*
%AMOCTAGOND65*
4,1,8,-0.0049,0.0118,0.0049,0.0118,0.0098,0.0069,0.0098,-0.0069,0.0049,-0.0118,-0.0049,-0.0118,-0.0098,-0.0069,-0.0098,0.0069,-0.0049,0.0118,0.0*
%
%ADD65OCTAGOND65*%

G04:AMPARAMS|DCode=66|XSize=17.7mil|YSize=37.4mil|CornerRadius=2.7mil|HoleSize=0mil|Usage=FLASHONLY|Rotation=270.000|XOffset=0mil|YOffset=0mil|HoleType=Round|Shape=RoundedRectangle|*
%AMROUNDEDRECTD66*
21,1,0.0177,0.0321,0,0,270.0*
21,1,0.0124,0.0374,0,0,270.0*
1,1,0.0053,-0.0160,-0.0062*
1,1,0.0053,-0.0160,0.0062*
1,1,0.0053,0.0160,0.0062*
1,1,0.0053,0.0160,-0.0062*
%
%ADD66ROUNDEDRECTD66*%
G04:AMPARAMS|DCode=67|XSize=33.6mil|YSize=47.4mil|CornerRadius=6.6mil|HoleSize=0mil|Usage=FLASHONLY|Rotation=90.000|XOffset=0mil|YOffset=0mil|HoleType=Round|Shape=RoundedRectangle|*
%AMROUNDEDRECTD67*
21,1,0.0336,0.0343,0,0,90.0*
21,1,0.0205,0.0474,0,0,90.0*
1,1,0.0131,0.0171,0.0102*
1,1,0.0131,0.0171,-0.0102*
1,1,0.0131,-0.0171,-0.0102*
1,1,0.0131,-0.0171,0.0102*
%
%ADD67ROUNDEDRECTD67*%
G04:AMPARAMS|DCode=68|XSize=200.8mil|YSize=200.8mil|CornerRadius=11.8mil|HoleSize=0mil|Usage=FLASHONLY|Rotation=90.000|XOffset=0mil|YOffset=0mil|HoleType=Round|Shape=RoundedRectangle|*
%AMROUNDEDRECTD68*
21,1,0.2008,0.1772,0,0,90.0*
21,1,0.1772,0.2008,0,0,90.0*
1,1,0.0236,0.0886,0.0886*
1,1,0.0236,0.0886,-0.0886*
1,1,0.0236,-0.0886,-0.0886*
1,1,0.0236,-0.0886,0.0886*
%
%ADD68ROUNDEDRECTD68*%
G04:AMPARAMS|DCode=69|XSize=51.2mil|YSize=15.7mil|CornerRadius=7.9mil|HoleSize=0mil|Usage=FLASHONLY|Rotation=90.000|XOffset=0mil|YOffset=0mil|HoleType=Round|Shape=RoundedRectangle|*
%AMROUNDEDRECTD69*
21,1,0.0512,0.0000,0,0,90.0*
21,1,0.0354,0.0157,0,0,90.0*
1,1,0.0157,0.0000,0.0177*
1,1,0.0157,0.0000,-0.0177*
1,1,0.0157,0.0000,-0.0177*
1,1,0.0157,0.0000,0.0177*
%
%ADD69ROUNDEDRECTD69*%
G04:AMPARAMS|DCode=70|XSize=51.2mil|YSize=15.7mil|CornerRadius=7.9mil|HoleSize=0mil|Usage=FLASHONLY|Rotation=0.000|XOffset=0mil|YOffset=0mil|HoleType=Round|Shape=RoundedRectangle|*
%AMROUNDEDRECTD70*
21,1,0.0512,0.0000,0,0,0.0*
21,1,0.0354,0.0157,0,0,0.0*
1,1,0.0157,0.0177,0.0000*
1,1,0.0157,-0.0177,0.0000*
1,1,0.0157,-0.0177,0.0000*
1,1,0.0157,0.0177,0.0000*
%
%ADD70ROUNDEDRECTD70*%
G04:AMPARAMS|DCode=71|XSize=43.7mil|YSize=16.5mil|CornerRadius=3.2mil|HoleSize=0mil|Usage=FLASHONLY|Rotation=180.000|XOffset=0mil|YOffset=0mil|HoleType=Round|Shape=RoundedRectangle|*
%AMROUNDEDRECTD71*
21,1,0.0437,0.0100,0,0,180.0*
21,1,0.0372,0.0165,0,0,180.0*
1,1,0.0065,-0.0186,0.0050*
1,1,0.0065,0.0186,0.0050*
1,1,0.0065,0.0186,-0.0050*
1,1,0.0065,-0.0186,-0.0050*
%
%ADD71ROUNDEDRECTD71*%
G04:AMPARAMS|DCode=72|XSize=39.4mil|YSize=37.4mil|CornerRadius=6.9mil|HoleSize=0mil|Usage=FLASHONLY|Rotation=180.000|XOffset=0mil|YOffset=0mil|HoleType=Round|Shape=RoundedRectangle|*
%AMROUNDEDRECTD72*
21,1,0.0394,0.0236,0,0,180.0*
21,1,0.0256,0.0374,0,0,180.0*
1,1,0.0138,-0.0128,0.0118*
1,1,0.0138,0.0128,0.0118*
1,1,0.0138,0.0128,-0.0118*
1,1,0.0138,-0.0128,-0.0118*
%
%ADD72ROUNDEDRECTD72*%
G04:AMPARAMS|DCode=73|XSize=39.4mil|YSize=37.4mil|CornerRadius=6.9mil|HoleSize=0mil|Usage=FLASHONLY|Rotation=270.000|XOffset=0mil|YOffset=0mil|HoleType=Round|Shape=RoundedRectangle|*
%AMROUNDEDRECTD73*
21,1,0.0394,0.0236,0,0,270.0*
21,1,0.0256,0.0374,0,0,270.0*
1,1,0.0138,-0.0118,-0.0128*
1,1,0.0138,-0.0118,0.0128*
1,1,0.0138,0.0118,0.0128*
1,1,0.0138,0.0118,-0.0128*
%
%ADD73ROUNDEDRECTD73*%
G04:AMPARAMS|DCode=74|XSize=39.4mil|YSize=39.4mil|CornerRadius=7.1mil|HoleSize=0mil|Usage=FLASHONLY|Rotation=180.000|XOffset=0mil|YOffset=0mil|HoleType=Round|Shape=RoundedRectangle|*
%AMROUNDEDRECTD74*
21,1,0.0394,0.0252,0,0,180.0*
21,1,0.0252,0.0394,0,0,180.0*
1,1,0.0142,-0.0126,0.0126*
1,1,0.0142,0.0126,0.0126*
1,1,0.0142,0.0126,-0.0126*
1,1,0.0142,-0.0126,-0.0126*
%
%ADD74ROUNDEDRECTD74*%
G04:AMPARAMS|DCode=75|XSize=39.4mil|YSize=39.4mil|CornerRadius=7.1mil|HoleSize=0mil|Usage=FLASHONLY|Rotation=90.000|XOffset=0mil|YOffset=0mil|HoleType=Round|Shape=RoundedRectangle|*
%AMROUNDEDRECTD75*
21,1,0.0394,0.0252,0,0,90.0*
21,1,0.0252,0.0394,0,0,90.0*
1,1,0.0142,0.0126,0.0126*
1,1,0.0142,0.0126,-0.0126*
1,1,0.0142,-0.0126,-0.0126*
1,1,0.0142,-0.0126,0.0126*
%
%ADD75ROUNDEDRECTD75*%
G04:AMPARAMS|DCode=76|XSize=51.2mil|YSize=82.7mil|CornerRadius=5.5mil|HoleSize=0mil|Usage=FLASHONLY|Rotation=90.000|XOffset=0mil|YOffset=0mil|HoleType=Round|Shape=RoundedRectangle|*
%AMROUNDEDRECTD76*
21,1,0.0512,0.0717,0,0,90.0*
21,1,0.0402,0.0827,0,0,90.0*
1,1,0.0110,0.0358,0.0201*
1,1,0.0110,0.0358,-0.0201*
1,1,0.0110,-0.0358,-0.0201*
1,1,0.0110,-0.0358,0.0201*
%
%ADD76ROUNDEDRECTD76*%
G04:AMPARAMS|DCode=77|XSize=51.2mil|YSize=82.7mil|CornerRadius=0mil|HoleSize=0mil|Usage=FLASHONLY|Rotation=90.000|XOffset=0mil|YOffset=0mil|HoleType=Round|Shape=RoundedRectangle|*
%AMROUNDEDRECTD77*
21,1,0.0512,0.0827,0,0,90.0*
21,1,0.0512,0.0827,0,0,90.0*
1,1,0.0000,0.0413,0.0256*
1,1,0.0000,0.0413,-0.0256*
1,1,0.0000,-0.0413,-0.0256*
1,1,0.0000,-0.0413,0.0256*
%
%ADD77ROUNDEDRECTD77*%
G04:AMPARAMS|DCode=78|XSize=43.3mil|YSize=63mil|CornerRadius=4.9mil|HoleSize=0mil|Usage=FLASHONLY|Rotation=0.000|XOffset=0mil|YOffset=0mil|HoleType=Round|Shape=RoundedRectangle|*
%AMROUNDEDRECTD78*
21,1,0.0433,0.0532,0,0,0.0*
21,1,0.0335,0.0630,0,0,0.0*
1,1,0.0098,0.0167,-0.0266*
1,1,0.0098,-0.0167,-0.0266*
1,1,0.0098,-0.0167,0.0266*
1,1,0.0098,0.0167,0.0266*
%
%ADD78ROUNDEDRECTD78*%
G04:AMPARAMS|DCode=79|XSize=35.4mil|YSize=33.5mil|CornerRadius=4.9mil|HoleSize=0mil|Usage=FLASHONLY|Rotation=0.000|XOffset=0mil|YOffset=0mil|HoleType=Round|Shape=RoundedRectangle|*
%AMROUNDEDRECTD79*
21,1,0.0354,0.0236,0,0,0.0*
21,1,0.0256,0.0335,0,0,0.0*
1,1,0.0098,0.0128,-0.0118*
1,1,0.0098,-0.0128,-0.0118*
1,1,0.0098,-0.0128,0.0118*
1,1,0.0098,0.0128,0.0118*
%
%ADD79ROUNDEDRECTD79*%
G04:AMPARAMS|DCode=80|XSize=35.4mil|YSize=33.5mil|CornerRadius=4.9mil|HoleSize=0mil|Usage=FLASHONLY|Rotation=90.000|XOffset=0mil|YOffset=0mil|HoleType=Round|Shape=RoundedRectangle|*
%AMROUNDEDRECTD80*
21,1,0.0354,0.0236,0,0,90.0*
21,1,0.0256,0.0335,0,0,90.0*
1,1,0.0098,0.0118,0.0128*
1,1,0.0098,0.0118,-0.0128*
1,1,0.0098,-0.0118,-0.0128*
1,1,0.0098,-0.0118,0.0128*
%
%ADD80ROUNDEDRECTD80*%
G04:AMPARAMS|DCode=81|XSize=7.9mil|YSize=7.9mil|CornerRadius=2.3mil|HoleSize=0mil|Usage=FLASHONLY|Rotation=0.000|XOffset=0mil|YOffset=0mil|HoleType=Round|Shape=RoundedRectangle|*
%AMROUNDEDRECTD81*
21,1,0.0079,0.0033,0,0,0.0*
21,1,0.0033,0.0079,0,0,0.0*
1,1,0.0045,0.0017,-0.0017*
1,1,0.0045,-0.0017,-0.0017*
1,1,0.0045,-0.0017,0.0017*
1,1,0.0045,0.0017,0.0017*
%
%ADD81ROUNDEDRECTD81*%
%ADD82C,0.0591*%
%ADD83C,0.0079*%
%ADD84O,0.1299X0.0551*%
G04:AMPARAMS|DCode=85|XSize=23.6mil|YSize=17.7mil|CornerRadius=4.4mil|HoleSize=0mil|Usage=FLASHONLY|Rotation=180.000|XOffset=0mil|YOffset=0mil|HoleType=Round|Shape=RoundedRectangle|*
%AMROUNDEDRECTD85*
21,1,0.0236,0.0089,0,0,180.0*
21,1,0.0148,0.0177,0,0,180.0*
1,1,0.0089,-0.0074,0.0044*
1,1,0.0089,0.0074,0.0044*
1,1,0.0089,0.0074,-0.0044*
1,1,0.0089,-0.0074,-0.0044*
%
%ADD85ROUNDEDRECTD85*%
%ADD86C,0.0552*%
G04:AMPARAMS|DCode=87|XSize=49.2mil|YSize=90.6mil|CornerRadius=3.1mil|HoleSize=0mil|Usage=FLASHONLY|Rotation=270.000|XOffset=0mil|YOffset=0mil|HoleType=Round|Shape=RoundedRectangle|*
%AMROUNDEDRECTD87*
21,1,0.0492,0.0843,0,0,270.0*
21,1,0.0430,0.0906,0,0,270.0*
1,1,0.0062,-0.0422,-0.0215*
1,1,0.0062,-0.0422,0.0215*
1,1,0.0062,0.0422,0.0215*
1,1,0.0062,0.0422,-0.0215*
%
%ADD87ROUNDEDRECTD87*%
G04:AMPARAMS|DCode=88|XSize=49.2mil|YSize=102.4mil|CornerRadius=3.1mil|HoleSize=0mil|Usage=FLASHONLY|Rotation=270.000|XOffset=0mil|YOffset=0mil|HoleType=Round|Shape=RoundedRectangle|*
%AMROUNDEDRECTD88*
21,1,0.0492,0.0962,0,0,270.0*
21,1,0.0430,0.1024,0,0,270.0*
1,1,0.0062,-0.0481,-0.0215*
1,1,0.0062,-0.0481,0.0215*
1,1,0.0062,0.0481,0.0215*
1,1,0.0062,0.0481,-0.0215*
%
%ADD88ROUNDEDRECTD88*%
G04:AMPARAMS|DCode=89|XSize=35.4mil|YSize=52.8mil|CornerRadius=2.8mil|HoleSize=0mil|Usage=FLASHONLY|Rotation=270.000|XOffset=0mil|YOffset=0mil|HoleType=Round|Shape=RoundedRectangle|*
%AMROUNDEDRECTD89*
21,1,0.0354,0.0472,0,0,270.0*
21,1,0.0299,0.0528,0,0,270.0*
1,1,0.0055,-0.0236,-0.0150*
1,1,0.0055,-0.0236,0.0150*
1,1,0.0055,0.0236,0.0150*
1,1,0.0055,0.0236,-0.0150*
%
%ADD89ROUNDEDRECTD89*%
G04:AMPARAMS|DCode=90|XSize=63mil|YSize=49.2mil|CornerRadius=3.1mil|HoleSize=0mil|Usage=FLASHONLY|Rotation=270.000|XOffset=0mil|YOffset=0mil|HoleType=Round|Shape=RoundedRectangle|*
%AMROUNDEDRECTD90*
21,1,0.0630,0.0430,0,0,270.0*
21,1,0.0568,0.0492,0,0,270.0*
1,1,0.0062,-0.0215,-0.0284*
1,1,0.0062,-0.0215,0.0284*
1,1,0.0062,0.0215,0.0284*
1,1,0.0062,0.0215,-0.0284*
%
%ADD90ROUNDEDRECTD90*%
G04:AMPARAMS|DCode=91|XSize=49.6mil|YSize=51.2mil|CornerRadius=3.1mil|HoleSize=0mil|Usage=FLASHONLY|Rotation=270.000|XOffset=0mil|YOffset=0mil|HoleType=Round|Shape=RoundedRectangle|*
%AMROUNDEDRECTD91*
21,1,0.0496,0.0450,0,0,270.0*
21,1,0.0434,0.0512,0,0,270.0*
1,1,0.0062,-0.0225,-0.0217*
1,1,0.0062,-0.0225,0.0217*
1,1,0.0062,0.0225,0.0217*
1,1,0.0062,0.0225,-0.0217*
%
%ADD91ROUNDEDRECTD91*%
%ADD92C,0.0020*%
%ADD93C,0.0063*%
G36*
X12833Y1850D02*
X12782D01*
Y1900D01*
X12833D01*
Y1850D01*
D02*
G37*
G36*
X12949Y2082D02*
X12953Y2075D01*
X12957Y2070D01*
X12961Y2065D01*
X12965Y2062D01*
X12968Y2059D01*
X12970Y2058D01*
X12971Y2058D01*
X12971D01*
X12974Y2056D01*
X12977Y2055D01*
X12985Y2053D01*
X12993Y2051D01*
X13001Y2050D01*
X13008Y2048D01*
X13011Y2048D01*
X13014Y2048D01*
X13016Y2047D01*
X13018Y2047D01*
X13020D01*
Y2016D01*
X12962D01*
Y1850D01*
X12915D01*
Y2090D01*
X12945D01*
X12949Y2082D01*
D02*
G37*
G36*
X14523Y2101D02*
X14531Y2100D01*
X14537Y2099D01*
X14544Y2098D01*
X14550Y2096D01*
X14556Y2095D01*
X14561Y2093D01*
X14566Y2091D01*
X14570Y2089D01*
X14573Y2087D01*
X14576Y2085D01*
X14579Y2084D01*
X14581Y2082D01*
X14582Y2081D01*
X14583Y2081D01*
X14583Y2080D01*
X14588Y2076D01*
X14591Y2072D01*
X14595Y2067D01*
X14598Y2063D01*
X14600Y2058D01*
X14602Y2054D01*
X14605Y2044D01*
X14606Y2040D01*
X14607Y2036D01*
X14607Y2033D01*
X14608Y2029D01*
X14608Y2027D01*
Y2025D01*
Y2024D01*
Y2024D01*
X14607Y2015D01*
X14606Y2007D01*
X14603Y2000D01*
X14600Y1995D01*
X14598Y1989D01*
X14595Y1986D01*
X14594Y1985D01*
X14594Y1984D01*
X14593Y1983D01*
Y1983D01*
X14587Y1977D01*
X14580Y1972D01*
X14573Y1968D01*
X14567Y1965D01*
X14561Y1964D01*
X14559Y1963D01*
X14556Y1962D01*
X14555Y1962D01*
X14554Y1961D01*
X14553Y1961D01*
X14552D01*
X14492Y1949D01*
X14486Y1948D01*
X14481Y1946D01*
X14476Y1944D01*
X14472Y1941D01*
X14469Y1939D01*
X14466Y1936D01*
X14464Y1933D01*
X14462Y1930D01*
X14461Y1928D01*
X14460Y1925D01*
X14458Y1920D01*
Y1918D01*
X14458Y1917D01*
Y1916D01*
Y1916D01*
X14459Y1910D01*
X14460Y1906D01*
X14462Y1902D01*
X14465Y1898D01*
X14467Y1896D01*
X14469Y1894D01*
X14471Y1893D01*
X14472Y1892D01*
X14477Y1889D01*
X14483Y1888D01*
X14489Y1886D01*
X14495Y1885D01*
X14500Y1884D01*
X14505Y1884D01*
X14508D01*
X14517Y1884D01*
X14525Y1886D01*
X14532Y1888D01*
X14538Y1890D01*
X14543Y1893D01*
X14548Y1897D01*
X14552Y1900D01*
X14555Y1904D01*
X14557Y1908D01*
X14559Y1911D01*
X14561Y1914D01*
X14562Y1917D01*
X14563Y1920D01*
X14563Y1922D01*
X14564Y1923D01*
Y1924D01*
X14612D01*
X14611Y1917D01*
X14610Y1910D01*
X14608Y1904D01*
X14606Y1898D01*
X14604Y1893D01*
X14602Y1888D01*
X14599Y1884D01*
X14596Y1880D01*
X14594Y1876D01*
X14591Y1873D01*
X14589Y1870D01*
X14587Y1868D01*
X14586Y1866D01*
X14584Y1865D01*
X14583Y1864D01*
X14583Y1864D01*
X14578Y1860D01*
X14572Y1857D01*
X14567Y1854D01*
X14561Y1852D01*
X14555Y1850D01*
X14549Y1848D01*
X14538Y1845D01*
X14533Y1845D01*
X14528Y1844D01*
X14524Y1843D01*
X14520Y1843D01*
X14517Y1843D01*
X14513D01*
X14504Y1843D01*
X14495Y1843D01*
X14487Y1845D01*
X14480Y1846D01*
X14473Y1847D01*
X14467Y1849D01*
X14461Y1851D01*
X14456Y1853D01*
X14452Y1855D01*
X14448Y1857D01*
X14444Y1859D01*
X14441Y1860D01*
X14439Y1862D01*
X14437Y1863D01*
X14437Y1863D01*
X14436Y1864D01*
X14432Y1867D01*
X14427Y1872D01*
X14424Y1877D01*
X14421Y1882D01*
X14418Y1887D01*
X14416Y1892D01*
X14414Y1897D01*
X14412Y1901D01*
X14411Y1906D01*
X14410Y1910D01*
X14410Y1914D01*
X14409Y1917D01*
X14409Y1920D01*
Y1921D01*
Y1923D01*
Y1923D01*
X14409Y1929D01*
X14410Y1934D01*
X14411Y1940D01*
X14412Y1944D01*
X14413Y1948D01*
X14415Y1952D01*
X14417Y1956D01*
X14418Y1959D01*
X14420Y1962D01*
X14422Y1964D01*
X14424Y1967D01*
X14425Y1968D01*
X14426Y1969D01*
X14428Y1971D01*
X14428Y1971D01*
X14428D01*
X14431Y1973D01*
X14435Y1976D01*
X14442Y1980D01*
X14451Y1983D01*
X14459Y1986D01*
X14467Y1988D01*
X14470Y1989D01*
X14473Y1990D01*
X14476Y1991D01*
X14477Y1991D01*
X14479Y1991D01*
X14479D01*
X14531Y2002D01*
X14536Y2004D01*
X14540Y2005D01*
X14544Y2007D01*
X14548Y2009D01*
X14551Y2011D01*
X14553Y2013D01*
X14555Y2016D01*
X14556Y2018D01*
X14559Y2022D01*
X14560Y2025D01*
Y2027D01*
X14560Y2028D01*
Y2028D01*
Y2029D01*
X14560Y2035D01*
X14558Y2039D01*
X14556Y2044D01*
X14554Y2047D01*
X14550Y2050D01*
X14547Y2053D01*
X14543Y2055D01*
X14539Y2057D01*
X14535Y2058D01*
X14531Y2059D01*
X14527Y2060D01*
X14524Y2060D01*
X14521D01*
X14519Y2061D01*
X14517D01*
X14509Y2060D01*
X14501Y2059D01*
X14495Y2058D01*
X14490Y2056D01*
X14486Y2054D01*
X14483Y2052D01*
X14481Y2051D01*
X14480Y2050D01*
X14475Y2046D01*
X14471Y2041D01*
X14469Y2037D01*
X14467Y2032D01*
X14465Y2028D01*
X14465Y2025D01*
X14464Y2023D01*
Y2022D01*
Y2022D01*
X14417D01*
X14417Y2029D01*
X14418Y2035D01*
X14419Y2041D01*
X14421Y2047D01*
X14423Y2052D01*
X14425Y2057D01*
X14427Y2062D01*
X14430Y2066D01*
X14432Y2069D01*
X14434Y2072D01*
X14437Y2075D01*
X14438Y2077D01*
X14440Y2078D01*
X14441Y2079D01*
X14442Y2080D01*
X14442Y2080D01*
X14448Y2084D01*
X14453Y2087D01*
X14459Y2090D01*
X14465Y2092D01*
X14471Y2095D01*
X14477Y2096D01*
X14489Y2099D01*
X14494Y2099D01*
X14499Y2100D01*
X14504Y2100D01*
X14508Y2101D01*
X14511Y2101D01*
X14515D01*
X14523Y2101D01*
D02*
G37*
G36*
X12478Y2082D02*
X12482Y2075D01*
X12487Y2070D01*
X12491Y2065D01*
X12495Y2062D01*
X12498Y2059D01*
X12500Y2058D01*
X12500Y2058D01*
X12501D01*
X12503Y2056D01*
X12507Y2055D01*
X12514Y2053D01*
X12522Y2051D01*
X12530Y2050D01*
X12537Y2048D01*
X12541Y2048D01*
X12543Y2048D01*
X12546Y2047D01*
X12548Y2047D01*
X12549D01*
Y2016D01*
X12491D01*
Y1850D01*
X12444D01*
Y2090D01*
X12474D01*
X12478Y2082D01*
D02*
G37*
G36*
X13487Y2036D02*
X13494Y2036D01*
X13500Y2034D01*
X13506Y2033D01*
X13511Y2031D01*
X13516Y2028D01*
X13521Y2026D01*
X13525Y2024D01*
X13529Y2021D01*
X13532Y2019D01*
X13535Y2016D01*
X13537Y2014D01*
X13539Y2013D01*
X13540Y2011D01*
X13540Y2011D01*
X13541Y2010D01*
X13544Y2005D01*
X13548Y1999D01*
X13551Y1993D01*
X13553Y1987D01*
X13555Y1981D01*
X13557Y1975D01*
X13560Y1962D01*
X13561Y1956D01*
X13561Y1951D01*
X13562Y1946D01*
X13562Y1942D01*
X13562Y1939D01*
Y1936D01*
Y1935D01*
Y1934D01*
X13562Y1926D01*
X13561Y1918D01*
X13560Y1910D01*
X13558Y1904D01*
X13556Y1897D01*
X13554Y1892D01*
X13551Y1886D01*
X13549Y1882D01*
X13547Y1877D01*
X13544Y1874D01*
X13542Y1871D01*
X13540Y1868D01*
X13538Y1866D01*
X13537Y1865D01*
X13536Y1864D01*
X13536Y1864D01*
X13531Y1860D01*
X13527Y1857D01*
X13522Y1854D01*
X13518Y1852D01*
X13508Y1848D01*
X13500Y1846D01*
X13496Y1845D01*
X13492Y1844D01*
X13489Y1844D01*
X13486Y1843D01*
X13484Y1843D01*
X13480D01*
X13475Y1843D01*
X13470Y1844D01*
X13460Y1846D01*
X13451Y1848D01*
X13443Y1851D01*
X13440Y1853D01*
X13436Y1854D01*
X13434Y1855D01*
X13432Y1857D01*
X13430Y1858D01*
X13428Y1858D01*
X13428Y1859D01*
X13427D01*
X13419Y1866D01*
X13412Y1873D01*
X13406Y1880D01*
X13401Y1887D01*
X13398Y1893D01*
X13397Y1896D01*
X13396Y1898D01*
X13395Y1900D01*
X13394Y1901D01*
X13394Y1902D01*
Y1902D01*
X13442D01*
X13443Y1899D01*
X13445Y1897D01*
X13447Y1894D01*
X13449Y1892D01*
X13451Y1890D01*
X13452Y1889D01*
X13453Y1888D01*
X13454Y1888D01*
X13457Y1885D01*
X13461Y1884D01*
X13465Y1882D01*
X13468Y1882D01*
X13471Y1881D01*
X13474Y1881D01*
X13475D01*
X13482Y1881D01*
X13487Y1883D01*
X13492Y1885D01*
X13496Y1886D01*
X13500Y1889D01*
X13502Y1890D01*
X13504Y1892D01*
X13504Y1892D01*
X13508Y1896D01*
X13510Y1901D01*
X13512Y1906D01*
X13514Y1910D01*
X13514Y1915D01*
X13515Y1918D01*
X13515Y1920D01*
Y1921D01*
Y1921D01*
Y1924D01*
X13515Y1926D01*
Y1927D01*
Y1928D01*
X13393D01*
X13392Y1932D01*
X13392Y1937D01*
Y1939D01*
Y1940D01*
Y1941D01*
Y1942D01*
X13392Y1949D01*
X13393Y1957D01*
X13394Y1964D01*
X13395Y1971D01*
X13397Y1977D01*
X13399Y1982D01*
X13401Y1987D01*
X13404Y1992D01*
X13406Y1996D01*
X13408Y2000D01*
X13410Y2003D01*
X13412Y2006D01*
X13414Y2008D01*
X13415Y2009D01*
X13416Y2010D01*
X13416Y2011D01*
X13421Y2015D01*
X13425Y2019D01*
X13431Y2023D01*
X13436Y2026D01*
X13441Y2028D01*
X13447Y2030D01*
X13452Y2032D01*
X13457Y2033D01*
X13462Y2035D01*
X13466Y2035D01*
X13470Y2036D01*
X13473Y2036D01*
X13476Y2037D01*
X13479D01*
X13487Y2036D01*
D02*
G37*
G36*
X13945Y1905D02*
X13945Y1900D01*
X13944Y1896D01*
X13942Y1887D01*
X13940Y1880D01*
X13937Y1873D01*
X13934Y1868D01*
X13932Y1864D01*
X13931Y1863D01*
X13930Y1862D01*
X13929Y1862D01*
Y1861D01*
X13926Y1858D01*
X13922Y1855D01*
X13919Y1853D01*
X13915Y1851D01*
X13907Y1847D01*
X13899Y1845D01*
X13892Y1844D01*
X13890Y1844D01*
X13887Y1843D01*
X13885Y1843D01*
X13882D01*
X13876Y1843D01*
X13870Y1844D01*
X13864Y1846D01*
X13859Y1848D01*
X13854Y1850D01*
X13850Y1852D01*
X13846Y1855D01*
X13843Y1858D01*
X13839Y1860D01*
X13836Y1863D01*
X13834Y1865D01*
X13832Y1868D01*
X13831Y1870D01*
X13830Y1871D01*
X13829Y1872D01*
X13829Y1872D01*
Y1850D01*
X13781D01*
Y2034D01*
X13829D01*
Y1914D01*
X13829Y1909D01*
X13831Y1906D01*
X13832Y1902D01*
X13834Y1899D01*
X13836Y1897D01*
X13838Y1895D01*
X13840Y1894D01*
X13840Y1893D01*
X13844Y1890D01*
X13849Y1888D01*
X13854Y1887D01*
X13858Y1886D01*
X13861Y1885D01*
X13864Y1885D01*
X13867D01*
X13872Y1885D01*
X13876Y1886D01*
X13880Y1886D01*
X13883Y1888D01*
X13886Y1889D01*
X13888Y1890D01*
X13889Y1890D01*
X13889Y1891D01*
X13892Y1893D01*
X13894Y1896D01*
X13895Y1899D01*
X13896Y1902D01*
X13897Y1905D01*
X13898Y1907D01*
Y1908D01*
Y1909D01*
Y2034D01*
X13945D01*
Y1905D01*
D02*
G37*
G36*
X13261Y1850D02*
X13210D01*
Y1948D01*
X13150D01*
X13143Y1948D01*
X13138Y1946D01*
X13134Y1945D01*
X13130Y1943D01*
X13128Y1941D01*
X13126Y1939D01*
X13125Y1938D01*
X13125Y1938D01*
X13123Y1935D01*
X13122Y1932D01*
X13121Y1924D01*
X13120Y1921D01*
X13120Y1918D01*
Y1917D01*
Y1916D01*
Y1879D01*
X13120Y1874D01*
X13119Y1870D01*
X13118Y1865D01*
X13117Y1861D01*
X13116Y1857D01*
X13115Y1853D01*
X13114Y1851D01*
X13114Y1851D01*
Y1850D01*
X13059D01*
Y1860D01*
X13061Y1862D01*
X13064Y1865D01*
X13065Y1868D01*
X13067Y1871D01*
X13067Y1873D01*
X13068Y1875D01*
Y1877D01*
Y1877D01*
X13071Y1937D01*
X13071Y1941D01*
X13072Y1944D01*
X13073Y1947D01*
X13075Y1950D01*
X13079Y1955D01*
X13084Y1960D01*
X13089Y1964D01*
X13094Y1967D01*
X13095Y1968D01*
X13096Y1968D01*
X13097Y1969D01*
X13097D01*
X13091Y1973D01*
X13085Y1977D01*
X13081Y1982D01*
X13076Y1987D01*
X13073Y1992D01*
X13070Y1997D01*
X13068Y2002D01*
X13065Y2007D01*
X13064Y2011D01*
X13063Y2015D01*
X13062Y2019D01*
X13062Y2022D01*
X13061Y2025D01*
X13061Y2027D01*
Y2028D01*
Y2029D01*
X13061Y2035D01*
X13062Y2041D01*
X13063Y2046D01*
X13064Y2051D01*
X13066Y2056D01*
X13068Y2060D01*
X13069Y2064D01*
X13071Y2068D01*
X13073Y2071D01*
X13075Y2074D01*
X13077Y2076D01*
X13079Y2078D01*
X13080Y2080D01*
X13081Y2081D01*
X13081Y2081D01*
X13082Y2082D01*
X13085Y2084D01*
X13088Y2087D01*
X13095Y2091D01*
X13102Y2094D01*
X13108Y2095D01*
X13114Y2096D01*
X13116Y2097D01*
X13118D01*
X13120Y2097D01*
X13261D01*
Y1850D01*
D02*
G37*
G36*
X14182D02*
X14068D01*
X14061Y1851D01*
X14054Y1851D01*
X14047Y1853D01*
X14041Y1854D01*
X14035Y1855D01*
X14030Y1857D01*
X14025Y1859D01*
X14021Y1862D01*
X14017Y1864D01*
X14014Y1866D01*
X14011Y1867D01*
X14009Y1869D01*
X14007Y1870D01*
X14006Y1872D01*
X14005Y1872D01*
X14005Y1873D01*
X14001Y1876D01*
X13998Y1880D01*
X13995Y1885D01*
X13993Y1889D01*
X13989Y1897D01*
X13987Y1905D01*
X13986Y1912D01*
X13985Y1914D01*
X13985Y1917D01*
X13985Y1919D01*
Y1920D01*
Y1921D01*
Y1922D01*
X13985Y1928D01*
X13986Y1935D01*
X13987Y1941D01*
X13989Y1946D01*
X13991Y1952D01*
X13994Y1957D01*
X13997Y1961D01*
X14000Y1965D01*
X14002Y1969D01*
X14005Y1972D01*
X14008Y1975D01*
X14010Y1977D01*
X14012Y1979D01*
X14013Y1981D01*
X14014Y1981D01*
X14014Y1982D01*
X14010Y1986D01*
X14007Y1991D01*
X14003Y1995D01*
X14001Y1999D01*
X13998Y2004D01*
X13997Y2008D01*
X13994Y2016D01*
X13993Y2019D01*
X13992Y2023D01*
X13991Y2025D01*
X13991Y2028D01*
X13991Y2030D01*
Y2032D01*
Y2032D01*
Y2033D01*
X13991Y2038D01*
X13992Y2043D01*
X13993Y2048D01*
X13994Y2053D01*
X13998Y2061D01*
X14003Y2067D01*
X14008Y2073D01*
X14009Y2075D01*
X14011Y2076D01*
X14013Y2078D01*
X14014Y2079D01*
X14015Y2079D01*
X14015Y2080D01*
X14020Y2083D01*
X14025Y2086D01*
X14035Y2090D01*
X14045Y2093D01*
X14054Y2095D01*
X14058Y2096D01*
X14062Y2096D01*
X14066Y2097D01*
X14069D01*
X14072Y2097D01*
X14182D01*
Y1850D01*
D02*
G37*
G36*
X12676Y2095D02*
X12684Y2094D01*
X12692Y2092D01*
X12699Y2090D01*
X12705Y2086D01*
X12711Y2083D01*
X12716Y2079D01*
X12720Y2075D01*
X12724Y2072D01*
X12728Y2068D01*
X12730Y2064D01*
X12733Y2062D01*
X12734Y2059D01*
X12735Y2057D01*
X12736Y2055D01*
X12736Y2055D01*
X12739Y2049D01*
X12741Y2043D01*
X12743Y2036D01*
X12744Y2029D01*
X12747Y2015D01*
X12748Y2001D01*
X12749Y1995D01*
X12750Y1989D01*
X12750Y1983D01*
Y1979D01*
X12750Y1975D01*
Y1972D01*
Y1970D01*
Y1969D01*
Y1959D01*
X12750Y1949D01*
X12749Y1940D01*
X12748Y1932D01*
X12747Y1924D01*
X12746Y1917D01*
X12745Y1910D01*
X12743Y1905D01*
X12742Y1900D01*
X12741Y1895D01*
X12740Y1892D01*
X12739Y1889D01*
X12738Y1886D01*
X12737Y1885D01*
X12736Y1884D01*
Y1883D01*
X12732Y1876D01*
X12728Y1870D01*
X12723Y1865D01*
X12717Y1860D01*
X12712Y1856D01*
X12706Y1853D01*
X12700Y1850D01*
X12695Y1848D01*
X12689Y1846D01*
X12684Y1845D01*
X12679Y1844D01*
X12675Y1843D01*
X12672Y1843D01*
X12669Y1843D01*
X12667D01*
X12658Y1843D01*
X12650Y1845D01*
X12642Y1846D01*
X12635Y1849D01*
X12629Y1852D01*
X12623Y1855D01*
X12618Y1859D01*
X12614Y1863D01*
X12610Y1867D01*
X12607Y1870D01*
X12604Y1874D01*
X12602Y1877D01*
X12600Y1880D01*
X12599Y1881D01*
X12598Y1883D01*
X12598Y1883D01*
X12596Y1889D01*
X12594Y1895D01*
X12592Y1901D01*
X12590Y1908D01*
X12588Y1923D01*
X12586Y1937D01*
X12586Y1943D01*
X12586Y1949D01*
X12585Y1955D01*
Y1960D01*
X12585Y1964D01*
Y1967D01*
Y1968D01*
Y1969D01*
Y1980D01*
X12586Y1989D01*
X12586Y1999D01*
X12587Y2007D01*
X12588Y2015D01*
X12589Y2022D01*
X12590Y2028D01*
X12592Y2034D01*
X12593Y2039D01*
X12594Y2043D01*
X12595Y2047D01*
X12596Y2050D01*
X12597Y2052D01*
X12597Y2054D01*
X12598Y2055D01*
Y2055D01*
X12602Y2062D01*
X12606Y2068D01*
X12612Y2074D01*
X12617Y2079D01*
X12622Y2083D01*
X12628Y2086D01*
X12634Y2088D01*
X12640Y2091D01*
X12645Y2092D01*
X12651Y2094D01*
X12655Y2095D01*
X12659Y2095D01*
X12663Y2095D01*
X12665Y2096D01*
X12667D01*
X12676Y2095D01*
D02*
G37*
G36*
X14626Y6043D02*
X14421D01*
X14406Y6043D01*
X14392Y6044D01*
X14378Y6045D01*
X14365Y6047D01*
X14353Y6049D01*
X14341Y6052D01*
X14330Y6054D01*
X14320Y6056D01*
X14312Y6059D01*
X14304Y6061D01*
X14297Y6063D01*
X14292Y6066D01*
X14287Y6067D01*
X14284Y6069D01*
X14282Y6070D01*
X14281D01*
X14269Y6076D01*
X14258Y6083D01*
X14249Y6090D01*
X14241Y6098D01*
X14234Y6105D01*
X14228Y6112D01*
X14224Y6120D01*
X14220Y6127D01*
X14217Y6133D01*
X14214Y6140D01*
X14213Y6146D01*
X14212Y6150D01*
X14211Y6154D01*
X14211Y6157D01*
Y6159D01*
Y6159D01*
X14211Y6168D01*
X14213Y6176D01*
X14215Y6183D01*
X14218Y6190D01*
X14225Y6203D01*
X14233Y6214D01*
X14241Y6223D01*
X14245Y6227D01*
X14248Y6230D01*
X14251Y6232D01*
X14253Y6234D01*
X14255Y6235D01*
X14255Y6235D01*
X14265Y6242D01*
X14275Y6247D01*
X14285Y6252D01*
X14295Y6256D01*
X14304Y6260D01*
X14313Y6263D01*
X14322Y6265D01*
X14330Y6267D01*
X14338Y6269D01*
X14345Y6270D01*
X14351Y6270D01*
X14356Y6271D01*
X14360Y6271D01*
X14355D01*
X14348Y6273D01*
X14343Y6274D01*
X14338Y6275D01*
X14334Y6277D01*
X14332Y6278D01*
X14330Y6278D01*
X14330Y6279D01*
X14323Y6284D01*
X14318Y6289D01*
X14312Y6294D01*
X14308Y6299D01*
X14304Y6305D01*
X14301Y6310D01*
X14297Y6319D01*
X14294Y6328D01*
X14293Y6334D01*
X14292Y6337D01*
Y6338D01*
Y6340D01*
Y6340D01*
X14293Y6349D01*
X14295Y6358D01*
X14298Y6365D01*
X14302Y6373D01*
X14308Y6380D01*
X14313Y6386D01*
X14326Y6397D01*
X14332Y6402D01*
X14339Y6406D01*
X14344Y6410D01*
X14350Y6413D01*
X14354Y6415D01*
X14357Y6417D01*
X14360Y6417D01*
X14360Y6418D01*
X14379Y6425D01*
X14398Y6431D01*
X14416Y6435D01*
X14424Y6436D01*
X14431Y6437D01*
X14438Y6438D01*
X14444Y6439D01*
X14450Y6439D01*
X14455D01*
X14458Y6440D01*
X14626D01*
Y6043D01*
D02*
G37*
G36*
X11252Y6245D02*
X11437Y6043D01*
X11388Y6042D01*
X11227Y6220D01*
X11060Y6043D01*
X11013D01*
X11200Y6245D01*
X11021Y6440D01*
X11069D01*
X11226Y6270D01*
X11381Y6439D01*
X11428Y6440D01*
X11252Y6245D01*
D02*
G37*
G36*
X13947Y6043D02*
X13900Y6042D01*
X13830Y6159D01*
X13538D01*
X13466Y6043D01*
X13422D01*
X13683Y6452D01*
X13947Y6043D01*
D02*
G37*
G36*
X14189D02*
X13960D01*
Y6076D01*
X14139D01*
Y6440D01*
X14189D01*
Y6043D01*
D02*
G37*
G36*
X12894Y6043D02*
X12844D01*
Y6239D01*
X12834Y6246D01*
X12563Y6043D01*
X12512Y6042D01*
X12803Y6264D01*
X12527Y6440D01*
X12577Y6439D01*
X12844Y6273D01*
Y6440D01*
X12894D01*
Y6043D01*
D02*
G37*
G36*
X13678Y2036D02*
X13684Y2035D01*
X13689Y2034D01*
X13694Y2033D01*
X13698Y2032D01*
X13702Y2030D01*
X13706Y2029D01*
X13710Y2027D01*
X13713Y2026D01*
X13715Y2024D01*
X13717Y2023D01*
X13719Y2022D01*
X13720Y2021D01*
X13721Y2021D01*
X13721Y2021D01*
X13725Y2017D01*
X13728Y2014D01*
X13730Y2011D01*
X13733Y2008D01*
X13736Y2000D01*
X13739Y1994D01*
X13740Y1988D01*
X13740Y1985D01*
X13741Y1983D01*
X13741Y1981D01*
Y1980D01*
Y1979D01*
Y1979D01*
X13741Y1972D01*
X13740Y1966D01*
X13738Y1961D01*
X13736Y1956D01*
X13733Y1951D01*
X13730Y1948D01*
X13727Y1944D01*
X13723Y1941D01*
X13720Y1938D01*
X13717Y1937D01*
X13714Y1935D01*
X13711Y1933D01*
X13709Y1932D01*
X13707Y1932D01*
X13706Y1931D01*
X13706D01*
X13652Y1916D01*
X13648Y1914D01*
X13644Y1913D01*
X13641Y1912D01*
X13639Y1911D01*
X13638Y1910D01*
X13637Y1910D01*
X13636Y1909D01*
X13634Y1908D01*
X13633Y1906D01*
X13631Y1902D01*
X13631Y1900D01*
X13631Y1899D01*
Y1898D01*
Y1897D01*
X13631Y1894D01*
X13632Y1892D01*
X13633Y1889D01*
X13634Y1888D01*
X13636Y1886D01*
X13637Y1885D01*
X13638Y1884D01*
X13638Y1884D01*
X13641Y1882D01*
X13643Y1880D01*
X13646Y1880D01*
X13649Y1879D01*
X13652Y1878D01*
X13653Y1878D01*
X13655D01*
X13661Y1878D01*
X13666Y1879D01*
X13671Y1880D01*
X13676Y1881D01*
X13679Y1882D01*
X13681Y1883D01*
X13683Y1883D01*
X13684Y1884D01*
X13689Y1886D01*
X13693Y1890D01*
X13696Y1893D01*
X13698Y1897D01*
X13700Y1900D01*
X13701Y1902D01*
X13701Y1904D01*
Y1904D01*
X13748D01*
X13748Y1899D01*
X13747Y1894D01*
X13745Y1889D01*
X13744Y1885D01*
X13740Y1877D01*
X13735Y1870D01*
X13731Y1865D01*
X13727Y1861D01*
X13726Y1860D01*
X13725Y1859D01*
X13724Y1859D01*
X13724Y1858D01*
X13719Y1855D01*
X13714Y1853D01*
X13704Y1849D01*
X13693Y1846D01*
X13682Y1845D01*
X13677Y1844D01*
X13673Y1843D01*
X13669Y1843D01*
X13665D01*
X13662Y1842D01*
X13658D01*
X13652Y1843D01*
X13646Y1843D01*
X13635Y1845D01*
X13630Y1846D01*
X13626Y1848D01*
X13621Y1850D01*
X13618Y1851D01*
X13614Y1853D01*
X13611Y1854D01*
X13609Y1856D01*
X13607Y1857D01*
X13605Y1858D01*
X13604Y1859D01*
X13603Y1859D01*
X13603Y1860D01*
X13599Y1864D01*
X13596Y1867D01*
X13593Y1871D01*
X13590Y1875D01*
X13589Y1878D01*
X13587Y1882D01*
X13584Y1890D01*
X13583Y1896D01*
X13582Y1899D01*
X13582Y1901D01*
X13582Y1904D01*
Y1905D01*
Y1906D01*
Y1906D01*
X13582Y1913D01*
X13583Y1918D01*
X13585Y1924D01*
X13588Y1929D01*
X13591Y1933D01*
X13594Y1937D01*
X13598Y1940D01*
X13602Y1944D01*
X13606Y1946D01*
X13609Y1948D01*
X13613Y1950D01*
X13616Y1951D01*
X13618Y1952D01*
X13620Y1953D01*
X13622Y1953D01*
X13622D01*
X13690Y1972D01*
X13692Y1973D01*
X13693Y1975D01*
X13694Y1976D01*
X13694Y1978D01*
X13695Y1980D01*
X13695Y1981D01*
Y1983D01*
Y1983D01*
X13695Y1986D01*
X13694Y1988D01*
X13692Y1991D01*
X13690Y1992D01*
X13689Y1994D01*
X13688Y1995D01*
X13686Y1996D01*
X13686Y1996D01*
X13683Y1997D01*
X13680Y1999D01*
X13674Y2000D01*
X13672Y2000D01*
X13670Y2001D01*
X13668D01*
X13662Y2000D01*
X13656Y2000D01*
X13652Y1999D01*
X13648Y1997D01*
X13645Y1996D01*
X13642Y1995D01*
X13641Y1994D01*
X13641Y1993D01*
X13638Y1991D01*
X13635Y1987D01*
X13634Y1984D01*
X13633Y1981D01*
X13632Y1979D01*
Y1976D01*
Y1975D01*
Y1975D01*
X13587D01*
X13587Y1980D01*
X13588Y1985D01*
X13589Y1989D01*
X13590Y1993D01*
X13594Y2001D01*
X13598Y2008D01*
X13602Y2013D01*
X13605Y2017D01*
X13607Y2018D01*
X13607Y2019D01*
X13608Y2019D01*
X13609Y2020D01*
X13613Y2023D01*
X13617Y2025D01*
X13626Y2029D01*
X13636Y2033D01*
X13645Y2035D01*
X13649Y2035D01*
X13653Y2036D01*
X13656Y2036D01*
X13659D01*
X13662Y2037D01*
X13672D01*
X13678Y2036D01*
D02*
G37*
G36*
X13188Y6440D02*
X13209Y6438D01*
X13229Y6436D01*
X13249Y6432D01*
X13268Y6429D01*
X13285Y6424D01*
X13302Y6420D01*
X13316Y6415D01*
X13330Y6410D01*
X13343Y6406D01*
X13353Y6401D01*
X13362Y6397D01*
X13369Y6394D01*
X13374Y6392D01*
X13377Y6390D01*
X13378Y6389D01*
X13388Y6383D01*
X13397Y6378D01*
X13406Y6372D01*
X13413Y6366D01*
X13427Y6354D01*
X13439Y6341D01*
X13450Y6329D01*
X13459Y6316D01*
X13466Y6304D01*
X13471Y6293D01*
X13476Y6282D01*
X13478Y6272D01*
X13481Y6263D01*
X13483Y6255D01*
X13484Y6249D01*
X13484Y6244D01*
Y6241D01*
Y6240D01*
X13484Y6232D01*
X13483Y6224D01*
X13480Y6207D01*
X13474Y6193D01*
X13467Y6178D01*
X13459Y6165D01*
X13450Y6153D01*
X13441Y6141D01*
X13431Y6131D01*
X13421Y6122D01*
X13411Y6113D01*
X13402Y6106D01*
X13394Y6101D01*
X13387Y6096D01*
X13382Y6093D01*
X13378Y6091D01*
X13377Y6090D01*
X13359Y6081D01*
X13341Y6073D01*
X13322Y6066D01*
X13304Y6060D01*
X13286Y6056D01*
X13269Y6052D01*
X13252Y6048D01*
X13236Y6045D01*
X13221Y6043D01*
X13208Y6042D01*
X13196Y6041D01*
X13186Y6039D01*
X13177D01*
X13171Y6039D01*
X13166D01*
X13139Y6039D01*
X13127Y6040D01*
X13115Y6041D01*
X13104Y6041D01*
X13094Y6042D01*
X13084Y6043D01*
X13075Y6044D01*
X13067Y6045D01*
X13060Y6046D01*
X13054Y6047D01*
X13049Y6048D01*
X13045Y6048D01*
X13042Y6049D01*
X13040Y6049D01*
X13039D01*
X13021Y6053D01*
X13005Y6056D01*
X12991Y6059D01*
X12985Y6061D01*
X12979Y6063D01*
X12974Y6064D01*
X12969Y6066D01*
X12965Y6067D01*
X12961Y6068D01*
X12959Y6069D01*
X12957Y6069D01*
X12956Y6070D01*
X12955D01*
X12946Y6074D01*
X12937Y6078D01*
X12933Y6080D01*
X12930Y6081D01*
X12928Y6082D01*
X12927Y6083D01*
Y6113D01*
X12935Y6111D01*
X12942Y6109D01*
X12948Y6107D01*
X12953Y6105D01*
X12957Y6104D01*
X12960Y6102D01*
X12962Y6101D01*
X12962D01*
X12976Y6097D01*
X12990Y6092D01*
X13003Y6089D01*
X13015Y6086D01*
X13025Y6084D01*
X13030Y6083D01*
X13034Y6082D01*
X13037Y6081D01*
X13039D01*
X13041Y6080D01*
X13041D01*
X13061Y6077D01*
X13081Y6075D01*
X13101Y6073D01*
X13110Y6073D01*
X13119Y6072D01*
X13127Y6071D01*
X13141D01*
X13147Y6071D01*
X13166D01*
X13183Y6071D01*
X13201Y6073D01*
X13218Y6075D01*
X13234Y6077D01*
X13249Y6081D01*
X13264Y6084D01*
X13277Y6088D01*
X13290Y6092D01*
X13301Y6096D01*
X13312Y6099D01*
X13320Y6103D01*
X13328Y6106D01*
X13334Y6109D01*
X13339Y6111D01*
X13341Y6112D01*
X13342Y6113D01*
X13358Y6122D01*
X13372Y6132D01*
X13385Y6143D01*
X13396Y6153D01*
X13404Y6164D01*
X13412Y6174D01*
X13418Y6185D01*
X13423Y6194D01*
X13427Y6204D01*
X13430Y6212D01*
X13432Y6220D01*
X13433Y6227D01*
X13434Y6232D01*
X13435Y6236D01*
Y6239D01*
Y6239D01*
X13434Y6253D01*
X13431Y6267D01*
X13426Y6280D01*
X13420Y6292D01*
X13413Y6303D01*
X13405Y6313D01*
X13396Y6323D01*
X13387Y6331D01*
X13379Y6339D01*
X13371Y6346D01*
X13362Y6352D01*
X13355Y6357D01*
X13350Y6360D01*
X13345Y6363D01*
X13342Y6365D01*
X13341Y6365D01*
X13326Y6373D01*
X13310Y6379D01*
X13294Y6385D01*
X13279Y6390D01*
X13264Y6394D01*
X13250Y6397D01*
X13236Y6400D01*
X13222Y6402D01*
X13211Y6404D01*
X13200Y6405D01*
X13190Y6406D01*
X13182Y6407D01*
X13175Y6407D01*
X13166D01*
X13142Y6407D01*
X13119Y6406D01*
X13108Y6405D01*
X13098Y6404D01*
X13088Y6403D01*
X13078Y6402D01*
X13070Y6401D01*
X13063Y6400D01*
X13056Y6399D01*
X13051Y6398D01*
X13046Y6397D01*
X13043Y6397D01*
X13041Y6396D01*
X13040D01*
X13025Y6393D01*
X13010Y6390D01*
X12997Y6387D01*
X12986Y6385D01*
X12976Y6382D01*
X12972Y6380D01*
X12969Y6379D01*
X12967Y6379D01*
X12965Y6378D01*
X12964Y6378D01*
X12963D01*
X12958Y6376D01*
X12952Y6373D01*
X12946Y6372D01*
X12940Y6371D01*
X12935Y6369D01*
X12931Y6368D01*
X12929Y6367D01*
X12927D01*
Y6400D01*
X12933Y6402D01*
X12938Y6404D01*
X12943Y6407D01*
X12947Y6408D01*
X12950Y6410D01*
X12952Y6411D01*
X12953Y6411D01*
X12954D01*
X12967Y6416D01*
X12979Y6420D01*
X12992Y6423D01*
X13003Y6426D01*
X13013Y6428D01*
X13017Y6429D01*
X13020Y6429D01*
X13023Y6430D01*
X13025Y6431D01*
X13027D01*
X13048Y6434D01*
X13070Y6436D01*
X13092Y6438D01*
X13103Y6439D01*
X13113Y6439D01*
X13122Y6440D01*
X13130D01*
X13138Y6441D01*
X13166D01*
X13188Y6440D01*
D02*
G37*
G36*
X12497Y6043D02*
X12292D01*
X12277Y6043D01*
X12263Y6044D01*
X12249Y6045D01*
X12236Y6047D01*
X12224Y6049D01*
X12212Y6052D01*
X12202Y6054D01*
X12192Y6056D01*
X12183Y6059D01*
X12175Y6061D01*
X12168Y6063D01*
X12163Y6066D01*
X12159Y6067D01*
X12156Y6069D01*
X12153Y6070D01*
X12153D01*
X12140Y6076D01*
X12129Y6083D01*
X12120Y6090D01*
X12112Y6098D01*
X12105Y6105D01*
X12100Y6112D01*
X12095Y6120D01*
X12091Y6127D01*
X12088Y6133D01*
X12086Y6140D01*
X12084Y6146D01*
X12083Y6150D01*
X12083Y6154D01*
X12082Y6157D01*
Y6159D01*
Y6159D01*
X12083Y6168D01*
X12084Y6176D01*
X12086Y6183D01*
X12089Y6190D01*
X12096Y6203D01*
X12104Y6214D01*
X12112Y6223D01*
X12116Y6227D01*
X12119Y6230D01*
X12122Y6232D01*
X12125Y6234D01*
X12126Y6235D01*
X12126Y6235D01*
X12136Y6242D01*
X12146Y6247D01*
X12156Y6252D01*
X12166Y6256D01*
X12175Y6260D01*
X12185Y6263D01*
X12194Y6265D01*
X12202Y6267D01*
X12209Y6269D01*
X12216Y6270D01*
X12222Y6270D01*
X12227Y6271D01*
X12231Y6271D01*
X12226D01*
X12220Y6273D01*
X12214Y6274D01*
X12209Y6275D01*
X12206Y6277D01*
X12203Y6278D01*
X12202Y6278D01*
X12201Y6279D01*
X12195Y6284D01*
X12189Y6289D01*
X12184Y6294D01*
X12179Y6299D01*
X12175Y6305D01*
X12173Y6310D01*
X12168Y6319D01*
X12165Y6328D01*
X12164Y6334D01*
X12163Y6337D01*
Y6338D01*
Y6340D01*
Y6340D01*
X12164Y6349D01*
X12166Y6358D01*
X12170Y6365D01*
X12174Y6373D01*
X12179Y6380D01*
X12185Y6386D01*
X12197Y6397D01*
X12203Y6402D01*
X12210Y6406D01*
X12216Y6410D01*
X12221Y6413D01*
X12225Y6415D01*
X12228Y6417D01*
X12231Y6417D01*
X12231Y6418D01*
X12251Y6425D01*
X12269Y6431D01*
X12287Y6435D01*
X12295Y6436D01*
X12302Y6437D01*
X12309Y6438D01*
X12315Y6439D01*
X12321Y6439D01*
X12326D01*
X12329Y6440D01*
X12497D01*
Y6043D01*
D02*
G37*
G36*
X14436Y1491D02*
X14415D01*
X14344Y1738D01*
X14365D01*
X14436Y1491D01*
D02*
G37*
G36*
X14729Y1741D02*
X14737Y1740D01*
X14745Y1738D01*
X14752Y1735D01*
X14758Y1732D01*
X14764Y1729D01*
X14769Y1725D01*
X14773Y1721D01*
X14777Y1717D01*
X14781Y1713D01*
X14783Y1710D01*
X14786Y1707D01*
X14787Y1704D01*
X14788Y1702D01*
X14789Y1701D01*
X14789Y1701D01*
X14792Y1695D01*
X14794Y1689D01*
X14796Y1682D01*
X14797Y1675D01*
X14800Y1661D01*
X14801Y1647D01*
X14802Y1641D01*
X14802Y1634D01*
X14803Y1629D01*
Y1624D01*
X14803Y1620D01*
Y1617D01*
Y1615D01*
Y1615D01*
Y1605D01*
X14802Y1595D01*
X14802Y1586D01*
X14801Y1577D01*
X14800Y1570D01*
X14799Y1562D01*
X14798Y1556D01*
X14796Y1550D01*
X14795Y1545D01*
X14794Y1541D01*
X14793Y1537D01*
X14792Y1534D01*
X14790Y1532D01*
X14790Y1530D01*
X14789Y1529D01*
Y1529D01*
X14785Y1522D01*
X14781Y1515D01*
X14776Y1510D01*
X14770Y1506D01*
X14765Y1502D01*
X14759Y1498D01*
X14753Y1496D01*
X14747Y1494D01*
X14742Y1492D01*
X14737Y1491D01*
X14732Y1490D01*
X14728Y1489D01*
X14725Y1489D01*
X14722Y1488D01*
X14720D01*
X14711Y1489D01*
X14703Y1490D01*
X14695Y1492D01*
X14688Y1495D01*
X14682Y1498D01*
X14676Y1501D01*
X14671Y1505D01*
X14667Y1509D01*
X14663Y1512D01*
X14660Y1516D01*
X14657Y1519D01*
X14655Y1523D01*
X14653Y1525D01*
X14652Y1527D01*
X14651Y1528D01*
X14651Y1529D01*
X14649Y1534D01*
X14647Y1540D01*
X14645Y1547D01*
X14643Y1554D01*
X14641Y1568D01*
X14639Y1582D01*
X14639Y1589D01*
X14639Y1595D01*
X14638Y1601D01*
Y1605D01*
X14638Y1609D01*
Y1612D01*
Y1614D01*
Y1615D01*
Y1625D01*
X14639Y1635D01*
X14639Y1644D01*
X14640Y1653D01*
X14641Y1660D01*
X14642Y1668D01*
X14643Y1674D01*
X14644Y1680D01*
X14646Y1684D01*
X14647Y1689D01*
X14648Y1692D01*
X14649Y1696D01*
X14650Y1698D01*
X14650Y1699D01*
X14651Y1700D01*
Y1701D01*
X14655Y1708D01*
X14659Y1714D01*
X14664Y1720D01*
X14670Y1724D01*
X14675Y1728D01*
X14681Y1732D01*
X14687Y1734D01*
X14692Y1736D01*
X14698Y1738D01*
X14703Y1739D01*
X14708Y1740D01*
X14712Y1741D01*
X14715Y1741D01*
X14718Y1741D01*
X14720D01*
X14729Y1741D01*
D02*
G37*
G36*
X14070D02*
X14078Y1740D01*
X14086Y1738D01*
X14093Y1735D01*
X14100Y1732D01*
X14105Y1729D01*
X14110Y1725D01*
X14114Y1721D01*
X14118Y1717D01*
X14122Y1713D01*
X14124Y1710D01*
X14127Y1707D01*
X14128Y1704D01*
X14129Y1702D01*
X14130Y1701D01*
X14130Y1701D01*
X14133Y1695D01*
X14135Y1689D01*
X14137Y1682D01*
X14138Y1675D01*
X14141Y1661D01*
X14142Y1647D01*
X14143Y1641D01*
X14144Y1634D01*
X14144Y1629D01*
Y1624D01*
X14144Y1620D01*
Y1617D01*
Y1615D01*
Y1615D01*
Y1605D01*
X14144Y1595D01*
X14143Y1586D01*
X14142Y1577D01*
X14141Y1570D01*
X14140Y1562D01*
X14139Y1556D01*
X14137Y1550D01*
X14136Y1545D01*
X14135Y1541D01*
X14134Y1537D01*
X14133Y1534D01*
X14132Y1532D01*
X14131Y1530D01*
X14130Y1529D01*
Y1529D01*
X14126Y1522D01*
X14122Y1515D01*
X14117Y1510D01*
X14112Y1506D01*
X14106Y1502D01*
X14100Y1498D01*
X14094Y1496D01*
X14089Y1494D01*
X14083Y1492D01*
X14078Y1491D01*
X14073Y1490D01*
X14069Y1489D01*
X14066Y1489D01*
X14064Y1488D01*
X14061D01*
X14052Y1489D01*
X14044Y1490D01*
X14036Y1492D01*
X14029Y1495D01*
X14023Y1498D01*
X14017Y1501D01*
X14012Y1505D01*
X14008Y1509D01*
X14004Y1512D01*
X14001Y1516D01*
X13998Y1519D01*
X13996Y1523D01*
X13994Y1525D01*
X13993Y1527D01*
X13993Y1528D01*
X13992Y1529D01*
X13990Y1534D01*
X13988Y1540D01*
X13986Y1547D01*
X13985Y1554D01*
X13982Y1568D01*
X13981Y1582D01*
X13980Y1589D01*
X13980Y1595D01*
X13979Y1601D01*
Y1605D01*
X13979Y1609D01*
Y1612D01*
Y1614D01*
Y1615D01*
Y1625D01*
X13980Y1635D01*
X13980Y1644D01*
X13981Y1653D01*
X13982Y1660D01*
X13983Y1668D01*
X13985Y1674D01*
X13986Y1680D01*
X13987Y1684D01*
X13988Y1689D01*
X13989Y1692D01*
X13990Y1696D01*
X13991Y1698D01*
X13991Y1699D01*
X13992Y1700D01*
Y1701D01*
X13996Y1708D01*
X14001Y1714D01*
X14006Y1720D01*
X14011Y1724D01*
X14017Y1728D01*
X14022Y1732D01*
X14028Y1734D01*
X14034Y1736D01*
X14039Y1738D01*
X14045Y1739D01*
X14049Y1740D01*
X14053Y1741D01*
X14057Y1741D01*
X14059Y1741D01*
X14061D01*
X14070Y1741D01*
D02*
G37*
G36*
X13872Y1728D02*
X13876Y1721D01*
X13881Y1715D01*
X13885Y1711D01*
X13889Y1707D01*
X13892Y1705D01*
X13894Y1704D01*
X13894Y1703D01*
X13895D01*
X13898Y1702D01*
X13901Y1701D01*
X13908Y1698D01*
X13916Y1697D01*
X13924Y1695D01*
X13931Y1694D01*
X13935Y1694D01*
X13938Y1693D01*
X13940Y1693D01*
X13942Y1693D01*
X13943D01*
Y1662D01*
X13886D01*
Y1496D01*
X13838D01*
Y1736D01*
X13868D01*
X13872Y1728D01*
D02*
G37*
G36*
X14258Y1741D02*
X14264Y1740D01*
X14270Y1739D01*
X14275Y1738D01*
X14280Y1736D01*
X14285Y1734D01*
X14290Y1733D01*
X14293Y1730D01*
X14297Y1728D01*
X14300Y1726D01*
X14302Y1725D01*
X14304Y1723D01*
X14306Y1722D01*
X14307Y1721D01*
X14308Y1720D01*
X14308Y1720D01*
X14312Y1715D01*
X14315Y1710D01*
X14318Y1705D01*
X14320Y1700D01*
X14323Y1694D01*
X14324Y1688D01*
X14326Y1678D01*
X14327Y1673D01*
X14328Y1668D01*
X14328Y1664D01*
X14328Y1660D01*
Y1657D01*
Y1655D01*
Y1653D01*
Y1653D01*
X14283D01*
Y1662D01*
X14282Y1669D01*
X14281Y1676D01*
X14279Y1682D01*
X14276Y1686D01*
X14274Y1690D01*
X14270Y1694D01*
X14267Y1696D01*
X14264Y1698D01*
X14261Y1700D01*
X14258Y1701D01*
X14256Y1702D01*
X14254Y1702D01*
X14252Y1702D01*
X14250D01*
X14245Y1702D01*
X14240Y1701D01*
X14236Y1699D01*
X14233Y1697D01*
X14230Y1695D01*
X14228Y1693D01*
X14227Y1692D01*
X14226Y1692D01*
X14223Y1688D01*
X14220Y1683D01*
X14219Y1678D01*
X14217Y1674D01*
X14217Y1670D01*
X14216Y1668D01*
Y1665D01*
Y1665D01*
Y1665D01*
X14217Y1660D01*
X14218Y1654D01*
X14220Y1649D01*
X14221Y1644D01*
X14224Y1639D01*
X14227Y1635D01*
X14233Y1627D01*
X14236Y1623D01*
X14240Y1620D01*
X14242Y1618D01*
X14245Y1615D01*
X14247Y1613D01*
X14249Y1612D01*
X14250Y1611D01*
X14250Y1611D01*
X14303Y1570D01*
X14308Y1566D01*
X14312Y1561D01*
X14316Y1555D01*
X14319Y1550D01*
X14322Y1544D01*
X14324Y1538D01*
X14327Y1526D01*
X14329Y1520D01*
X14330Y1514D01*
X14331Y1509D01*
X14331Y1505D01*
X14332Y1501D01*
Y1498D01*
X14332Y1497D01*
Y1496D01*
X14168D01*
Y1538D01*
X14270D01*
X14268Y1543D01*
X14264Y1548D01*
X14261Y1552D01*
X14257Y1556D01*
X14254Y1559D01*
X14251Y1561D01*
X14250Y1563D01*
X14249Y1563D01*
X14237Y1572D01*
X14232Y1576D01*
X14227Y1580D01*
X14223Y1583D01*
X14220Y1585D01*
X14217Y1587D01*
X14217Y1587D01*
X14211Y1592D01*
X14205Y1597D01*
X14201Y1601D01*
X14196Y1605D01*
X14193Y1609D01*
X14191Y1611D01*
X14189Y1613D01*
X14188Y1614D01*
X14184Y1619D01*
X14181Y1623D01*
X14178Y1627D01*
X14176Y1630D01*
X14175Y1633D01*
X14173Y1634D01*
X14173Y1635D01*
Y1636D01*
X14171Y1641D01*
X14170Y1646D01*
X14169Y1651D01*
X14169Y1657D01*
Y1661D01*
X14168Y1665D01*
Y1667D01*
Y1668D01*
Y1669D01*
Y1669D01*
X14169Y1675D01*
X14169Y1680D01*
X14171Y1686D01*
X14172Y1691D01*
X14176Y1700D01*
X14178Y1704D01*
X14180Y1707D01*
X14182Y1710D01*
X14184Y1713D01*
X14186Y1716D01*
X14188Y1717D01*
X14189Y1719D01*
X14190Y1720D01*
X14191Y1721D01*
X14191Y1721D01*
X14196Y1725D01*
X14200Y1728D01*
X14205Y1730D01*
X14210Y1733D01*
X14220Y1736D01*
X14229Y1739D01*
X14234Y1740D01*
X14238Y1740D01*
X14241Y1741D01*
X14244Y1741D01*
X14247Y1741D01*
X14251D01*
X14258Y1741D01*
D02*
G37*
G36*
X14535D02*
X14542Y1740D01*
X14548Y1738D01*
X14555Y1736D01*
X14560Y1734D01*
X14565Y1731D01*
X14570Y1728D01*
X14575Y1725D01*
X14579Y1722D01*
X14582Y1719D01*
X14585Y1716D01*
X14587Y1713D01*
X14589Y1711D01*
X14591Y1710D01*
X14591Y1709D01*
X14592Y1708D01*
X14596Y1702D01*
X14599Y1696D01*
X14602Y1690D01*
X14604Y1683D01*
X14607Y1677D01*
X14608Y1670D01*
X14611Y1658D01*
X14612Y1652D01*
X14613Y1646D01*
X14613Y1642D01*
X14614Y1638D01*
X14614Y1634D01*
Y1632D01*
Y1630D01*
Y1630D01*
Y1618D01*
X14614Y1608D01*
X14613Y1598D01*
X14612Y1589D01*
X14611Y1580D01*
X14610Y1573D01*
X14609Y1566D01*
X14608Y1559D01*
X14607Y1554D01*
X14605Y1549D01*
X14605Y1545D01*
X14604Y1542D01*
X14603Y1539D01*
X14602Y1537D01*
X14602Y1536D01*
Y1536D01*
X14598Y1527D01*
X14593Y1520D01*
X14588Y1514D01*
X14583Y1508D01*
X14577Y1504D01*
X14571Y1500D01*
X14565Y1496D01*
X14560Y1494D01*
X14554Y1492D01*
X14549Y1491D01*
X14544Y1490D01*
X14540Y1489D01*
X14536Y1488D01*
X14534Y1488D01*
X14532D01*
X14525Y1488D01*
X14518Y1489D01*
X14512Y1490D01*
X14506Y1492D01*
X14501Y1494D01*
X14496Y1496D01*
X14491Y1498D01*
X14487Y1500D01*
X14484Y1503D01*
X14480Y1505D01*
X14478Y1507D01*
X14475Y1509D01*
X14473Y1511D01*
X14472Y1512D01*
X14472Y1512D01*
X14471Y1513D01*
X14467Y1518D01*
X14464Y1523D01*
X14461Y1528D01*
X14458Y1533D01*
X14456Y1538D01*
X14455Y1543D01*
X14452Y1553D01*
X14451Y1558D01*
X14450Y1562D01*
X14450Y1566D01*
X14450Y1569D01*
X14449Y1572D01*
Y1574D01*
Y1575D01*
Y1575D01*
X14450Y1582D01*
X14450Y1589D01*
X14451Y1595D01*
X14453Y1601D01*
X14454Y1606D01*
X14456Y1611D01*
X14458Y1616D01*
X14460Y1620D01*
X14461Y1623D01*
X14463Y1626D01*
X14465Y1629D01*
X14466Y1631D01*
X14468Y1633D01*
X14469Y1634D01*
X14469Y1634D01*
X14470Y1635D01*
X14474Y1638D01*
X14478Y1642D01*
X14482Y1644D01*
X14487Y1646D01*
X14496Y1650D01*
X14505Y1653D01*
X14509Y1653D01*
X14513Y1654D01*
X14516Y1654D01*
X14519Y1655D01*
X14522Y1655D01*
X14525D01*
X14529Y1655D01*
X14533Y1654D01*
X14540Y1652D01*
X14547Y1649D01*
X14553Y1646D01*
X14559Y1642D01*
X14561Y1641D01*
X14563Y1639D01*
X14565Y1638D01*
X14566Y1637D01*
X14567Y1637D01*
X14567Y1636D01*
X14568Y1642D01*
Y1645D01*
X14568Y1648D01*
Y1650D01*
Y1651D01*
Y1652D01*
Y1653D01*
X14568Y1661D01*
X14566Y1668D01*
X14565Y1674D01*
X14563Y1680D01*
X14561Y1684D01*
X14559Y1687D01*
X14558Y1689D01*
X14557Y1689D01*
X14553Y1694D01*
X14549Y1698D01*
X14544Y1700D01*
X14540Y1702D01*
X14536Y1703D01*
X14532Y1703D01*
X14530Y1704D01*
X14529D01*
X14525Y1703D01*
X14521Y1702D01*
X14517Y1701D01*
X14514Y1700D01*
X14509Y1697D01*
X14504Y1693D01*
X14501Y1688D01*
X14499Y1685D01*
X14498Y1684D01*
X14498Y1682D01*
X14497Y1682D01*
Y1681D01*
X14454D01*
X14454Y1686D01*
X14455Y1691D01*
X14458Y1700D01*
X14461Y1707D01*
X14465Y1714D01*
X14469Y1718D01*
X14472Y1722D01*
X14475Y1724D01*
X14475Y1725D01*
X14476D01*
X14480Y1728D01*
X14484Y1730D01*
X14492Y1734D01*
X14501Y1737D01*
X14509Y1739D01*
X14516Y1741D01*
X14519Y1741D01*
X14522D01*
X14524Y1741D01*
X14527D01*
X14535Y1741D01*
D02*
G37*
G36*
X13687D02*
X13695Y1740D01*
X13701Y1738D01*
X13708Y1736D01*
X13713Y1734D01*
X13718Y1731D01*
X13723Y1728D01*
X13728Y1725D01*
X13732Y1722D01*
X13735Y1719D01*
X13738Y1716D01*
X13740Y1713D01*
X13742Y1711D01*
X13744Y1710D01*
X13744Y1709D01*
X13745Y1708D01*
X13749Y1702D01*
X13752Y1696D01*
X13755Y1690D01*
X13757Y1683D01*
X13760Y1677D01*
X13761Y1670D01*
X13764Y1658D01*
X13765Y1652D01*
X13766Y1646D01*
X13766Y1642D01*
X13766Y1638D01*
X13767Y1634D01*
Y1632D01*
Y1630D01*
Y1630D01*
Y1618D01*
X13766Y1608D01*
X13766Y1598D01*
X13765Y1589D01*
X13764Y1580D01*
X13763Y1573D01*
X13762Y1566D01*
X13761Y1559D01*
X13760Y1554D01*
X13758Y1549D01*
X13758Y1545D01*
X13757Y1542D01*
X13756Y1539D01*
X13755Y1537D01*
X13755Y1536D01*
Y1536D01*
X13751Y1527D01*
X13746Y1520D01*
X13741Y1514D01*
X13736Y1508D01*
X13730Y1504D01*
X13724Y1500D01*
X13718Y1496D01*
X13713Y1494D01*
X13707Y1492D01*
X13702Y1491D01*
X13697Y1490D01*
X13693Y1489D01*
X13689Y1488D01*
X13687Y1488D01*
X13685D01*
X13678Y1488D01*
X13671Y1489D01*
X13665Y1490D01*
X13659Y1492D01*
X13654Y1494D01*
X13649Y1496D01*
X13644Y1498D01*
X13640Y1500D01*
X13637Y1503D01*
X13633Y1505D01*
X13631Y1507D01*
X13628Y1509D01*
X13626Y1511D01*
X13625Y1512D01*
X13625Y1512D01*
X13624Y1513D01*
X13620Y1518D01*
X13617Y1523D01*
X13614Y1528D01*
X13611Y1533D01*
X13609Y1538D01*
X13608Y1543D01*
X13605Y1553D01*
X13604Y1558D01*
X13603Y1562D01*
X13603Y1566D01*
X13603Y1569D01*
X13602Y1572D01*
Y1574D01*
Y1575D01*
Y1575D01*
X13603Y1582D01*
X13603Y1589D01*
X13604Y1595D01*
X13606Y1601D01*
X13607Y1606D01*
X13609Y1611D01*
X13611Y1616D01*
X13613Y1620D01*
X13614Y1623D01*
X13616Y1626D01*
X13618Y1629D01*
X13619Y1631D01*
X13621Y1633D01*
X13622Y1634D01*
X13622Y1634D01*
X13623Y1635D01*
X13627Y1638D01*
X13631Y1642D01*
X13635Y1644D01*
X13640Y1646D01*
X13649Y1650D01*
X13658Y1653D01*
X13662Y1653D01*
X13666Y1654D01*
X13669Y1654D01*
X13672Y1655D01*
X13675Y1655D01*
X13678D01*
X13682Y1655D01*
X13686Y1654D01*
X13693Y1652D01*
X13700Y1649D01*
X13706Y1646D01*
X13712Y1642D01*
X13714Y1641D01*
X13716Y1639D01*
X13718Y1638D01*
X13719Y1637D01*
X13720Y1637D01*
X13720Y1636D01*
X13721Y1642D01*
Y1645D01*
X13721Y1648D01*
Y1650D01*
Y1651D01*
Y1652D01*
Y1653D01*
X13721Y1661D01*
X13719Y1668D01*
X13718Y1674D01*
X13716Y1680D01*
X13714Y1684D01*
X13712Y1687D01*
X13711Y1689D01*
X13710Y1689D01*
X13706Y1694D01*
X13702Y1698D01*
X13697Y1700D01*
X13693Y1702D01*
X13689Y1703D01*
X13685Y1703D01*
X13683Y1704D01*
X13682D01*
X13678Y1703D01*
X13674Y1702D01*
X13670Y1701D01*
X13667Y1700D01*
X13662Y1697D01*
X13657Y1693D01*
X13654Y1688D01*
X13652Y1685D01*
X13651Y1684D01*
X13651Y1682D01*
X13650Y1682D01*
Y1681D01*
X13607D01*
X13607Y1686D01*
X13608Y1691D01*
X13611Y1700D01*
X13614Y1707D01*
X13618Y1714D01*
X13622Y1718D01*
X13625Y1722D01*
X13628Y1724D01*
X13628Y1725D01*
X13629D01*
X13633Y1728D01*
X13637Y1730D01*
X13645Y1734D01*
X13654Y1737D01*
X13662Y1739D01*
X13669Y1741D01*
X13672Y1741D01*
X13675D01*
X13677Y1741D01*
X13680D01*
X13687Y1741D01*
D02*
G37*
G36*
X14320Y2036D02*
X14326Y2035D01*
X14332Y2034D01*
X14337Y2033D01*
X14342Y2032D01*
X14346Y2030D01*
X14350Y2029D01*
X14353Y2027D01*
X14356Y2026D01*
X14358Y2024D01*
X14360Y2023D01*
X14362Y2022D01*
X14363Y2021D01*
X14363Y2021D01*
X14363Y2021D01*
X14367Y2017D01*
X14369Y2014D01*
X14374Y2007D01*
X14377Y1999D01*
X14380Y1991D01*
X14381Y1984D01*
X14382Y1981D01*
X14382Y1978D01*
Y1976D01*
X14383Y1974D01*
Y1973D01*
Y1973D01*
X14338D01*
X14337Y1978D01*
X14336Y1983D01*
X14334Y1987D01*
X14332Y1990D01*
X14330Y1993D01*
X14327Y1995D01*
X14324Y1997D01*
X14321Y1999D01*
X14315Y2001D01*
X14312Y2001D01*
X14310Y2002D01*
X14308D01*
X14306Y2002D01*
X14305D01*
X14299Y2002D01*
X14295Y2001D01*
X14291Y2000D01*
X14287Y1999D01*
X14285Y1998D01*
X14282Y1996D01*
X14281Y1995D01*
X14279Y1993D01*
X14277Y1989D01*
X14276Y1987D01*
X14275Y1984D01*
Y1984D01*
Y1984D01*
X14276Y1980D01*
X14277Y1977D01*
X14278Y1974D01*
X14279Y1972D01*
X14281Y1970D01*
X14282Y1969D01*
X14283Y1968D01*
X14283Y1968D01*
X14286Y1966D01*
X14289Y1965D01*
X14296Y1963D01*
X14299Y1962D01*
X14302Y1961D01*
X14303Y1961D01*
X14304D01*
X14313Y1960D01*
X14320Y1958D01*
X14326Y1958D01*
X14331Y1957D01*
X14335Y1957D01*
X14338Y1956D01*
X14339Y1956D01*
X14340D01*
X14348Y1954D01*
X14355Y1951D01*
X14361Y1948D01*
X14366Y1945D01*
X14370Y1941D01*
X14373Y1939D01*
X14374Y1937D01*
X14375Y1937D01*
Y1936D01*
X14380Y1930D01*
X14383Y1924D01*
X14385Y1917D01*
X14386Y1912D01*
X14388Y1906D01*
X14388Y1902D01*
X14388Y1901D01*
Y1900D01*
Y1899D01*
Y1898D01*
X14388Y1889D01*
X14386Y1881D01*
X14384Y1873D01*
X14381Y1867D01*
X14379Y1863D01*
X14377Y1859D01*
X14375Y1858D01*
X14374Y1857D01*
X14369Y1852D01*
X14362Y1849D01*
X14355Y1846D01*
X14349Y1844D01*
X14343Y1843D01*
X14341Y1843D01*
X14339D01*
X14337Y1842D01*
X14334D01*
X14328Y1843D01*
X14322Y1843D01*
X14317Y1845D01*
X14311Y1846D01*
X14301Y1850D01*
X14297Y1853D01*
X14293Y1855D01*
X14289Y1858D01*
X14286Y1860D01*
X14283Y1862D01*
X14280Y1864D01*
X14278Y1866D01*
X14277Y1867D01*
X14276Y1868D01*
X14276Y1868D01*
X14275Y1864D01*
X14274Y1860D01*
X14273Y1857D01*
X14273Y1854D01*
X14272Y1853D01*
X14271Y1851D01*
X14271Y1851D01*
Y1850D01*
X14220D01*
Y1856D01*
X14224Y1859D01*
X14226Y1863D01*
X14228Y1867D01*
X14229Y1870D01*
X14230Y1873D01*
X14231Y1875D01*
Y1877D01*
Y1877D01*
Y1978D01*
X14231Y1984D01*
X14231Y1988D01*
X14232Y1993D01*
X14234Y1997D01*
X14238Y2005D01*
X14243Y2012D01*
X14248Y2018D01*
X14255Y2023D01*
X14262Y2026D01*
X14268Y2029D01*
X14276Y2032D01*
X14283Y2034D01*
X14289Y2035D01*
X14295Y2036D01*
X14300Y2036D01*
X14303Y2037D01*
X14314D01*
X14320Y2036D01*
D02*
G37*
G36*
X14843Y1924D02*
X14842Y1918D01*
X14841Y1912D01*
X14840Y1906D01*
X14838Y1901D01*
X14834Y1892D01*
X14831Y1888D01*
X14829Y1884D01*
X14826Y1880D01*
X14824Y1877D01*
X14821Y1874D01*
X14820Y1872D01*
X14818Y1870D01*
X14816Y1868D01*
X14816Y1867D01*
X14815Y1867D01*
X14810Y1863D01*
X14805Y1859D01*
X14799Y1856D01*
X14793Y1853D01*
X14788Y1851D01*
X14782Y1849D01*
X14772Y1846D01*
X14767Y1845D01*
X14762Y1844D01*
X14758Y1843D01*
X14755Y1843D01*
X14752Y1843D01*
X14749D01*
X14740Y1843D01*
X14731Y1844D01*
X14723Y1845D01*
X14715Y1847D01*
X14708Y1849D01*
X14702Y1851D01*
X14696Y1853D01*
X14691Y1855D01*
X14686Y1858D01*
X14682Y1860D01*
X14678Y1862D01*
X14675Y1864D01*
X14673Y1866D01*
X14672Y1867D01*
X14671Y1868D01*
X14670Y1868D01*
X14666Y1873D01*
X14663Y1877D01*
X14659Y1881D01*
X14657Y1886D01*
X14654Y1890D01*
X14653Y1894D01*
X14650Y1902D01*
X14649Y1906D01*
X14648Y1909D01*
X14647Y1912D01*
X14647Y1915D01*
X14647Y1917D01*
Y1918D01*
Y1920D01*
Y1920D01*
Y2097D01*
X14698D01*
Y1923D01*
X14698Y1917D01*
X14700Y1911D01*
X14702Y1906D01*
X14705Y1902D01*
X14709Y1899D01*
X14713Y1896D01*
X14718Y1893D01*
X14722Y1892D01*
X14727Y1890D01*
X14732Y1889D01*
X14736Y1888D01*
X14740Y1888D01*
X14743Y1888D01*
X14745Y1887D01*
X14748D01*
X14754Y1888D01*
X14760Y1889D01*
X14766Y1890D01*
X14770Y1892D01*
X14774Y1894D01*
X14777Y1896D01*
X14778Y1897D01*
X14779Y1897D01*
X14783Y1901D01*
X14786Y1906D01*
X14789Y1910D01*
X14790Y1914D01*
X14791Y1917D01*
X14791Y1920D01*
X14792Y1922D01*
Y1923D01*
Y2097D01*
X14843D01*
Y1924D01*
D02*
G37*
%LPC*%
G36*
X14576Y6407D02*
X14460D01*
X14445Y6406D01*
X14430Y6404D01*
X14416Y6400D01*
X14404Y6397D01*
X14399Y6395D01*
X14395Y6393D01*
X14390Y6392D01*
X14386Y6390D01*
X14384Y6389D01*
X14382Y6387D01*
X14381Y6387D01*
X14380D01*
X14373Y6383D01*
X14367Y6379D01*
X14362Y6375D01*
X14358Y6371D01*
X14354Y6367D01*
X14351Y6364D01*
X14346Y6356D01*
X14343Y6350D01*
X14342Y6345D01*
X14341Y6341D01*
Y6341D01*
Y6340D01*
X14342Y6336D01*
X14343Y6331D01*
X14345Y6327D01*
X14347Y6323D01*
X14354Y6316D01*
X14361Y6309D01*
X14368Y6303D01*
X14374Y6299D01*
X14376Y6298D01*
X14378Y6297D01*
X14379Y6296D01*
X14380D01*
X14394Y6290D01*
X14407Y6285D01*
X14420Y6282D01*
X14432Y6280D01*
X14441Y6278D01*
X14446Y6278D01*
X14449D01*
X14452Y6277D01*
X14576D01*
Y6407D01*
D02*
G37*
G36*
X14722Y1698D02*
X14720D01*
X14716Y1698D01*
X14712Y1697D01*
X14709Y1696D01*
X14706Y1695D01*
X14700Y1692D01*
X14696Y1688D01*
X14693Y1684D01*
X14691Y1681D01*
X14691Y1679D01*
X14690Y1678D01*
X14690Y1678D01*
Y1677D01*
X14689Y1674D01*
X14688Y1670D01*
X14688Y1666D01*
X14687Y1661D01*
X14686Y1651D01*
X14686Y1641D01*
X14686Y1635D01*
Y1631D01*
X14685Y1626D01*
Y1622D01*
Y1619D01*
Y1617D01*
Y1615D01*
Y1615D01*
Y1606D01*
X14686Y1598D01*
Y1591D01*
X14686Y1585D01*
X14686Y1579D01*
X14687Y1574D01*
X14687Y1569D01*
X14687Y1566D01*
X14688Y1562D01*
X14688Y1559D01*
X14689Y1557D01*
X14689Y1555D01*
X14690Y1554D01*
Y1553D01*
X14690Y1552D01*
Y1552D01*
X14691Y1548D01*
X14693Y1546D01*
X14695Y1543D01*
X14698Y1540D01*
X14702Y1537D01*
X14707Y1534D01*
X14712Y1533D01*
X14717Y1532D01*
X14718Y1532D01*
X14720D01*
X14725Y1532D01*
X14728Y1532D01*
X14735Y1535D01*
X14740Y1538D01*
X14744Y1542D01*
X14747Y1546D01*
X14749Y1549D01*
X14750Y1551D01*
X14751Y1552D01*
Y1552D01*
X14751Y1555D01*
X14753Y1559D01*
X14753Y1564D01*
X14754Y1568D01*
X14755Y1579D01*
X14755Y1589D01*
X14755Y1594D01*
Y1599D01*
X14756Y1603D01*
Y1607D01*
Y1610D01*
Y1613D01*
Y1614D01*
Y1615D01*
Y1623D01*
X14755Y1631D01*
Y1638D01*
X14755Y1645D01*
X14755Y1650D01*
X14754Y1655D01*
X14754Y1660D01*
X14753Y1664D01*
X14753Y1667D01*
X14753Y1670D01*
X14752Y1672D01*
X14752Y1674D01*
X14751Y1676D01*
Y1677D01*
X14751Y1677D01*
X14750Y1681D01*
X14748Y1684D01*
X14746Y1687D01*
X14743Y1689D01*
X14741Y1692D01*
X14738Y1693D01*
X14733Y1696D01*
X14728Y1697D01*
X14724Y1698D01*
X14722Y1698D01*
D02*
G37*
G36*
X14064D02*
X14061D01*
X14057Y1698D01*
X14053Y1697D01*
X14050Y1696D01*
X14047Y1695D01*
X14041Y1692D01*
X14037Y1688D01*
X14034Y1684D01*
X14033Y1681D01*
X14032Y1679D01*
X14031Y1678D01*
X14031Y1678D01*
Y1677D01*
X14030Y1674D01*
X14030Y1670D01*
X14029Y1666D01*
X14028Y1661D01*
X14027Y1651D01*
X14027Y1641D01*
X14027Y1635D01*
Y1631D01*
X14026Y1626D01*
Y1622D01*
Y1619D01*
Y1617D01*
Y1615D01*
Y1615D01*
Y1606D01*
X14027Y1598D01*
Y1591D01*
X14027Y1585D01*
X14027Y1579D01*
X14028Y1574D01*
X14028Y1569D01*
X14029Y1566D01*
X14029Y1562D01*
X14030Y1559D01*
X14030Y1557D01*
X14030Y1555D01*
X14031Y1554D01*
Y1553D01*
X14031Y1552D01*
Y1552D01*
X14033Y1548D01*
X14034Y1546D01*
X14036Y1543D01*
X14039Y1540D01*
X14043Y1537D01*
X14049Y1534D01*
X14053Y1533D01*
X14058Y1532D01*
X14059Y1532D01*
X14061D01*
X14066Y1532D01*
X14069Y1532D01*
X14076Y1535D01*
X14081Y1538D01*
X14085Y1542D01*
X14089Y1546D01*
X14090Y1549D01*
X14092Y1551D01*
X14092Y1552D01*
Y1552D01*
X14093Y1555D01*
X14094Y1559D01*
X14094Y1564D01*
X14095Y1568D01*
X14096Y1579D01*
X14096Y1589D01*
X14097Y1594D01*
Y1599D01*
X14097Y1603D01*
Y1607D01*
Y1610D01*
Y1613D01*
Y1614D01*
Y1615D01*
Y1623D01*
X14097Y1631D01*
Y1638D01*
X14096Y1645D01*
X14096Y1650D01*
X14096Y1655D01*
X14095Y1660D01*
X14094Y1664D01*
X14094Y1667D01*
X14094Y1670D01*
X14093Y1672D01*
X14093Y1674D01*
X14093Y1676D01*
Y1677D01*
X14092Y1677D01*
X14091Y1681D01*
X14089Y1684D01*
X14087Y1687D01*
X14084Y1689D01*
X14082Y1692D01*
X14079Y1693D01*
X14074Y1696D01*
X14069Y1697D01*
X14065Y1698D01*
X14064Y1698D01*
D02*
G37*
G36*
X13684Y6381D02*
X13557Y6193D01*
X13812D01*
X13684Y6381D01*
D02*
G37*
G36*
X12669Y2052D02*
X12667D01*
X12663Y2052D01*
X12659Y2052D01*
X12656Y2051D01*
X12653Y2049D01*
X12647Y2046D01*
X12643Y2042D01*
X12640Y2038D01*
X12638Y2035D01*
X12638Y2033D01*
X12637Y2032D01*
X12637Y2032D01*
Y2032D01*
X12636Y2029D01*
X12636Y2025D01*
X12635Y2020D01*
X12634Y2016D01*
X12633Y2005D01*
X12633Y1995D01*
X12633Y1990D01*
Y1985D01*
X12632Y1981D01*
Y1977D01*
Y1973D01*
Y1971D01*
Y1970D01*
Y1969D01*
Y1960D01*
X12633Y1953D01*
Y1945D01*
X12633Y1939D01*
X12633Y1933D01*
X12634Y1928D01*
X12634Y1924D01*
X12635Y1920D01*
X12635Y1916D01*
X12636Y1914D01*
X12636Y1911D01*
X12636Y1909D01*
X12637Y1908D01*
Y1907D01*
X12637Y1907D01*
Y1906D01*
X12638Y1903D01*
X12640Y1900D01*
X12642Y1897D01*
X12645Y1895D01*
X12649Y1891D01*
X12655Y1889D01*
X12659Y1887D01*
X12664Y1886D01*
X12665Y1886D01*
X12667D01*
X12672Y1886D01*
X12675Y1887D01*
X12682Y1889D01*
X12687Y1893D01*
X12691Y1896D01*
X12695Y1900D01*
X12696Y1903D01*
X12697Y1906D01*
X12698Y1906D01*
Y1906D01*
X12699Y1910D01*
X12700Y1913D01*
X12700Y1918D01*
X12701Y1923D01*
X12702Y1933D01*
X12702Y1944D01*
X12703Y1949D01*
Y1953D01*
X12703Y1958D01*
Y1961D01*
Y1965D01*
Y1967D01*
Y1969D01*
Y1969D01*
Y1977D01*
X12703Y1985D01*
Y1992D01*
X12702Y1999D01*
X12702Y2005D01*
X12701Y2010D01*
X12701Y2014D01*
X12700Y2018D01*
X12700Y2021D01*
X12700Y2024D01*
X12699Y2027D01*
X12699Y2028D01*
X12699Y2030D01*
Y2031D01*
X12698Y2032D01*
X12697Y2035D01*
X12695Y2039D01*
X12693Y2041D01*
X12690Y2044D01*
X12688Y2046D01*
X12685Y2047D01*
X12680Y2050D01*
X12675Y2051D01*
X12671Y2052D01*
X12669Y2052D01*
D02*
G37*
G36*
X14275Y1937D02*
Y1930D01*
X14276Y1922D01*
X14277Y1914D01*
X14279Y1908D01*
X14282Y1902D01*
X14285Y1897D01*
X14288Y1894D01*
X14292Y1890D01*
X14295Y1888D01*
X14299Y1886D01*
X14303Y1884D01*
X14306Y1883D01*
X14309Y1882D01*
X14312Y1882D01*
X14314Y1882D01*
X14315D01*
X14320Y1882D01*
X14324Y1882D01*
X14327Y1884D01*
X14330Y1885D01*
X14333Y1886D01*
X14335Y1888D01*
X14337Y1890D01*
X14338Y1892D01*
X14340Y1896D01*
X14341Y1899D01*
X14341Y1901D01*
Y1902D01*
Y1902D01*
Y1902D01*
X14341Y1908D01*
X14339Y1912D01*
X14338Y1915D01*
X14335Y1918D01*
X14333Y1920D01*
X14331Y1922D01*
X14330Y1922D01*
X14330Y1923D01*
X14328Y1924D01*
X14326Y1924D01*
X14321Y1926D01*
X14315Y1927D01*
X14310Y1928D01*
X14305Y1929D01*
X14300Y1930D01*
X14298D01*
X14297Y1930D01*
X14296D01*
X14292Y1931D01*
X14289Y1932D01*
X14285Y1933D01*
X14282Y1934D01*
X14279Y1936D01*
X14277Y1936D01*
X14276Y1937D01*
X14275Y1937D01*
D02*
G37*
G36*
X14576Y6243D02*
X14418D01*
X14401Y6242D01*
X14383Y6240D01*
X14368Y6236D01*
X14353Y6233D01*
X14346Y6231D01*
X14340Y6229D01*
X14335Y6228D01*
X14330Y6226D01*
X14327Y6225D01*
X14325Y6224D01*
X14323Y6223D01*
X14322D01*
X14311Y6218D01*
X14302Y6213D01*
X14294Y6208D01*
X14287Y6203D01*
X14280Y6197D01*
X14276Y6192D01*
X14272Y6186D01*
X14268Y6181D01*
X14266Y6176D01*
X14264Y6172D01*
X14262Y6168D01*
X14262Y6165D01*
X14261Y6162D01*
X14260Y6160D01*
Y6159D01*
Y6158D01*
X14261Y6151D01*
X14263Y6144D01*
X14266Y6137D01*
X14269Y6131D01*
X14273Y6125D01*
X14278Y6120D01*
X14288Y6111D01*
X14299Y6104D01*
X14304Y6101D01*
X14308Y6098D01*
X14311Y6097D01*
X14314Y6095D01*
X14316Y6094D01*
X14316D01*
X14333Y6088D01*
X14351Y6084D01*
X14368Y6081D01*
X14384Y6078D01*
X14391Y6078D01*
X14398Y6077D01*
X14404Y6077D01*
X14409D01*
X14413Y6076D01*
X14576D01*
Y6243D01*
D02*
G37*
G36*
X13479Y1997D02*
X13478D01*
X13472Y1997D01*
X13466Y1996D01*
X13462Y1993D01*
X13458Y1991D01*
X13454Y1988D01*
X13452Y1985D01*
X13449Y1982D01*
X13447Y1978D01*
X13445Y1975D01*
X13444Y1971D01*
X13443Y1968D01*
X13443Y1965D01*
X13442Y1963D01*
X13442Y1961D01*
Y1960D01*
Y1959D01*
X13515D01*
X13514Y1966D01*
X13512Y1972D01*
X13510Y1977D01*
X13508Y1981D01*
X13505Y1985D01*
X13502Y1988D01*
X13498Y1991D01*
X13495Y1992D01*
X13492Y1994D01*
X13488Y1995D01*
X13486Y1996D01*
X13483Y1996D01*
X13481Y1997D01*
X13479Y1997D01*
D02*
G37*
G36*
X14131Y1957D02*
X14066D01*
X14060Y1956D01*
X14055Y1956D01*
X14050Y1954D01*
X14047Y1952D01*
X14044Y1950D01*
X14041Y1947D01*
X14038Y1945D01*
X14037Y1942D01*
X14036Y1939D01*
X14034Y1937D01*
X14033Y1932D01*
Y1930D01*
X14033Y1929D01*
Y1928D01*
Y1927D01*
X14033Y1921D01*
X14034Y1916D01*
X14036Y1911D01*
X14038Y1907D01*
X14040Y1904D01*
X14043Y1901D01*
X14046Y1899D01*
X14049Y1897D01*
X14053Y1896D01*
X14056Y1894D01*
X14058Y1894D01*
X14061Y1893D01*
X14063Y1893D01*
X14065Y1893D01*
X14131D01*
Y1957D01*
D02*
G37*
G36*
Y2055D02*
X14070D01*
X14065Y2054D01*
X14060Y2054D01*
X14056Y2052D01*
X14052Y2050D01*
X14049Y2048D01*
X14046Y2046D01*
X14044Y2044D01*
X14043Y2041D01*
X14041Y2039D01*
X14041Y2036D01*
X14039Y2032D01*
Y2030D01*
X14039Y2028D01*
Y2028D01*
Y2027D01*
X14039Y2022D01*
X14040Y2018D01*
X14042Y2014D01*
X14044Y2011D01*
X14046Y2008D01*
X14049Y2005D01*
X14052Y2004D01*
X14055Y2002D01*
X14061Y2000D01*
X14064Y1999D01*
X14067Y1999D01*
X14069D01*
X14070Y1999D01*
X14131D01*
Y2055D01*
D02*
G37*
G36*
X13210Y2055D02*
X13139D01*
X13134Y2055D01*
X13129Y2054D01*
X13125Y2052D01*
X13122Y2050D01*
X13119Y2048D01*
X13116Y2045D01*
X13114Y2043D01*
X13113Y2040D01*
X13111Y2035D01*
X13110Y2030D01*
Y2028D01*
X13109Y2027D01*
Y2026D01*
Y2025D01*
X13110Y2021D01*
X13111Y2016D01*
X13112Y2012D01*
X13114Y2008D01*
X13116Y2005D01*
X13117Y2003D01*
X13118Y2001D01*
X13119Y2001D01*
X13122Y1997D01*
X13126Y1995D01*
X13129Y1993D01*
X13132Y1992D01*
X13135Y1991D01*
X13138Y1991D01*
X13139Y1990D01*
X13210D01*
Y2055D01*
D02*
G37*
G36*
X12448Y6243D02*
X12290D01*
X12272Y6242D01*
X12255Y6240D01*
X12239Y6236D01*
X12224Y6233D01*
X12217Y6231D01*
X12212Y6229D01*
X12206Y6228D01*
X12202Y6226D01*
X12198Y6225D01*
X12196Y6224D01*
X12194Y6223D01*
X12194D01*
X12182Y6218D01*
X12173Y6213D01*
X12165Y6208D01*
X12158Y6203D01*
X12152Y6197D01*
X12147Y6192D01*
X12143Y6186D01*
X12139Y6181D01*
X12137Y6176D01*
X12135Y6172D01*
X12133Y6168D01*
X12133Y6165D01*
X12132Y6162D01*
X12132Y6160D01*
Y6159D01*
Y6158D01*
X12132Y6151D01*
X12134Y6144D01*
X12137Y6137D01*
X12140Y6131D01*
X12145Y6125D01*
X12149Y6120D01*
X12160Y6111D01*
X12170Y6104D01*
X12175Y6101D01*
X12179Y6098D01*
X12182Y6097D01*
X12185Y6095D01*
X12187Y6094D01*
X12188D01*
X12205Y6088D01*
X12222Y6084D01*
X12240Y6081D01*
X12255Y6078D01*
X12262Y6078D01*
X12269Y6077D01*
X12275Y6077D01*
X12280D01*
X12284Y6076D01*
X12448D01*
Y6243D01*
D02*
G37*
G36*
X14530Y1618D02*
X14529D01*
X14523Y1618D01*
X14518Y1617D01*
X14514Y1615D01*
X14510Y1613D01*
X14507Y1611D01*
X14505Y1609D01*
X14504Y1608D01*
X14504Y1607D01*
X14500Y1603D01*
X14498Y1598D01*
X14496Y1593D01*
X14495Y1588D01*
X14494Y1584D01*
X14494Y1580D01*
Y1579D01*
Y1578D01*
Y1577D01*
Y1577D01*
X14494Y1569D01*
X14496Y1562D01*
X14497Y1556D01*
X14499Y1551D01*
X14501Y1547D01*
X14503Y1544D01*
X14504Y1542D01*
X14505Y1542D01*
X14509Y1537D01*
X14513Y1534D01*
X14518Y1531D01*
X14523Y1530D01*
X14527Y1529D01*
X14530Y1528D01*
X14532Y1528D01*
X14533D01*
X14538Y1528D01*
X14543Y1530D01*
X14547Y1532D01*
X14551Y1534D01*
X14554Y1536D01*
X14556Y1538D01*
X14557Y1540D01*
X14558Y1540D01*
X14561Y1545D01*
X14564Y1550D01*
X14565Y1555D01*
X14567Y1560D01*
X14567Y1564D01*
X14568Y1568D01*
Y1570D01*
Y1570D01*
Y1571D01*
X14568Y1578D01*
X14566Y1585D01*
X14564Y1591D01*
X14563Y1596D01*
X14560Y1600D01*
X14559Y1603D01*
X14557Y1605D01*
X14557Y1605D01*
X14553Y1610D01*
X14548Y1613D01*
X14543Y1615D01*
X14539Y1617D01*
X14535Y1618D01*
X14532Y1618D01*
X14530Y1618D01*
D02*
G37*
G36*
X12448Y6407D02*
X12331D01*
X12316Y6406D01*
X12301Y6404D01*
X12287Y6400D01*
X12276Y6397D01*
X12270Y6395D01*
X12266Y6393D01*
X12261Y6392D01*
X12258Y6390D01*
X12255Y6389D01*
X12253Y6387D01*
X12252Y6387D01*
X12251D01*
X12244Y6383D01*
X12238Y6379D01*
X12233Y6375D01*
X12229Y6371D01*
X12225Y6367D01*
X12222Y6364D01*
X12217Y6356D01*
X12215Y6350D01*
X12213Y6345D01*
X12213Y6341D01*
Y6341D01*
Y6340D01*
X12213Y6336D01*
X12215Y6331D01*
X12216Y6327D01*
X12219Y6323D01*
X12225Y6316D01*
X12232Y6309D01*
X12239Y6303D01*
X12245Y6299D01*
X12248Y6298D01*
X12249Y6297D01*
X12251Y6296D01*
X12251D01*
X12265Y6290D01*
X12279Y6285D01*
X12291Y6282D01*
X12303Y6280D01*
X12312Y6278D01*
X12317Y6278D01*
X12321D01*
X12323Y6277D01*
X12448D01*
Y6407D01*
D02*
G37*
G36*
X13683Y1618D02*
X13682D01*
X13676Y1618D01*
X13671Y1617D01*
X13667Y1615D01*
X13663Y1613D01*
X13660Y1611D01*
X13658Y1609D01*
X13657Y1608D01*
X13657Y1607D01*
X13653Y1603D01*
X13651Y1598D01*
X13649Y1593D01*
X13648Y1588D01*
X13647Y1584D01*
X13647Y1580D01*
Y1579D01*
Y1578D01*
Y1577D01*
Y1577D01*
X13647Y1569D01*
X13649Y1562D01*
X13650Y1556D01*
X13652Y1551D01*
X13654Y1547D01*
X13656Y1544D01*
X13657Y1542D01*
X13658Y1542D01*
X13662Y1537D01*
X13666Y1534D01*
X13671Y1531D01*
X13675Y1530D01*
X13679Y1529D01*
X13683Y1528D01*
X13685Y1528D01*
X13686D01*
X13691Y1528D01*
X13696Y1530D01*
X13700Y1532D01*
X13704Y1534D01*
X13707Y1536D01*
X13709Y1538D01*
X13710Y1540D01*
X13711Y1540D01*
X13714Y1545D01*
X13717Y1550D01*
X13718Y1555D01*
X13720Y1560D01*
X13720Y1564D01*
X13721Y1568D01*
Y1570D01*
Y1570D01*
Y1571D01*
X13721Y1578D01*
X13719Y1585D01*
X13717Y1591D01*
X13716Y1596D01*
X13713Y1600D01*
X13712Y1603D01*
X13710Y1605D01*
X13710Y1605D01*
X13706Y1610D01*
X13701Y1613D01*
X13696Y1615D01*
X13692Y1617D01*
X13688Y1618D01*
X13685Y1618D01*
X13683Y1618D01*
D02*
G37*
%LPD*%
D10*
X10512Y3484D02*
G03*
X10512Y3484I-315J0D01*
G01*
X9567Y4370D02*
G03*
X9567Y4370I-315J0D01*
G01*
X10551Y5827D02*
G03*
X10551Y5827I-315J0D01*
G01*
X10512Y2638D02*
G03*
X10512Y2638I-315J0D01*
G01*
X906Y3898D02*
G03*
X906Y3898I-315J0D01*
G01*
Y2717D02*
G03*
X906Y2717I-315J0D01*
G01*
X9567Y5827D02*
G03*
X9567Y5827I-315J0D01*
G01*
X8583D02*
G03*
X8583Y5827I-315J0D01*
G01*
X906Y5079D02*
G03*
X906Y5079I-315J0D01*
G01*
Y1535D02*
G03*
X906Y1535I-315J0D01*
G01*
X13189Y2598D02*
G03*
X13189Y2598I-315J0D01*
G01*
X12913Y709D02*
G03*
X12913Y709I-315J0D01*
G01*
X11260D02*
G03*
X11260Y709I-315J0D01*
G01*
D45*
X9882Y1874D02*
X9976D01*
X10417Y1874D02*
X10512Y1874D01*
X10417Y1551D02*
X10512D01*
X9882D02*
X9976D01*
D46*
X1378Y4685D02*
X1772Y4488D01*
X1378Y4291D02*
X1772Y4488D01*
X1378Y157D02*
Y6496D01*
Y157D02*
X7598D01*
Y6496D01*
X1378D02*
X7598D01*
D50*
X7953Y4970D02*
D03*
X8563Y4970D02*
D03*
D51*
X8258Y2303D02*
D03*
Y2894D02*
D03*
X8258Y4075D02*
D03*
X8258Y1713D02*
D03*
Y689D02*
D03*
X8258Y3484D02*
D03*
D92*
X13414Y3194D02*
X13414Y3200D01*
X13413Y3189D02*
X13414Y3194D01*
X13411Y3184D02*
X13413Y3189D01*
X13409Y3179D02*
X13411Y3184D01*
X13407Y3175D02*
X13409Y3179D01*
X13404Y3171D02*
X13407Y3175D01*
X13400Y3168D02*
X13404Y3171D01*
X13397Y3165D02*
X13400Y3168D01*
X13393Y3162D02*
X13397Y3165D01*
X13388Y3159D02*
X13393Y3162D01*
X13383Y3157D02*
X13388Y3159D01*
X13378Y3156D02*
X13383Y3157D01*
X13372Y3155D02*
X13378Y3156D01*
X13366Y3153D02*
X13372Y3155D01*
X13359Y3153D02*
X13366D01*
X13353Y3153D02*
X13359Y3153D01*
X13345D02*
X13353Y3153D01*
X13338Y3153D02*
X13345D01*
X13332Y3154D02*
X13338Y3153D01*
X13325Y3156D02*
X13332Y3154D01*
X13320Y3157D02*
X13325Y3156D01*
X13315Y3159D02*
X13320Y3157D01*
X13310Y3162D02*
X13315Y3159D01*
X13306Y3164D02*
X13310Y3162D01*
X13304Y3165D02*
X13306Y3164D01*
X13302Y3167D02*
X13304Y3165D01*
X13298Y3170D02*
X13302Y3167D01*
X13295Y3173D02*
X13298Y3170D01*
X13293Y3177D02*
X13295Y3173D01*
X13292Y3182D02*
X13293Y3177D01*
X13290Y3185D02*
X13292Y3182D01*
X13289Y3191D02*
X13290Y3185D01*
X13289Y3191D02*
Y3195D01*
Y3200D01*
X13290Y3203D01*
X13291Y3206D01*
X13292Y3210D01*
X13292Y3213D01*
X13294Y3215D01*
X13298Y3220D01*
X13301Y3222D01*
X13304Y3224D01*
X13307Y3226D01*
X13310Y3227D01*
X13319Y3230D01*
X13324Y3231D01*
X13330Y3232D01*
X13357Y3237D01*
X13365Y3238D01*
X13372Y3240D01*
X13376Y3242D01*
X13380Y3243D01*
X13382Y3246D01*
X13383Y3247D01*
X13384Y3249D01*
X13385Y3252D01*
X13385Y3255D01*
X13385Y3259D02*
X13385Y3255D01*
X13384Y3261D02*
X13385Y3259D01*
X13383Y3263D02*
X13384Y3261D01*
X13382Y3264D02*
X13383Y3263D01*
X13381Y3266D02*
X13382Y3264D01*
X13379Y3267D02*
X13381Y3266D01*
X13377Y3268D02*
X13379Y3267D01*
X13373Y3270D02*
X13377Y3268D01*
X13367Y3272D02*
X13373Y3270D01*
X13360Y3272D02*
X13367Y3272D01*
X13353Y3273D02*
X13360Y3272D01*
X13344D02*
X13353Y3273D01*
X13341Y3272D02*
X13344Y3272D01*
X13337Y3272D02*
X13341D01*
X13331Y3270D02*
X13337Y3272D01*
X13326Y3267D02*
X13331Y3270D01*
X13324Y3265D02*
X13326Y3267D01*
X13322Y3264D02*
X13324Y3265D01*
X13321Y3261D02*
X13322Y3264D01*
X13319Y3260D02*
X13321Y3261D01*
X13318Y3255D02*
X13319Y3260D01*
X13317Y3252D02*
X13318Y3255D01*
X13316Y3249D02*
X13317Y3252D01*
X13294Y3249D02*
X13316D01*
X13294D02*
Y3250D01*
Y3255D01*
X13295Y3260D01*
X13296Y3264D01*
X13298Y3269D01*
X13300Y3272D01*
X13302Y3275D01*
X13305Y3279D01*
X13309Y3282D01*
X13313Y3284D01*
X13317Y3287D01*
X13321Y3289D01*
X13327Y3290D01*
X13333Y3292D01*
X13339Y3293D01*
X13344D01*
X13351Y3293D01*
X13359Y3293D01*
X13365D01*
X13371Y3292D01*
X13374Y3291D01*
X13376Y3290D01*
X13381Y3289D01*
X13386Y3287D01*
X13390Y3285D01*
X13394Y3282D01*
X13396Y3281D01*
X13397Y3279D01*
X13400Y3276D01*
X13403Y3273D01*
X13405Y3269D01*
X13406Y3265D01*
X13408Y3261D01*
X13408Y3256D01*
Y3251D02*
Y3256D01*
Y3247D02*
Y3251D01*
X13408Y3243D02*
X13408Y3247D01*
X13407Y3240D02*
X13408Y3243D01*
X13406Y3237D02*
X13407Y3240D01*
X13405Y3235D02*
X13406Y3237D01*
X13403Y3232D02*
X13405Y3235D01*
X13402Y3229D02*
X13403Y3232D01*
X13400Y3228D02*
X13402Y3229D01*
X13397Y3226D02*
X13400Y3228D01*
X13394Y3224D02*
X13397Y3226D01*
X13386Y3220D02*
X13394Y3224D01*
X13381Y3219D02*
X13386Y3220D01*
X13376Y3217D02*
X13381Y3219D01*
X13364Y3215D02*
X13376Y3217D01*
X13336Y3210D02*
X13364Y3215D01*
X13330Y3208D02*
X13336Y3210D01*
X13324Y3207D02*
X13330Y3208D01*
X13321Y3206D02*
X13324Y3207D01*
X13318Y3204D02*
X13321Y3206D01*
X13315Y3203D02*
X13318Y3204D01*
X13314Y3200D02*
X13315Y3203D01*
X13313Y3197D02*
X13314Y3200D01*
X13313Y3194D02*
Y3197D01*
Y3191D02*
Y3194D01*
Y3189D02*
Y3191D01*
Y3189D02*
X13314Y3188D01*
X13315Y3185D01*
X13317Y3184D01*
X13318Y3182D01*
X13323Y3179D01*
X13326Y3178D01*
X13329Y3176D01*
X13332Y3176D01*
X13336Y3175D01*
X13344Y3174D01*
X13353D01*
X13360D01*
X13367Y3176D01*
X13370Y3176D01*
X13373Y3178D01*
X13376Y3179D01*
X13378Y3181D01*
X13382Y3185D01*
X13384Y3187D01*
X13385Y3189D01*
X13387Y3191D01*
X13388Y3194D01*
X13388Y3197D01*
X13389Y3200D01*
X13414D01*
X12742Y3194D02*
X12743Y3200D01*
X12741Y3189D02*
X12742Y3194D01*
X12739Y3184D02*
X12741Y3189D01*
X12738Y3179D02*
X12739Y3184D01*
X12735Y3175D02*
X12738Y3179D01*
X12732Y3171D02*
X12735Y3175D01*
X12729Y3168D02*
X12732Y3171D01*
X12726Y3165D02*
X12729Y3168D01*
X12721Y3162D02*
X12726Y3165D01*
X12717Y3159D02*
X12721Y3162D01*
X12712Y3157D02*
X12717Y3159D01*
X12706Y3156D02*
X12712Y3157D01*
X12700Y3155D02*
X12706Y3156D01*
X12694Y3153D02*
X12700Y3155D01*
X12688Y3153D02*
X12694D01*
X12680Y3153D02*
X12688Y3153D01*
X12674D02*
X12680Y3153D01*
X12666Y3153D02*
X12674D01*
X12660Y3154D02*
X12666Y3153D01*
X12654Y3156D02*
X12660Y3154D01*
X12648Y3157D02*
X12654Y3156D01*
X12643Y3159D02*
X12648Y3157D01*
X12638Y3162D02*
X12643Y3159D01*
X12634Y3164D02*
X12638Y3162D01*
X12630Y3167D02*
X12634Y3164D01*
X12628Y3168D02*
X12630Y3167D01*
X12627Y3170D02*
X12628Y3168D01*
X12624Y3173D02*
X12627Y3170D01*
X12622Y3177D02*
X12624Y3173D01*
X12620Y3182D02*
X12622Y3177D01*
X12619Y3185D02*
X12620Y3182D01*
X12618Y3191D02*
X12619Y3185D01*
X12618Y3191D02*
Y3195D01*
Y3200D01*
Y3203D01*
X12619Y3206D01*
X12620Y3210D01*
X12621Y3213D01*
X12622Y3215D01*
X12625Y3218D01*
X12627Y3220D01*
X12629Y3222D01*
X12632Y3224D01*
X12635Y3226D01*
X12639Y3227D01*
X12648Y3230D01*
X12653Y3231D01*
X12658Y3232D01*
X12686Y3237D01*
X12694Y3238D01*
X12700Y3240D01*
X12706Y3242D01*
X12709Y3243D01*
X12711Y3246D01*
X12712Y3247D01*
X12713Y3249D01*
X12714Y3252D01*
Y3255D01*
Y3259D01*
X12713Y3261D02*
X12714Y3259D01*
X12712Y3263D02*
X12713Y3261D01*
X12711Y3264D02*
X12712Y3263D01*
X12709Y3266D02*
X12711Y3264D01*
X12706Y3268D02*
X12709Y3266D01*
X12701Y3270D02*
X12706Y3268D01*
X12695Y3272D02*
X12701Y3270D01*
X12688Y3272D02*
X12695Y3272D01*
X12681Y3273D02*
X12688Y3272D01*
X12673D02*
X12681Y3273D01*
X12669Y3272D02*
X12673Y3272D01*
X12666Y3272D02*
X12669D01*
X12660Y3270D02*
X12666Y3272D01*
X12655Y3267D02*
X12660Y3270D01*
X12653Y3265D02*
X12655Y3267D01*
X12651Y3264D02*
X12653Y3265D01*
X12648Y3260D02*
X12651Y3264D01*
X12647Y3257D02*
X12648Y3260D01*
X12645Y3255D02*
X12647Y3257D01*
X12645Y3252D02*
Y3255D01*
X12645Y3249D02*
X12645Y3252D01*
X12622Y3249D02*
X12645D01*
X12622D02*
Y3250D01*
Y3255D01*
X12623Y3260D01*
X12625Y3264D01*
X12626Y3269D01*
X12628Y3272D01*
X12630Y3275D01*
X12634Y3279D01*
X12637Y3282D01*
X12641Y3284D01*
X12645Y3287D01*
X12651Y3289D01*
X12655Y3290D01*
X12661Y3292D01*
X12667Y3293D01*
X12674D01*
X12680Y3293D01*
X12687Y3293D01*
X12693D01*
X12699Y3292D01*
X12702Y3291D01*
X12705Y3290D01*
X12709Y3289D01*
X12715Y3287D01*
X12719Y3285D01*
X12723Y3282D01*
X12724Y3281D01*
X12726Y3279D01*
X12729Y3276D01*
X12731Y3273D01*
X12733Y3269D01*
X12735Y3265D01*
X12736Y3261D01*
X12737Y3256D01*
Y3251D02*
Y3256D01*
Y3247D02*
Y3251D01*
X12736Y3243D02*
X12737Y3247D01*
X12735Y3240D02*
X12736Y3243D01*
X12735Y3237D02*
X12735Y3240D01*
X12733Y3235D02*
X12735Y3237D01*
X12732Y3232D02*
X12733Y3235D01*
X12730Y3229D02*
X12732Y3232D01*
X12728Y3228D02*
X12730Y3229D01*
X12725Y3226D02*
X12728Y3228D01*
X12722Y3224D02*
X12725Y3226D01*
X12715Y3220D02*
X12722Y3224D01*
X12709Y3219D02*
X12715Y3220D01*
X12704Y3217D02*
X12709Y3219D01*
X12692Y3215D02*
X12704Y3217D01*
X12664Y3210D02*
X12692Y3215D01*
X12658Y3208D02*
X12664Y3210D01*
X12653Y3207D02*
X12658Y3208D01*
X12649Y3206D02*
X12653Y3207D01*
X12646Y3204D02*
X12649Y3206D01*
X12645Y3203D02*
X12646Y3204D01*
X12644Y3203D02*
X12645Y3203D01*
X12643Y3201D02*
X12644Y3203D01*
X12642Y3200D02*
X12643Y3201D01*
X12642Y3197D02*
X12642Y3200D01*
X12641Y3194D02*
X12642Y3197D01*
X12641Y3194D02*
X12642Y3191D01*
Y3189D02*
Y3191D01*
Y3189D02*
X12642Y3188D01*
X12644Y3185D01*
X12647Y3182D01*
X12652Y3179D01*
X12654Y3178D01*
X12657Y3176D01*
X12661Y3176D01*
X12664Y3175D01*
X12672Y3174D01*
X12680D01*
X12688D01*
X12695Y3176D01*
X12699Y3176D01*
X12701Y3178D01*
X12704Y3179D01*
X12707Y3181D01*
X12711Y3185D01*
X12712Y3187D01*
X12714Y3189D01*
X12715Y3191D01*
X12717Y3194D01*
X12717Y3197D01*
Y3200D01*
X12743D01*
X12939Y3158D02*
X12962D01*
X12939D02*
Y3224D01*
X12938Y3229D02*
X12939Y3224D01*
X12938Y3229D02*
Y3232D01*
Y3235D01*
X12937Y3239D02*
X12938Y3235D01*
X12935Y3243D02*
X12937Y3239D01*
X12934Y3248D02*
X12935Y3243D01*
X12932Y3252D02*
X12934Y3248D01*
X12929Y3255D02*
X12932Y3252D01*
X12926Y3259D02*
X12929Y3255D01*
X12923Y3262D02*
X12926Y3259D01*
X12919Y3264D02*
X12923Y3262D01*
X12915Y3267D02*
X12919Y3264D01*
X12911Y3269D02*
X12915Y3267D01*
X12906Y3270D02*
X12911Y3269D01*
X12902Y3271D02*
X12906Y3270D01*
X12897Y3272D02*
X12902Y3271D01*
X12892Y3272D02*
X12897D01*
X12889D02*
X12892D01*
X12885Y3271D02*
X12889Y3272D01*
X12881Y3270D02*
X12885Y3271D01*
X12878Y3270D02*
X12881Y3270D01*
X12875Y3269D02*
X12878Y3270D01*
X12873Y3267D02*
X12875Y3269D01*
X12871Y3265D02*
X12873Y3267D01*
X12869Y3263D02*
X12871Y3265D01*
X12868Y3261D02*
X12869Y3263D01*
X12866Y3258D02*
X12868Y3261D01*
X12865Y3255D02*
X12866Y3258D01*
X12864Y3252D02*
X12865Y3255D01*
X12863Y3248D02*
X12864Y3252D01*
X12863Y3243D02*
Y3248D01*
X12862Y3238D02*
X12863Y3243D01*
X12862Y3234D02*
Y3238D01*
Y3158D02*
Y3234D01*
X12839Y3158D02*
X12862D01*
X12839D02*
Y3232D01*
X12839Y3242D01*
Y3249D01*
X12840Y3256D01*
X12841Y3261D01*
X12842Y3266D01*
X12845Y3270D01*
X12846Y3273D01*
X12849Y3277D01*
X12852Y3281D01*
X12856Y3284D01*
X12860Y3286D01*
X12865Y3288D01*
X12870Y3290D01*
X12875Y3291D01*
X12881Y3292D01*
X12887D01*
X12895Y3291D01*
X12898D01*
X12902Y3290D01*
X12909Y3288D01*
X12916Y3285D01*
X12919Y3284D01*
X12922Y3281D01*
X12928Y3278D01*
X12934Y3272D01*
X12939Y3266D01*
Y3288D01*
X12962D01*
Y3158D02*
Y3288D01*
X11573Y3190D02*
Y3268D01*
X11543D02*
X11573D01*
X11543D02*
Y3288D01*
X11573D01*
Y3322D01*
X11597D01*
Y3288D02*
Y3322D01*
Y3288D02*
X11618D01*
Y3268D02*
Y3288D01*
X11597Y3268D02*
X11618D01*
X11597Y3183D02*
Y3268D01*
X11596Y3179D02*
X11597Y3183D01*
X11596Y3176D02*
Y3179D01*
X11595Y3173D02*
X11596Y3176D01*
X11594Y3170D02*
X11595Y3173D01*
X11593Y3167D02*
X11594Y3170D01*
X11591Y3165D02*
X11593Y3167D01*
X11590Y3162D02*
X11591Y3165D01*
X11588Y3160D02*
X11590Y3162D01*
X11586Y3159D02*
X11588Y3160D01*
X11584Y3157D02*
X11586Y3159D01*
X11581Y3156D02*
X11584Y3157D01*
X11578Y3155D02*
X11581Y3156D01*
X11575Y3154D02*
X11578Y3155D01*
X11571Y3153D02*
X11575Y3154D01*
X11568Y3153D02*
X11571Y3153D01*
X11564Y3153D02*
X11568D01*
X11559D02*
X11564D01*
X11555Y3153D02*
X11559Y3153D01*
X11550Y3154D02*
X11555Y3153D01*
X11543Y3155D02*
X11550Y3154D01*
X11543Y3155D02*
Y3176D01*
X11547Y3176D01*
X11551Y3175D01*
X11558Y3174D01*
X11562D01*
X11565Y3175D01*
X11568Y3176D01*
X11570Y3178D01*
X11571Y3180D01*
X11572Y3182D01*
X11573Y3186D01*
Y3190D01*
X11830Y3194D02*
X11831Y3200D01*
X11829Y3189D02*
X11830Y3194D01*
X11828Y3184D02*
X11829Y3189D01*
X11826Y3179D02*
X11828Y3184D01*
X11823Y3175D02*
X11826Y3179D01*
X11821Y3171D02*
X11823Y3175D01*
X11818Y3168D02*
X11821Y3171D01*
X11814Y3165D02*
X11818Y3168D01*
X11810Y3162D02*
X11814Y3165D01*
X11806Y3159D02*
X11810Y3162D01*
X11800Y3157D02*
X11806Y3159D01*
X11795Y3156D02*
X11800Y3157D01*
X11789Y3155D02*
X11795Y3156D01*
X11783Y3153D02*
X11789Y3155D01*
X11776Y3153D02*
X11783D01*
X11769Y3153D02*
X11776Y3153D01*
X11762D02*
X11769Y3153D01*
X11755Y3153D02*
X11762D01*
X11748Y3154D02*
X11755Y3153D01*
X11742Y3156D02*
X11748Y3154D01*
X11736Y3157D02*
X11742Y3156D01*
X11731Y3159D02*
X11736Y3157D01*
X11727Y3162D02*
X11731Y3159D01*
X11722Y3164D02*
X11727Y3162D01*
X11719Y3167D02*
X11722Y3164D01*
X11716Y3168D02*
X11719Y3167D01*
X11715Y3170D02*
X11716Y3168D01*
X11713Y3173D02*
X11715Y3170D01*
X11710Y3177D02*
X11713Y3173D01*
X11708Y3182D02*
X11710Y3177D01*
X11707Y3185D02*
X11708Y3182D01*
X11706Y3191D02*
X11707Y3185D01*
X11706Y3191D02*
Y3195D01*
Y3200D01*
X11707Y3203D01*
X11707Y3206D01*
X11708Y3210D01*
X11710Y3213D01*
X11711Y3215D01*
X11713Y3218D01*
X11715Y3220D01*
X11717Y3222D01*
X11720Y3224D01*
X11723Y3226D01*
X11727Y3227D01*
X11736Y3230D01*
X11741Y3231D01*
X11746Y3232D01*
X11774Y3237D01*
X11782Y3238D01*
X11789Y3240D01*
X11794Y3242D01*
X11797Y3243D01*
X11800Y3246D01*
X11800Y3247D01*
X11801Y3249D01*
X11802Y3252D01*
X11803Y3255D01*
X11802Y3259D02*
X11803Y3255D01*
X11801Y3261D02*
X11802Y3259D01*
X11800Y3263D02*
X11801Y3261D01*
X11799Y3264D02*
X11800Y3263D01*
X11797Y3266D02*
X11799Y3264D01*
X11794Y3268D02*
X11797Y3266D01*
X11789Y3270D02*
X11794Y3268D01*
X11783Y3272D02*
X11789Y3270D01*
X11777Y3272D02*
X11783Y3272D01*
X11769Y3273D02*
X11777Y3272D01*
X11761D02*
X11769Y3273D01*
X11757Y3272D02*
X11761Y3272D01*
X11754Y3272D02*
X11757D01*
X11748Y3270D02*
X11754Y3272D01*
X11743Y3267D02*
X11748Y3270D01*
X11741Y3265D02*
X11743Y3267D01*
X11739Y3264D02*
X11741Y3265D01*
X11736Y3260D02*
X11739Y3264D01*
X11735Y3257D02*
X11736Y3260D01*
X11734Y3255D02*
X11735Y3257D01*
X11733Y3252D02*
X11734Y3255D01*
X11733Y3249D02*
X11733Y3252D01*
X11710Y3249D02*
X11733D01*
X11710D02*
Y3250D01*
X11711Y3255D01*
X11712Y3260D01*
X11713Y3264D01*
X11714Y3269D01*
X11716Y3272D01*
X11719Y3275D01*
X11722Y3279D01*
X11725Y3282D01*
X11730Y3284D01*
X11733Y3287D01*
X11739Y3289D01*
X11744Y3290D01*
X11749Y3292D01*
X11755Y3293D01*
X11762D01*
X11768Y3293D01*
X11775Y3293D01*
X11782D01*
X11787Y3292D01*
X11790Y3291D01*
X11793Y3290D01*
X11798Y3289D01*
X11803Y3287D01*
X11807Y3285D01*
X11811Y3282D01*
X11812Y3281D01*
X11815Y3279D01*
X11817Y3276D01*
X11820Y3273D01*
X11821Y3269D01*
X11823Y3265D01*
X11824Y3261D01*
X11825Y3256D01*
Y3251D02*
Y3256D01*
Y3247D02*
Y3251D01*
X11824Y3243D02*
X11825Y3247D01*
X11823Y3240D02*
X11824Y3243D01*
X11823Y3237D02*
X11823Y3240D01*
X11821Y3235D02*
X11823Y3237D01*
X11820Y3232D02*
X11821Y3235D01*
X11818Y3229D02*
X11820Y3232D01*
X11816Y3228D02*
X11818Y3229D01*
X11814Y3226D02*
X11816Y3228D01*
X11810Y3224D02*
X11814Y3226D01*
X11803Y3220D02*
X11810Y3224D01*
X11798Y3219D02*
X11803Y3220D01*
X11793Y3217D02*
X11798Y3219D01*
X11781Y3215D02*
X11793Y3217D01*
X11753Y3210D02*
X11781Y3215D01*
X11746Y3208D02*
X11753Y3210D01*
X11742Y3207D02*
X11746Y3208D01*
X11737Y3206D02*
X11742Y3207D01*
X11735Y3204D02*
X11737Y3206D01*
X11733Y3203D02*
X11735Y3204D01*
X11733Y3203D02*
X11733Y3203D01*
X11731Y3201D02*
X11733Y3203D01*
X11731Y3200D02*
X11731Y3201D01*
X11730Y3197D02*
X11731Y3200D01*
X11730Y3194D02*
Y3197D01*
Y3191D02*
Y3194D01*
Y3191D02*
X11731Y3189D01*
X11731Y3188D01*
X11732Y3185D01*
X11736Y3182D01*
X11740Y3179D01*
X11743Y3178D01*
X11746Y3176D01*
X11749Y3176D01*
X11753Y3175D01*
X11760Y3174D01*
X11769D01*
X11777D01*
X11784Y3176D01*
X11787Y3176D01*
X11790Y3178D01*
X11792Y3179D01*
X11795Y3181D01*
X11799Y3185D01*
X11801Y3187D01*
X11803Y3189D01*
X11803Y3191D01*
X11805Y3194D01*
X11806Y3197D01*
X11806Y3200D01*
X11831D01*
X11985Y3176D02*
X11990Y3175D01*
X11980Y3176D02*
X11985D01*
X11975Y3177D02*
X11980Y3176D01*
X11971Y3179D02*
X11975Y3177D01*
X11967Y3180D02*
X11971Y3179D01*
X11963Y3182D02*
X11967Y3180D01*
X11960Y3185D02*
X11963Y3182D01*
X11956Y3188D02*
X11960Y3185D01*
X11953Y3191D02*
X11956Y3188D01*
X11951Y3195D02*
X11953Y3191D01*
X11948Y3199D02*
X11951Y3195D01*
X11946Y3203D02*
X11948Y3199D01*
X11945Y3208D02*
X11946Y3203D01*
X11944Y3212D02*
X11945Y3208D01*
X11943Y3217D02*
X11944Y3212D01*
X11943Y3217D02*
Y3223D01*
Y3229D01*
X11944Y3233D01*
X11945Y3238D01*
X11946Y3243D01*
X11948Y3247D01*
X11951Y3251D01*
X11953Y3255D01*
X11956Y3258D01*
X11960Y3261D01*
X11963Y3264D01*
X11967Y3266D01*
X11971Y3267D01*
X11975Y3269D01*
X11980Y3270D01*
X11985D01*
X11990Y3271D01*
X11995Y3270D01*
X12000D01*
X12005Y3269D01*
X12009Y3267D01*
X12014Y3266D01*
X12018Y3264D01*
X12021Y3261D01*
X12025Y3258D01*
X12027Y3255D01*
X12030Y3251D01*
X12032Y3247D01*
X12034Y3243D01*
X12035Y3238D01*
X12036Y3233D01*
X12037Y3229D01*
Y3223D02*
Y3229D01*
Y3217D02*
Y3223D01*
X12036Y3212D02*
X12037Y3217D01*
X12035Y3208D02*
X12036Y3212D01*
X12034Y3203D02*
X12035Y3208D01*
X12032Y3199D02*
X12034Y3203D01*
X12030Y3195D02*
X12032Y3199D01*
X12027Y3191D02*
X12030Y3195D01*
X12025Y3188D02*
X12027Y3191D01*
X12021Y3185D02*
X12025Y3188D01*
X12018Y3182D02*
X12021Y3185D01*
X12014Y3180D02*
X12018Y3182D01*
X12009Y3179D02*
X12014Y3180D01*
X12005Y3177D02*
X12009Y3179D01*
X12000Y3176D02*
X12005Y3177D01*
X11998Y3176D02*
X12000D01*
X11995D02*
X11998D01*
X11990Y3175D02*
X11995Y3176D01*
X11998Y3153D02*
X12006Y3154D01*
X12012Y3156D01*
X12019Y3158D01*
X12026Y3160D01*
X12032Y3164D01*
X12037Y3168D01*
X12042Y3172D01*
X12047Y3176D01*
X12048Y3179D01*
X12050Y3182D01*
X12053Y3188D01*
X12056Y3194D01*
X12059Y3201D01*
X12060Y3208D01*
X12061Y3215D01*
Y3223D01*
Y3231D01*
X12060Y3238D02*
X12061Y3231D01*
X12059Y3245D02*
X12060Y3238D01*
X12056Y3252D02*
X12059Y3245D01*
X12053Y3258D02*
X12056Y3252D01*
X12052Y3261D02*
X12053Y3258D01*
X12050Y3264D02*
X12052Y3261D01*
X12047Y3269D02*
X12050Y3264D01*
X12042Y3274D02*
X12047Y3269D01*
X12037Y3278D02*
X12042Y3274D01*
X12034Y3281D02*
X12037Y3278D01*
X12032Y3282D02*
X12034Y3281D01*
X12026Y3286D02*
X12032Y3282D01*
X12019Y3288D02*
X12026Y3286D01*
X12012Y3290D02*
X12019Y3288D01*
X12006Y3292D02*
X12012Y3290D01*
X11998Y3293D02*
X12006Y3292D01*
X11990Y3293D02*
X11998Y3293D01*
X11982D02*
X11990Y3293D01*
X11974Y3292D02*
X11982Y3293D01*
X11968Y3290D02*
X11974Y3292D01*
X11961Y3288D02*
X11968Y3290D01*
X11958Y3287D02*
X11961Y3288D01*
X11955Y3286D02*
X11958Y3287D01*
X11952Y3284D02*
X11955Y3286D01*
X11949Y3282D02*
X11952Y3284D01*
X11943Y3278D02*
X11949Y3282D01*
X11939Y3274D02*
X11943Y3278D01*
X11934Y3269D02*
X11939Y3274D01*
X11931Y3264D02*
X11934Y3269D01*
X11927Y3258D02*
X11931Y3264D01*
X11925Y3252D02*
X11927Y3258D01*
X11922Y3245D02*
X11925Y3252D01*
X11921Y3238D02*
X11922Y3245D01*
X11920Y3231D02*
X11921Y3238D01*
X11919Y3223D02*
X11920Y3231D01*
X11919Y3223D02*
X11920Y3215D01*
X11921Y3208D01*
X11922Y3201D01*
X11925Y3194D01*
X11927Y3188D01*
X11931Y3182D01*
X11934Y3176D01*
X11939Y3172D01*
X11943Y3168D01*
X11949Y3164D01*
X11955Y3160D01*
X11961Y3158D01*
X11968Y3156D01*
X11974Y3154D01*
X11982Y3153D01*
X11990Y3153D01*
X11998Y3153D01*
X12215Y3176D02*
X12221Y3176D01*
X12211Y3176D02*
X12215D01*
X12207Y3178D02*
X12211Y3176D01*
X12202Y3179D02*
X12207Y3178D01*
X12198Y3181D02*
X12202Y3179D01*
X12194Y3183D02*
X12198Y3181D01*
X12190Y3185D02*
X12194Y3183D01*
X12187Y3188D02*
X12190Y3185D01*
X12184Y3191D02*
X12187Y3188D01*
X12182Y3195D02*
X12184Y3191D01*
X12180Y3199D02*
X12182Y3195D01*
X12178Y3203D02*
X12180Y3199D01*
X12177Y3208D02*
X12178Y3203D01*
X12175Y3212D02*
X12177Y3208D01*
X12175Y3217D02*
X12175Y3212D01*
X12175Y3217D02*
Y3223D01*
Y3228D01*
X12175Y3233D01*
X12177Y3238D01*
X12178Y3243D01*
X12180Y3246D01*
X12182Y3250D01*
X12184Y3254D01*
X12187Y3258D01*
X12190Y3261D01*
X12194Y3263D01*
X12198Y3265D01*
X12200Y3266D01*
X12202Y3267D01*
X12207Y3268D01*
X12211Y3270D01*
X12215D01*
X12221Y3270D01*
X12226Y3270D01*
X12231Y3269D01*
X12236Y3268D01*
X12240Y3267D01*
X12244Y3265D01*
X12248Y3263D01*
X12252Y3260D01*
X12255Y3257D01*
X12258Y3254D01*
X12260Y3250D01*
X12262Y3246D01*
X12264Y3242D01*
X12265Y3238D01*
X12267Y3233D01*
Y3228D02*
Y3233D01*
Y3228D02*
X12268Y3223D01*
X12267Y3217D02*
X12268Y3223D01*
X12267Y3212D02*
Y3217D01*
X12265Y3208D02*
X12267Y3212D01*
X12264Y3203D02*
X12265Y3208D01*
X12262Y3200D02*
X12264Y3203D01*
X12260Y3195D02*
X12262Y3200D01*
X12258Y3192D02*
X12260Y3195D01*
X12255Y3188D02*
X12258Y3192D01*
X12252Y3185D02*
X12255Y3188D01*
X12248Y3183D02*
X12252Y3185D01*
X12244Y3181D02*
X12248Y3183D01*
X12242Y3180D02*
X12244Y3181D01*
X12240Y3179D02*
X12242Y3180D01*
X12236Y3178D02*
X12240Y3179D01*
X12231Y3176D02*
X12236Y3178D01*
X12226Y3176D02*
X12231D01*
X12221Y3176D02*
X12226Y3176D01*
X12228Y3155D02*
X12231D01*
X12234Y3156D01*
X12237Y3156D01*
X12240Y3158D01*
X12246Y3160D01*
X12251Y3163D01*
X12257Y3167D01*
X12262Y3171D01*
X12268Y3177D01*
Y3111D02*
Y3177D01*
Y3111D02*
X12291D01*
Y3288D01*
X12268D02*
X12291D01*
X12268Y3269D02*
Y3288D01*
X12262Y3274D02*
X12268Y3269D01*
X12257Y3279D02*
X12262Y3274D01*
X12252Y3283D02*
X12257Y3279D01*
X12249Y3284D02*
X12252Y3283D01*
X12246Y3286D02*
X12249Y3284D01*
X12243Y3287D02*
X12246Y3286D01*
X12240Y3288D02*
X12243Y3287D01*
X12234Y3290D02*
X12240Y3288D01*
X12231Y3290D02*
X12234Y3290D01*
X12228Y3291D02*
X12231Y3290D01*
X12220Y3292D02*
X12228Y3291D01*
X12218Y3292D02*
X12220D01*
X12211D02*
X12218D01*
X12204Y3290D02*
X12211Y3292D01*
X12198Y3289D02*
X12204Y3290D01*
X12191Y3287D02*
X12198Y3289D01*
X12188Y3286D02*
X12191Y3287D01*
X12185Y3284D02*
X12188Y3286D01*
X12180Y3281D02*
X12185Y3284D01*
X12177Y3279D02*
X12180Y3281D01*
X12175Y3277D02*
X12177Y3279D01*
X12169Y3272D02*
X12175Y3277D01*
X12165Y3267D02*
X12169Y3272D01*
X12161Y3262D02*
X12165Y3267D01*
X12158Y3257D02*
X12161Y3262D01*
X12155Y3251D02*
X12158Y3257D01*
X12153Y3244D02*
X12155Y3251D01*
X12151Y3237D02*
X12153Y3244D01*
X12151Y3230D02*
X12151Y3237D01*
X12151Y3223D02*
Y3230D01*
Y3215D02*
Y3223D01*
Y3215D02*
X12151Y3208D01*
X12153Y3202D01*
X12155Y3195D01*
X12158Y3189D01*
X12161Y3184D01*
X12165Y3179D01*
X12167Y3176D01*
X12169Y3173D01*
X12175Y3169D01*
X12177Y3167D01*
X12180Y3165D01*
X12186Y3162D01*
X12192Y3159D01*
X12198Y3157D01*
X12204Y3156D01*
X12212Y3154D01*
X12218D01*
X12221D01*
X12228Y3155D01*
X12450Y3293D02*
X12459Y3293D01*
X12443Y3292D02*
X12450Y3293D01*
X12436Y3290D02*
X12443Y3292D01*
X12430Y3288D02*
X12436Y3290D01*
X12424Y3286D02*
X12430Y3288D01*
X12418Y3282D02*
X12424Y3286D01*
X12413Y3278D02*
X12418Y3282D01*
X12410Y3276D02*
X12413Y3278D01*
X12408Y3274D02*
X12410Y3276D01*
X12404Y3270D02*
X12408Y3274D01*
X12400Y3264D02*
X12404Y3270D01*
X12397Y3258D02*
X12400Y3264D01*
X12395Y3252D02*
X12397Y3258D01*
X12392Y3246D02*
X12395Y3252D01*
X12391Y3238D02*
X12392Y3246D01*
X12390Y3231D02*
X12391Y3238D01*
X12390Y3223D02*
Y3231D01*
Y3218D02*
Y3223D01*
Y3218D02*
X12459D01*
X12504D01*
Y3217D02*
Y3218D01*
Y3213D02*
Y3217D01*
X12503Y3208D02*
X12504Y3213D01*
X12503Y3204D02*
X12503Y3208D01*
X12501Y3200D02*
X12503Y3204D01*
X12499Y3197D02*
X12501Y3200D01*
X12497Y3193D02*
X12499Y3197D01*
X12494Y3190D02*
X12497Y3193D01*
X12491Y3187D02*
X12494Y3190D01*
X12488Y3184D02*
X12491Y3187D01*
X12485Y3182D02*
X12488Y3184D01*
X12481Y3179D02*
X12485Y3182D01*
X12477Y3178D02*
X12481Y3179D01*
X12473Y3176D02*
X12477Y3178D01*
X12468Y3176D02*
X12473Y3176D01*
X12464Y3176D02*
X12468D01*
X12459Y3175D02*
X12464Y3176D01*
X12451D02*
X12459Y3175D01*
X12445Y3176D02*
X12451Y3176D01*
X12439Y3179D02*
X12445Y3176D01*
X12433Y3181D02*
X12439Y3179D01*
X12428Y3185D02*
X12433Y3181D01*
X12424Y3188D02*
X12428Y3185D01*
X12421Y3193D02*
X12424Y3188D01*
X12419Y3198D02*
X12421Y3193D01*
X12392Y3198D02*
X12419D01*
X12392D02*
X12394Y3193D01*
X12395Y3191D01*
X12396Y3188D01*
X12398Y3184D01*
X12401Y3179D01*
X12404Y3175D01*
X12408Y3171D01*
X12412Y3168D01*
X12416Y3165D01*
X12421Y3162D01*
X12425Y3159D01*
X12430Y3158D01*
X12436Y3156D01*
X12441Y3155D01*
X12447Y3153D01*
X12453D01*
X12459Y3153D01*
X12466Y3153D01*
X12474Y3154D01*
X12480Y3156D01*
X12487Y3158D01*
X12493Y3160D01*
X12499Y3164D01*
X12504Y3168D01*
X12509Y3172D01*
X12514Y3176D01*
X12517Y3182D01*
X12520Y3188D01*
X12523Y3194D01*
X12526Y3201D01*
X12527Y3208D01*
X12528Y3215D01*
Y3223D01*
Y3231D01*
X12527Y3238D02*
X12528Y3231D01*
X12526Y3245D02*
X12527Y3238D01*
X12523Y3252D02*
X12526Y3245D01*
X12520Y3258D02*
X12523Y3252D01*
X12517Y3264D02*
X12520Y3258D01*
X12514Y3269D02*
X12517Y3264D01*
X12509Y3274D02*
X12514Y3269D01*
X12504Y3278D02*
X12509Y3274D01*
X12502Y3281D02*
X12504Y3278D01*
X12499Y3282D02*
X12502Y3281D01*
X12493Y3286D02*
X12499Y3282D01*
X12487Y3288D02*
X12493Y3286D01*
X12480Y3290D02*
X12487Y3288D01*
X12474Y3292D02*
X12480Y3290D01*
X12466Y3293D02*
X12474Y3292D01*
X12459Y3293D02*
X12466Y3293D01*
X12463Y3271D02*
X12468Y3270D01*
X12471Y3270D01*
X12475Y3269D01*
X12479Y3267D01*
X12482Y3266D01*
X12485Y3264D01*
X12488Y3261D01*
X12491Y3259D01*
X12494Y3256D01*
X12496Y3253D01*
X12498Y3250D01*
X12500Y3246D01*
X12501Y3243D01*
X12503Y3239D01*
X12503Y3235D01*
X12459D02*
X12503D01*
X12414D02*
X12459D01*
X12414D02*
X12416Y3243D01*
X12418Y3246D01*
X12419Y3250D01*
X12421Y3253D01*
X12424Y3256D01*
X12426Y3259D01*
X12429Y3261D01*
X12432Y3264D01*
X12435Y3266D01*
X12439Y3267D01*
X12442Y3269D01*
X12446Y3270D01*
X12450Y3270D01*
X12459Y3271D01*
X12463D01*
X13115Y3270D02*
X13119Y3270D01*
X13112Y3269D02*
X13115Y3270D01*
X13108Y3267D02*
X13112Y3269D01*
X13104Y3266D02*
X13108Y3267D01*
X13101Y3264D02*
X13104Y3266D01*
X13098Y3261D02*
X13101Y3264D01*
X13095Y3259D02*
X13098Y3261D01*
X13092Y3256D02*
X13095Y3259D01*
X13090Y3253D02*
X13092Y3256D01*
X13089Y3250D02*
X13090Y3253D01*
X13087Y3246D02*
X13089Y3250D01*
X13086Y3243D02*
X13087Y3246D01*
X13084Y3239D02*
X13086Y3243D01*
X13083Y3235D02*
X13084Y3239D01*
X13083Y3235D02*
X13128D01*
X13173D01*
X13172Y3239D02*
X13173Y3235D01*
X13170Y3243D02*
X13172Y3239D01*
X13169Y3246D02*
X13170Y3243D01*
X13167Y3250D02*
X13169Y3246D01*
X13165Y3253D02*
X13167Y3250D01*
X13163Y3256D02*
X13165Y3253D01*
X13161Y3259D02*
X13163Y3256D01*
X13158Y3261D02*
X13161Y3259D01*
X13155Y3264D02*
X13158Y3261D01*
X13151Y3266D02*
X13155Y3264D01*
X13148Y3267D02*
X13151Y3266D01*
X13144Y3269D02*
X13148Y3267D01*
X13141Y3270D02*
X13144Y3269D01*
X13136Y3270D02*
X13141Y3270D01*
X13133Y3271D02*
X13136Y3270D01*
X13128Y3271D02*
X13133D01*
X13119Y3270D02*
X13128Y3271D01*
Y3293D02*
X13135Y3293D01*
X13143Y3292D01*
X13150Y3290D01*
X13156Y3288D01*
X13162Y3286D01*
X13168Y3282D01*
X13171Y3281D01*
X13173Y3278D01*
X13176Y3276D01*
X13179Y3274D01*
X13183Y3269D01*
X13187Y3264D01*
X13190Y3258D01*
X13193Y3252D01*
X13194Y3245D01*
X13196Y3238D01*
X13197Y3231D01*
Y3223D02*
Y3231D01*
Y3215D02*
Y3223D01*
X13196Y3208D02*
X13197Y3215D01*
X13194Y3201D02*
X13196Y3208D01*
X13193Y3194D02*
X13194Y3201D01*
X13190Y3188D02*
X13193Y3194D01*
X13187Y3182D02*
X13190Y3188D01*
X13183Y3176D02*
X13187Y3182D01*
X13179Y3172D02*
X13183Y3176D01*
X13176Y3170D02*
X13179Y3172D01*
X13173Y3168D02*
X13176Y3170D01*
X13168Y3164D02*
X13173Y3168D01*
X13162Y3160D02*
X13168Y3164D01*
X13156Y3158D02*
X13162Y3160D01*
X13150Y3156D02*
X13156Y3158D01*
X13143Y3154D02*
X13150Y3156D01*
X13135Y3153D02*
X13143Y3154D01*
X13128Y3153D02*
X13135Y3153D01*
X13121D02*
X13128Y3153D01*
X13116Y3153D02*
X13121D01*
X13110Y3155D02*
X13116Y3153D01*
X13105Y3156D02*
X13110Y3155D01*
X13100Y3158D02*
X13105Y3156D01*
X13095Y3159D02*
X13100Y3158D01*
X13090Y3162D02*
X13095Y3159D01*
X13086Y3165D02*
X13090Y3162D01*
X13081Y3168D02*
X13086Y3165D01*
X13077Y3171D02*
X13081Y3168D01*
X13074Y3175D02*
X13077Y3171D01*
X13071Y3179D02*
X13074Y3175D01*
X13068Y3184D02*
X13071Y3179D01*
X13065Y3188D02*
X13068Y3184D01*
X13063Y3193D02*
X13065Y3188D01*
X13061Y3198D02*
X13063Y3193D01*
X13061Y3198D02*
X13088D01*
X13090Y3193D01*
X13094Y3188D01*
X13098Y3185D01*
X13103Y3181D01*
X13108Y3179D01*
X13114Y3176D01*
X13121Y3176D01*
X13128Y3175D01*
X13133Y3176D01*
X13138D01*
X13142Y3176D01*
X13146Y3178D01*
X13150Y3179D01*
X13154Y3182D01*
X13157Y3184D01*
X13160Y3187D01*
X13164Y3190D01*
X13166Y3193D01*
X13168Y3197D01*
X13170Y3200D01*
X13171Y3204D01*
X13173Y3208D01*
Y3213D01*
X13173Y3217D01*
Y3218D01*
X13128D02*
X13173D01*
X13059D02*
X13128D01*
X13059D02*
Y3223D01*
Y3231D01*
X13060Y3238D01*
X13062Y3246D01*
X13063Y3252D01*
X13066Y3258D01*
X13069Y3264D01*
X13073Y3270D01*
X13077Y3274D01*
X13080Y3276D01*
X13082Y3278D01*
X13087Y3282D01*
X13093Y3286D01*
X13099Y3288D01*
X13106Y3290D01*
X13112Y3292D01*
X13120Y3293D01*
X13128Y3293D01*
D93*
X11863Y4806D02*
X11865Y4815D01*
X12105Y5085D01*
X12128Y5079D01*
X12150Y5073D01*
X12172Y5065D01*
X12193Y5059D01*
X12214Y5050D01*
X12234Y5043D01*
X12253Y5035D01*
X12273Y5026D01*
X12291Y5017D01*
X12309Y5008D01*
X12326Y4998D01*
X12343Y4989D01*
X12359Y4979D01*
X12375Y4969D01*
X12390Y4959D01*
X12405Y4948D01*
X12420Y4937D01*
X12434Y4926D01*
X12448Y4915D01*
X12460Y4904D01*
X12474Y4893D01*
X12485Y4881D01*
X12497Y4869D01*
X12509Y4857D01*
X12520Y4844D01*
X12531Y4832D01*
X12541Y4820D01*
X12552Y4807D01*
X12561Y4794D01*
X12571Y4782D01*
X12580Y4769D01*
X12589Y4756D01*
X12601Y4737D01*
X12613Y4718D01*
X12625Y4698D01*
X12636Y4679D01*
X12646Y4660D01*
X12657Y4640D01*
X12666Y4621D01*
X12675Y4601D01*
X12684Y4582D01*
X12693Y4563D01*
X12709Y4525D01*
X12741Y4451D01*
X12756Y4415D01*
X12771Y4382D01*
X12779Y4365D01*
X12787Y4349D01*
X12795Y4333D01*
X12803Y4319D01*
X12812Y4304D01*
X12821Y4289D01*
X12830Y4276D01*
X12839Y4263D01*
X12849Y4251D01*
X12854Y4245D01*
X12860Y4239D01*
X12865Y4233D01*
X12870Y4228D01*
X12881Y4217D01*
X12889Y4211D01*
X12895Y4205D01*
X12903Y4199D01*
X12911Y4194D01*
X12919Y4190D01*
X12927Y4185D01*
X12936Y4180D01*
X12945Y4176D01*
X12954Y4173D01*
X12963Y4170D01*
X12973Y4167D01*
X12983Y4164D01*
X12993Y4161D01*
X13004Y4159D01*
X13015Y4158D01*
X13026Y4157D01*
X13037Y4156D01*
X13048D01*
X13060Y4157D01*
X13071Y4158D01*
X13081Y4159D01*
X13092Y4161D01*
X13103Y4164D01*
X13114Y4167D01*
X13124Y4170D01*
X13134Y4174D01*
X13144Y4179D01*
X13154Y4183D01*
X13164Y4188D01*
X13173Y4193D01*
X13182Y4199D01*
X13191Y4206D01*
X13199Y4213D01*
X13207Y4220D01*
X13215Y4227D01*
X13223Y4235D01*
X13230Y4243D01*
X13237Y4252D01*
X13243Y4260D01*
X13249Y4269D01*
X13255Y4279D01*
X13260Y4289D01*
X13266Y4299D01*
X13270Y4310D01*
X13274Y4320D01*
X13278Y4330D01*
X13281Y4342D01*
X13283Y4354D01*
X13285Y4365D01*
X13286Y4378D01*
X13287Y4390D01*
X13288Y4403D01*
X13287Y4415D02*
X13288Y4403D01*
X13286Y4426D02*
X13287Y4415D01*
X13285Y4438D02*
X13286Y4426D01*
X13283Y4450D02*
X13285Y4438D01*
X13280Y4461D02*
X13283Y4450D01*
X13277Y4473D02*
X13280Y4461D01*
X13273Y4485D02*
X13277Y4473D01*
X13269Y4496D02*
X13273Y4485D01*
X13264Y4506D02*
X13269Y4496D01*
X13259Y4517D02*
X13264Y4506D01*
X13253Y4527D02*
X13259Y4517D01*
X13246Y4537D02*
X13253Y4527D01*
X13243Y4542D02*
X13246Y4537D01*
X13240Y4546D02*
X13243Y4542D01*
X13233Y4556D02*
X13240Y4546D01*
X13225Y4565D02*
X13233Y4556D01*
X13217Y4573D02*
X13225Y4565D01*
X13208Y4581D02*
X13217Y4573D01*
X13199Y4590D02*
X13208Y4581D01*
X13191Y4597D02*
X13199Y4590D01*
X13181Y4604D02*
X13191Y4597D01*
X13170Y4610D02*
X13181Y4604D01*
X13160Y4616D02*
X13170Y4610D01*
X13155Y4619D02*
X13160Y4616D01*
X13150Y4622D02*
X13155Y4619D01*
X13138Y4627D02*
X13150Y4622D01*
X13127Y4631D02*
X13138Y4627D01*
X13115Y4635D02*
X13127Y4631D01*
X13104Y4639D02*
X13115Y4635D01*
X13091Y4642D02*
X13104Y4639D01*
X13081Y4643D02*
X13091Y4642D01*
X13072Y4645D02*
X13081Y4643D01*
X13062Y4645D02*
X13072Y4645D01*
X13052Y4646D02*
X13062Y4645D01*
X13042Y4646D02*
X13052D01*
X13032D02*
X13042D01*
X13013Y4644D02*
X13032Y4646D01*
X13003Y4643D02*
X13013Y4644D01*
X12993Y4641D02*
X13003Y4643D01*
X12984Y4639D02*
X12993Y4641D01*
X12974Y4636D02*
X12984Y4639D01*
X12965Y4633D02*
X12974Y4636D01*
X12955Y4630D02*
X12965Y4633D01*
X12947Y4627D02*
X12955Y4630D01*
X12938Y4623D02*
X12947Y4627D01*
X12929Y4619D02*
X12938Y4623D01*
X12921Y4613D02*
X12929Y4619D01*
X12912Y4609D02*
X12921Y4613D01*
X12903Y4604D02*
X12912Y4609D01*
X12895Y4598D02*
X12903Y4604D01*
X12888Y4592D02*
X12895Y4598D01*
X12880Y4585D02*
X12888Y4592D01*
X12873Y4578D02*
X12880Y4585D01*
X12866Y4572D02*
X12873Y4578D01*
X12860Y4564D02*
X12866Y4572D01*
X12853Y4556D02*
X12860Y4564D01*
X12847Y4548D02*
X12853Y4556D01*
X12842Y4540D02*
X12847Y4548D01*
X12837Y4531D02*
X12842Y4540D01*
X12834Y4526D02*
X12837Y4531D01*
X12831Y4522D02*
X12834Y4526D01*
X12827Y4513D02*
X12831Y4522D01*
X12801Y4570D02*
X12827Y4513D01*
X12782Y4610D02*
X12801Y4570D01*
X12761Y4655D02*
X12782Y4610D01*
X12750Y4678D02*
X12761Y4655D01*
X12738Y4701D02*
X12750Y4678D01*
X12726Y4724D02*
X12738Y4701D01*
X12715Y4747D02*
X12726Y4724D01*
X12703Y4767D02*
X12715Y4747D01*
X12691Y4788D02*
X12703Y4767D01*
X12679Y4806D02*
X12691Y4788D01*
X12668Y4823D02*
X12679Y4806D01*
X12668Y4823D02*
X12680Y4833D01*
X12691Y4843D01*
X12705Y4852D01*
X12717Y4862D01*
X12731Y4871D01*
X12744Y4879D01*
X12758Y4887D01*
X12772Y4896D01*
X12786Y4903D01*
X12801Y4910D01*
X12815Y4917D01*
X12830Y4923D01*
X12845Y4929D01*
X12860Y4934D01*
X12876Y4939D01*
X12891Y4944D01*
X12907Y4948D01*
X12923Y4952D01*
X12938Y4955D01*
X12955Y4958D01*
X12971Y4960D01*
X12987Y4962D01*
X13004Y4963D01*
X13020Y4965D01*
X13037D01*
X13053D01*
X13070Y4964D01*
X13086Y4963D01*
X13104Y4962D01*
X13120Y4960D01*
X13137Y4957D01*
X13153Y4954D01*
X13167Y4951D01*
X13182Y4948D01*
X13196Y4944D01*
X13209Y4940D01*
X13223Y4936D01*
X13236Y4931D01*
X13249Y4926D01*
X13263Y4921D01*
X13275Y4915D01*
X13288Y4909D01*
X13300Y4903D01*
X13313Y4896D01*
X13324Y4890D01*
X13336Y4882D01*
X13348Y4875D01*
X13359Y4867D01*
X13371Y4860D01*
X13382Y4852D01*
X13392Y4843D01*
X13403Y4834D01*
X13423Y4817D01*
X13433Y4807D01*
X13443Y4797D01*
X13452Y4788D01*
X13461Y4778D01*
X13470Y4767D01*
X13479Y4757D01*
X13495Y4735D01*
X13504Y4725D01*
X13511Y4714D01*
X13519Y4702D01*
X13526Y4691D01*
X13533Y4679D01*
X13539Y4667D01*
X13545Y4655D01*
X13551Y4643D01*
X13557Y4630D01*
X13562Y4619D01*
X13568Y4606D01*
X13572Y4593D01*
X13577Y4580D01*
X13581Y4567D01*
X13585Y4554D01*
X13588Y4541D01*
X13591Y4528D01*
X13594Y4514D01*
X13597Y4501D01*
X13600Y4487D01*
X13602Y4473D01*
X13603Y4460D01*
X13606Y4432D01*
X13606Y4418D01*
Y4404D02*
Y4418D01*
X13606Y4376D02*
X13606Y4404D01*
X13605Y4362D02*
X13606Y4376D01*
X13603Y4348D02*
X13605Y4362D01*
X13602Y4333D02*
X13603Y4348D01*
X13600Y4319D02*
X13602Y4333D01*
X13595Y4290D02*
X13600Y4319D01*
X13592Y4276D02*
X13595Y4290D01*
X13589Y4262D02*
X13592Y4276D01*
X13585Y4249D02*
X13589Y4262D01*
X13581Y4234D02*
X13585Y4249D01*
X13577Y4222D02*
X13581Y4234D01*
X13573Y4208D02*
X13577Y4222D01*
X13568Y4196D02*
X13573Y4208D01*
X13563Y4183D02*
X13568Y4196D01*
X13558Y4170D02*
X13563Y4183D01*
X13552Y4158D02*
X13558Y4170D01*
X13546Y4146D02*
X13552Y4158D01*
X13540Y4135D02*
X13546Y4146D01*
X13534Y4123D02*
X13540Y4135D01*
X13527Y4112D02*
X13534Y4123D01*
X13521Y4100D02*
X13527Y4112D01*
X13514Y4090D02*
X13521Y4100D01*
X13507Y4080D02*
X13514Y4090D01*
X13500Y4069D02*
X13507Y4080D01*
X13484Y4049D02*
X13500Y4069D01*
X13476Y4039D02*
X13484Y4049D01*
X13469Y4030D02*
X13476Y4039D01*
X13460Y4021D02*
X13469Y4030D01*
X13452Y4012D02*
X13460Y4021D01*
X13443Y4003D02*
X13452Y4012D01*
X13434Y3995D02*
X13443Y4003D01*
X13426Y3986D02*
X13434Y3995D01*
X13417Y3978D02*
X13426Y3986D01*
X13407Y3970D02*
X13417Y3978D01*
X13398Y3963D02*
X13407Y3970D01*
X13388Y3955D02*
X13398Y3963D01*
X13379Y3948D02*
X13388Y3955D01*
X13359Y3935D02*
X13379Y3948D01*
X13339Y3922D02*
X13359Y3935D01*
X13330Y3916D02*
X13339Y3922D01*
X13319Y3911D02*
X13330Y3916D01*
X13309Y3905D02*
X13319Y3911D01*
X13298Y3899D02*
X13309Y3905D01*
X13288Y3894D02*
X13298Y3899D01*
X13278Y3889D02*
X13288Y3894D01*
X13257Y3880D02*
X13278Y3889D01*
X13235Y3872D02*
X13257Y3880D01*
X13225Y3868D02*
X13235Y3872D01*
X13214Y3864D02*
X13225Y3868D01*
X13192Y3858D02*
X13214Y3864D01*
X13170Y3852D02*
X13192Y3858D01*
X13160Y3849D02*
X13170Y3852D01*
X13149Y3847D02*
X13160Y3849D01*
X13128Y3844D02*
X13149Y3847D01*
X13106Y3841D02*
X13128Y3844D01*
X13085Y3838D02*
X13106Y3841D01*
X13064Y3837D02*
X13085Y3838D01*
X13043Y3836D02*
X13064Y3837D01*
X13023D02*
X13043Y3836D01*
X13004Y3838D02*
X13023Y3837D01*
X12984Y3839D02*
X13004Y3838D01*
X12964Y3842D02*
X12984Y3839D01*
X12955Y3844D02*
X12964Y3842D01*
X12946Y3845D02*
X12955Y3844D01*
X12926Y3849D02*
X12946Y3845D01*
X12908Y3853D02*
X12926Y3849D01*
X12898Y3855D02*
X12908Y3853D01*
X12889Y3858D02*
X12898Y3855D01*
X12871Y3864D02*
X12889Y3858D01*
X12853Y3870D02*
X12871Y3864D01*
X12835Y3877D02*
X12853Y3870D01*
X12818Y3884D02*
X12835Y3877D01*
X12801Y3893D02*
X12818Y3884D01*
X12784Y3901D02*
X12801Y3893D01*
X12767Y3911D02*
X12784Y3901D01*
X12751Y3920D02*
X12767Y3911D01*
X12735Y3931D02*
X12751Y3920D01*
X12719Y3941D02*
X12735Y3931D01*
X12704Y3953D02*
X12719Y3941D01*
X12689Y3965D02*
X12704Y3953D01*
X12674Y3977D02*
X12689Y3965D01*
X12667Y3983D02*
X12674Y3977D01*
X12660Y3990D02*
X12667Y3983D01*
X12647Y4003D02*
X12660Y3990D01*
X12633Y4017D02*
X12647Y4003D01*
X12620Y4031D02*
X12633Y4017D01*
X12607Y4046D02*
X12620Y4031D01*
X12601Y4053D02*
X12607Y4046D01*
X12596Y4061D02*
X12601Y4053D01*
X12584Y4077D02*
X12596Y4061D01*
X12572Y4093D02*
X12584Y4077D01*
X12562Y4109D02*
X12572Y4093D01*
X12552Y4126D02*
X12562Y4109D01*
X12542Y4143D02*
X12552Y4126D01*
X12529Y4167D02*
X12542Y4143D01*
X12517Y4192D02*
X12529Y4167D01*
X12505Y4217D02*
X12517Y4192D01*
X12494Y4242D02*
X12505Y4217D01*
X12471Y4292D02*
X12494Y4242D01*
X12448Y4343D02*
X12471Y4292D01*
X12437Y4368D02*
X12448Y4343D01*
X12425Y4394D02*
X12437Y4368D01*
X12413Y4419D02*
X12425Y4394D01*
X12401Y4444D02*
X12413Y4419D01*
X12394Y4456D02*
X12401Y4444D01*
X12387Y4469D02*
X12394Y4456D01*
X12373Y4493D02*
X12387Y4469D01*
X12366Y4505D02*
X12373Y4493D01*
X12358Y4517D02*
X12366Y4505D01*
X12342Y4540D02*
X12358Y4517D01*
X12325Y4563D02*
X12342Y4540D01*
X12316Y4575D02*
X12325Y4563D01*
X12307Y4586D02*
X12316Y4575D01*
X12297Y4597D02*
X12307Y4586D01*
X12287Y4607D02*
X12297Y4597D01*
X12276Y4619D02*
X12287Y4607D01*
X12266Y4629D02*
X12276Y4619D01*
X12255Y4639D02*
X12266Y4629D01*
X12244Y4649D02*
X12255Y4639D01*
X12232Y4659D02*
X12244Y4649D01*
X12219Y4668D02*
X12232Y4659D01*
X12207Y4678D02*
X12219Y4668D01*
X12193Y4687D02*
X12207Y4678D01*
X12180Y4696D02*
X12193Y4687D01*
X12166Y4705D02*
X12180Y4696D01*
X12151Y4713D02*
X12166Y4705D01*
X12136Y4721D02*
X12151Y4713D01*
X12120Y4729D02*
X12136Y4721D01*
X12104Y4737D02*
X12120Y4729D01*
X12088Y4744D02*
X12104Y4737D01*
X12070Y4752D02*
X12088Y4744D01*
X12052Y4759D02*
X12070Y4752D01*
X12034Y4765D02*
X12052Y4759D01*
X12015Y4771D02*
X12034Y4765D01*
X11995Y4777D02*
X12015Y4771D01*
X11974Y4783D02*
X11995Y4777D01*
X11954Y4788D02*
X11974Y4783D01*
X11932Y4794D02*
X11954Y4788D01*
X11910Y4798D02*
X11932Y4794D01*
X11887Y4802D02*
X11910Y4798D01*
X11863Y4806D02*
X11887Y4802D01*
X12739Y3453D02*
X12985Y3731D01*
X12720Y3458D02*
X12739Y3453D01*
X12702Y3464D02*
X12720Y3458D01*
X12666Y3475D02*
X12702Y3464D01*
X12633Y3488D02*
X12666Y3475D01*
X12600Y3501D02*
X12633Y3488D01*
X12584Y3508D02*
X12600Y3501D01*
X12569Y3514D02*
X12584Y3508D01*
X12554Y3522D02*
X12569Y3514D01*
X12540Y3529D02*
X12554Y3522D01*
X12526Y3538D02*
X12540Y3529D01*
X12511Y3545D02*
X12526Y3538D01*
X12498Y3553D02*
X12511Y3545D01*
X12485Y3561D02*
X12498Y3553D01*
X12472Y3570D02*
X12485Y3561D01*
X12459Y3578D02*
X12472Y3570D01*
X12448Y3587D02*
X12459Y3578D01*
X12436Y3596D02*
X12448Y3587D01*
X12424Y3605D02*
X12436Y3596D01*
X12413Y3613D02*
X12424Y3605D01*
X12401Y3622D02*
X12413Y3613D01*
X12391Y3632D02*
X12401Y3622D01*
X12370Y3651D02*
X12391Y3632D01*
X12360Y3660D02*
X12370Y3651D01*
X12350Y3670D02*
X12360Y3660D01*
X12341Y3680D02*
X12350Y3670D01*
X12332Y3690D02*
X12341Y3680D01*
X12314Y3710D02*
X12332Y3690D01*
X12301Y3726D02*
X12314Y3710D01*
X12288Y3742D02*
X12301Y3726D01*
X12276Y3758D02*
X12288Y3742D01*
X12265Y3775D02*
X12276Y3758D01*
X12254Y3791D02*
X12265Y3775D01*
X12243Y3808D02*
X12254Y3791D01*
X12223Y3841D02*
X12243Y3808D01*
X12214Y3858D02*
X12223Y3841D01*
X12204Y3875D02*
X12214Y3858D01*
X12187Y3909D02*
X12204Y3875D01*
X12171Y3943D02*
X12187Y3909D01*
X12156Y3976D02*
X12171Y3943D01*
X12141Y4010D02*
X12156Y3976D01*
X12128Y4042D02*
X12141Y4010D01*
X12114Y4074D02*
X12128Y4042D01*
X12101Y4106D02*
X12114Y4074D01*
X12088Y4135D02*
X12101Y4106D01*
X12081Y4150D02*
X12088Y4135D01*
X12074Y4164D02*
X12081Y4150D01*
X12060Y4193D02*
X12074Y4164D01*
X12053Y4206D02*
X12060Y4193D01*
X12046Y4220D02*
X12053Y4206D01*
X12041Y4228D02*
X12046Y4220D01*
X12036Y4236D02*
X12041Y4228D01*
X12027Y4252D02*
X12036Y4236D01*
X12016Y4266D02*
X12027Y4252D01*
X12005Y4281D02*
X12016Y4266D01*
X12000Y4287D02*
X12005Y4281D01*
X11994Y4294D02*
X12000Y4287D01*
X11988Y4301D02*
X11994Y4294D01*
X11982Y4307D02*
X11988Y4301D01*
X11976Y4313D02*
X11982Y4307D01*
X11970Y4319D02*
X11976Y4313D01*
X11957Y4329D02*
X11970Y4319D01*
X11943Y4339D02*
X11957Y4329D01*
X11936Y4344D02*
X11943Y4339D01*
X11928Y4348D02*
X11936Y4344D01*
X11921Y4352D02*
X11928Y4348D01*
X11913Y4356D02*
X11921Y4352D01*
X11897Y4363D02*
X11913Y4356D01*
X11889Y4366D02*
X11897Y4363D01*
X11881Y4369D02*
X11889Y4366D01*
X11872Y4371D02*
X11881Y4369D01*
X11863Y4374D02*
X11872Y4371D01*
X11853Y4376D02*
X11863Y4374D01*
X11844Y4377D02*
X11853Y4376D01*
X11834Y4379D02*
X11844Y4377D01*
X11824Y4380D02*
X11834Y4379D01*
X11813Y4380D02*
X11824D01*
X11802D02*
X11813D01*
X11791D02*
X11802D01*
X11780Y4378D02*
X11791Y4380D01*
X11768Y4377D02*
X11780Y4378D01*
X11758Y4375D02*
X11768Y4377D01*
X11747Y4372D02*
X11758Y4375D01*
X11736Y4369D02*
X11747Y4372D01*
X11726Y4366D02*
X11736Y4369D01*
X11716Y4362D02*
X11726Y4366D01*
X11706Y4358D02*
X11716Y4362D01*
X11696Y4354D02*
X11706Y4358D01*
X11687Y4348D02*
X11696Y4354D01*
X11678Y4342D02*
X11687Y4348D01*
X11668Y4336D02*
X11678Y4342D01*
X11660Y4330D02*
X11668Y4336D01*
X11651Y4324D02*
X11660Y4330D01*
X11643Y4316D02*
X11651Y4324D01*
X11635Y4309D02*
X11643Y4316D01*
X11627Y4301D02*
X11635Y4309D01*
X11620Y4293D02*
X11627Y4301D01*
X11613Y4284D02*
X11620Y4293D01*
X11607Y4275D02*
X11613Y4284D01*
X11600Y4266D02*
X11607Y4275D01*
X11595Y4257D02*
X11600Y4266D01*
X11590Y4247D02*
X11595Y4257D01*
X11585Y4237D02*
X11590Y4247D01*
X11580Y4227D02*
X11585Y4237D01*
X11577Y4217D02*
X11580Y4227D01*
X11573Y4205D02*
X11577Y4217D01*
X11570Y4195D02*
X11573Y4205D01*
X11567Y4183D02*
X11570Y4195D01*
X11565Y4171D02*
X11567Y4183D01*
X11563Y4158D02*
X11565Y4171D01*
X11562Y4147D02*
X11563Y4158D01*
X11562Y4134D02*
Y4147D01*
Y4122D02*
Y4134D01*
Y4122D02*
X11564Y4110D01*
X11565Y4098D01*
X11568Y4086D01*
X11570Y4074D01*
X11574Y4063D01*
X11577Y4052D01*
X11581Y4041D01*
X11586Y4030D01*
X11591Y4020D01*
X11597Y4010D01*
X11603Y4000D01*
X11607Y3995D01*
X11610Y3990D01*
X11617Y3981D01*
X11625Y3972D01*
X11633Y3963D01*
X11642Y3955D01*
X11650Y3947D01*
X11660Y3940D01*
X11670Y3933D01*
X11679Y3926D01*
X11690Y3920D01*
X11696Y3918D01*
X11701Y3915D01*
X11712Y3910D01*
X11717Y3908D01*
X11723Y3905D01*
X11735Y3902D01*
X11741Y3900D01*
X11747Y3899D01*
X11759Y3896D01*
X11768Y3894D01*
X11778Y3893D01*
X11789Y3891D01*
X11798D01*
X11808Y3890D01*
X11818Y3891D01*
X11837Y3893D01*
X11847Y3894D01*
X11852Y3895D01*
X11856Y3896D01*
X11866Y3898D01*
X11876Y3900D01*
X11884Y3903D01*
X11894Y3907D01*
X11903Y3910D01*
X11912Y3914D01*
X11921Y3918D01*
X11930Y3923D01*
X11938Y3928D01*
X11946Y3934D01*
X11954Y3939D01*
X11962Y3945D01*
X11969Y3951D01*
X11977Y3958D01*
X11983Y3965D01*
X11990Y3972D01*
X11997Y3981D01*
X12003Y3988D01*
X12009Y3997D01*
X12014Y4005D01*
X12019Y4014D01*
X12024Y4024D01*
X12049Y3966D01*
X12067Y3926D01*
X12088Y3882D01*
X12099Y3858D01*
X12111Y3835D01*
X12123Y3812D01*
X12135Y3790D01*
X12147Y3769D01*
X12159Y3749D01*
X12171Y3730D01*
X12177Y3722D01*
X12182Y3714D01*
X12170Y3704D02*
X12182Y3714D01*
X12157Y3694D02*
X12170Y3704D01*
X12145Y3684D02*
X12157Y3694D01*
X12132Y3675D02*
X12145Y3684D01*
X12119Y3666D02*
X12132Y3675D01*
X12105Y3657D02*
X12119Y3666D01*
X12092Y3649D02*
X12105Y3657D01*
X12078Y3641D02*
X12092Y3649D01*
X12064Y3634D02*
X12078Y3641D01*
X12049Y3627D02*
X12064Y3634D01*
X12035Y3620D02*
X12049Y3627D01*
X12020Y3613D02*
X12035Y3620D01*
X12005Y3608D02*
X12020Y3613D01*
X11989Y3602D02*
X12005Y3608D01*
X11974Y3597D02*
X11989Y3602D01*
X11959Y3593D02*
X11974Y3597D01*
X11943Y3589D02*
X11959Y3593D01*
X11928Y3585D02*
X11943Y3589D01*
X11911Y3581D02*
X11928Y3585D01*
X11896Y3578D02*
X11911Y3581D01*
X11879Y3576D02*
X11896Y3578D01*
X11863Y3575D02*
X11879Y3576D01*
X11847Y3573D02*
X11863Y3575D01*
X11830Y3573D02*
X11847Y3573D01*
X11814Y3572D02*
X11830Y3573D01*
X11797Y3572D02*
X11814D01*
X11780Y3573D02*
X11797Y3572D01*
X11763Y3573D02*
X11780Y3573D01*
X11747Y3575D02*
X11763Y3573D01*
X11730Y3577D02*
X11747Y3575D01*
X11713Y3579D02*
X11730Y3577D01*
X11696Y3582D02*
X11713Y3579D01*
X11682Y3586D02*
X11696Y3582D01*
X11668Y3589D02*
X11682Y3586D01*
X11655Y3593D02*
X11668Y3589D01*
X11641Y3597D02*
X11655Y3593D01*
X11627Y3601D02*
X11641Y3597D01*
X11614Y3606D02*
X11627Y3601D01*
X11600Y3611D02*
X11614Y3606D01*
X11588Y3616D02*
X11600Y3611D01*
X11575Y3622D02*
X11588Y3616D01*
X11562Y3628D02*
X11575Y3622D01*
X11550Y3634D02*
X11562Y3628D01*
X11538Y3640D02*
X11550Y3634D01*
X11525Y3647D02*
X11538Y3640D01*
X11513Y3654D02*
X11525Y3647D01*
X11502Y3662D02*
X11513Y3654D01*
X11490Y3669D02*
X11502Y3662D01*
X11479Y3677D02*
X11490Y3669D01*
X11469Y3685D02*
X11479Y3677D01*
X11458Y3694D02*
X11469Y3685D01*
X11447Y3702D02*
X11458Y3694D01*
X11426Y3720D02*
X11447Y3702D01*
X11417Y3730D02*
X11426Y3720D01*
X11407Y3739D02*
X11417Y3730D01*
X11397Y3749D02*
X11407Y3739D01*
X11388Y3759D02*
X11397Y3749D01*
X11379Y3769D02*
X11388Y3759D01*
X11371Y3780D02*
X11379Y3769D01*
X11354Y3801D02*
X11371Y3780D01*
X11347Y3812D02*
X11354Y3801D01*
X11339Y3823D02*
X11347Y3812D01*
X11331Y3835D02*
X11339Y3823D01*
X11324Y3846D02*
X11331Y3835D01*
X11318Y3858D02*
X11324Y3846D01*
X11311Y3870D02*
X11318Y3858D01*
X11305Y3882D02*
X11311Y3870D01*
X11298Y3893D02*
X11305Y3882D01*
X11293Y3906D02*
X11298Y3893D01*
X11288Y3918D02*
X11293Y3906D01*
X11283Y3931D02*
X11288Y3918D01*
X11278Y3943D02*
X11283Y3931D01*
X11273Y3957D02*
X11278Y3943D01*
X11269Y3969D02*
X11273Y3957D01*
X11265Y3983D02*
X11269Y3969D01*
X11262Y3995D02*
X11265Y3983D01*
X11258Y4009D02*
X11262Y3995D01*
X11255Y4022D02*
X11258Y4009D01*
X11253Y4036D02*
X11255Y4022D01*
X11251Y4049D02*
X11253Y4036D01*
X11249Y4063D02*
X11251Y4049D01*
X11247Y4077D02*
X11249Y4063D01*
X11245Y4104D02*
X11247Y4077D01*
X11244Y4118D02*
X11245Y4104D01*
X11244Y4118D02*
Y4132D01*
Y4161D01*
X11246Y4175D01*
X11246Y4189D01*
X11248Y4203D01*
X11250Y4217D01*
X11255Y4246D01*
X11258Y4262D01*
X11262Y4278D01*
X11266Y4294D01*
X11271Y4309D01*
X11276Y4324D01*
X11281Y4339D01*
X11287Y4354D01*
X11293Y4368D01*
X11300Y4382D01*
X11307Y4395D01*
X11313Y4409D01*
X11321Y4421D01*
X11328Y4434D01*
X11336Y4447D01*
X11344Y4458D01*
X11353Y4470D01*
X11362Y4482D01*
X11371Y4493D01*
X11379Y4504D01*
X11389Y4514D01*
X11399Y4525D01*
X11408Y4534D01*
X11418Y4544D01*
X11429Y4554D01*
X11439Y4563D01*
X11449Y4572D01*
X11472Y4588D01*
X11483Y4596D01*
X11494Y4604D01*
X11505Y4611D01*
X11516Y4618D01*
X11528Y4625D01*
X11540Y4631D01*
X11552Y4637D01*
X11564Y4643D01*
X11576Y4649D01*
X11588Y4654D01*
X11600Y4659D01*
X11612Y4664D01*
X11624Y4668D01*
X11636Y4672D01*
X11649Y4676D01*
X11661Y4680D01*
X11673Y4683D01*
X11685Y4686D01*
X11698Y4689D01*
X11710Y4691D01*
X11722Y4693D01*
X11734Y4695D01*
X11747Y4697D01*
X11759Y4698D01*
X11783Y4700D01*
X11794Y4700D01*
X11806D01*
X11818D01*
X11829Y4700D01*
X11841Y4699D01*
X11852Y4698D01*
X11864Y4697D01*
X11875Y4696D01*
X11886Y4694D01*
X11896Y4692D01*
X11918Y4688D01*
X11938Y4683D01*
X11957Y4677D01*
X11977Y4671D01*
X11995Y4665D01*
X12013Y4660D01*
X12030Y4653D01*
X12047Y4645D01*
X12062Y4638D01*
X12078Y4630D01*
X12093Y4622D01*
X12107Y4614D01*
X12121Y4605D01*
X12134Y4596D01*
X12147Y4587D01*
X12159Y4578D01*
X12171Y4567D01*
X12183Y4558D01*
X12194Y4547D01*
X12204Y4537D01*
X12215Y4525D01*
X12224Y4514D01*
X12230Y4509D01*
X12234Y4503D01*
X12244Y4492D01*
X12253Y4480D01*
X12261Y4468D01*
X12270Y4456D01*
X12278Y4444D01*
X12294Y4419D01*
X12308Y4394D01*
X12314Y4382D01*
X12320Y4369D01*
X12333Y4345D01*
X12345Y4320D01*
X12356Y4295D01*
X12378Y4244D01*
X12401Y4193D01*
X12413Y4168D01*
X12424Y4143D01*
X12436Y4117D01*
X12449Y4093D01*
X12462Y4068D01*
X12477Y4044D01*
X12484Y4032D01*
X12491Y4020D01*
X12508Y3996D01*
X12525Y3974D01*
X12534Y3962D01*
X12543Y3951D01*
X12552Y3940D01*
X12563Y3929D01*
X12572Y3919D01*
X12584Y3908D01*
X12595Y3898D01*
X12606Y3888D01*
X12618Y3879D01*
X12630Y3869D01*
X12643Y3859D01*
X12656Y3850D01*
X12670Y3841D01*
X12684Y3832D01*
X12698Y3823D01*
X12714Y3815D01*
X12729Y3808D01*
X12745Y3800D01*
X12762Y3792D01*
X12779Y3785D01*
X12797Y3779D01*
X12816Y3772D01*
X12834Y3765D01*
X12854Y3759D01*
X12874Y3754D01*
X12895Y3749D01*
X12917Y3744D01*
X12939Y3739D01*
X12962Y3735D01*
X12985Y3731D01*
M02*
