%FSLAX24Y24*%
%MOIN*%
G70*
G01*
G75*
G04 Layer_Color=16777200*
%ADD10C,0.0060*%
%ADD11C,0.0197*%
G04:AMPARAMS|DCode=12|XSize=55.1mil|YSize=39.4mil|CornerRadius=3mil|HoleSize=0mil|Usage=FLASHONLY|Rotation=0.000|XOffset=0mil|YOffset=0mil|HoleType=Round|Shape=RoundedRectangle|*
%AMROUNDEDRECTD12*
21,1,0.0551,0.0335,0,0,0.0*
21,1,0.0492,0.0394,0,0,0.0*
1,1,0.0059,0.0246,-0.0167*
1,1,0.0059,-0.0246,-0.0167*
1,1,0.0059,-0.0246,0.0167*
1,1,0.0059,0.0246,0.0167*
%
%ADD12ROUNDEDRECTD12*%
G04:AMPARAMS|DCode=13|XSize=31.5mil|YSize=23.6mil|CornerRadius=1.2mil|HoleSize=0mil|Usage=FLASHONLY|Rotation=90.000|XOffset=0mil|YOffset=0mil|HoleType=Round|Shape=RoundedRectangle|*
%AMROUNDEDRECTD13*
21,1,0.0315,0.0213,0,0,90.0*
21,1,0.0291,0.0236,0,0,90.0*
1,1,0.0024,0.0106,0.0146*
1,1,0.0024,0.0106,-0.0146*
1,1,0.0024,-0.0106,-0.0146*
1,1,0.0024,-0.0106,0.0146*
%
%ADD13ROUNDEDRECTD13*%
G04:AMPARAMS|DCode=14|XSize=19.7mil|YSize=19.7mil|CornerRadius=1mil|HoleSize=0mil|Usage=FLASHONLY|Rotation=90.000|XOffset=0mil|YOffset=0mil|HoleType=Round|Shape=RoundedRectangle|*
%AMROUNDEDRECTD14*
21,1,0.0197,0.0177,0,0,90.0*
21,1,0.0177,0.0197,0,0,90.0*
1,1,0.0020,0.0089,0.0089*
1,1,0.0020,0.0089,-0.0089*
1,1,0.0020,-0.0089,-0.0089*
1,1,0.0020,-0.0089,0.0089*
%
%ADD14ROUNDEDRECTD14*%
G04:AMPARAMS|DCode=15|XSize=19.7mil|YSize=19.7mil|CornerRadius=1mil|HoleSize=0mil|Usage=FLASHONLY|Rotation=180.000|XOffset=0mil|YOffset=0mil|HoleType=Round|Shape=RoundedRectangle|*
%AMROUNDEDRECTD15*
21,1,0.0197,0.0177,0,0,180.0*
21,1,0.0177,0.0197,0,0,180.0*
1,1,0.0020,-0.0089,0.0089*
1,1,0.0020,0.0089,0.0089*
1,1,0.0020,0.0089,-0.0089*
1,1,0.0020,-0.0089,-0.0089*
%
%ADD15ROUNDEDRECTD15*%
G04:AMPARAMS|DCode=16|XSize=15.7mil|YSize=19.7mil|CornerRadius=0mil|HoleSize=0mil|Usage=FLASHONLY|Rotation=90.000|XOffset=0mil|YOffset=0mil|HoleType=Round|Shape=Octagon|*
%AMOCTAGOND16*
4,1,8,-0.0098,-0.0039,-0.0098,0.0039,-0.0059,0.0079,0.0059,0.0079,0.0098,0.0039,0.0098,-0.0039,0.0059,-0.0079,-0.0059,-0.0079,-0.0098,-0.0039,0.0*
%
%ADD16OCTAGOND16*%

G04:AMPARAMS|DCode=17|XSize=31.5mil|YSize=23.6mil|CornerRadius=1.2mil|HoleSize=0mil|Usage=FLASHONLY|Rotation=0.000|XOffset=0mil|YOffset=0mil|HoleType=Round|Shape=RoundedRectangle|*
%AMROUNDEDRECTD17*
21,1,0.0315,0.0213,0,0,0.0*
21,1,0.0291,0.0236,0,0,0.0*
1,1,0.0024,0.0146,-0.0106*
1,1,0.0024,-0.0146,-0.0106*
1,1,0.0024,-0.0146,0.0106*
1,1,0.0024,0.0146,0.0106*
%
%ADD17ROUNDEDRECTD17*%
G04:AMPARAMS|DCode=18|XSize=15.7mil|YSize=19.7mil|CornerRadius=0mil|HoleSize=0mil|Usage=FLASHONLY|Rotation=0.000|XOffset=0mil|YOffset=0mil|HoleType=Round|Shape=Octagon|*
%AMOCTAGOND18*
4,1,8,-0.0039,0.0098,0.0039,0.0098,0.0079,0.0059,0.0079,-0.0059,0.0039,-0.0098,-0.0039,-0.0098,-0.0079,-0.0059,-0.0079,0.0059,-0.0039,0.0098,0.0*
%
%ADD18OCTAGOND18*%

G04:AMPARAMS|DCode=19|XSize=13.8mil|YSize=33.5mil|CornerRadius=0.7mil|HoleSize=0mil|Usage=FLASHONLY|Rotation=270.000|XOffset=0mil|YOffset=0mil|HoleType=Round|Shape=RoundedRectangle|*
%AMROUNDEDRECTD19*
21,1,0.0138,0.0321,0,0,270.0*
21,1,0.0124,0.0335,0,0,270.0*
1,1,0.0014,-0.0160,-0.0062*
1,1,0.0014,-0.0160,0.0062*
1,1,0.0014,0.0160,0.0062*
1,1,0.0014,0.0160,-0.0062*
%
%ADD19ROUNDEDRECTD19*%
G04:AMPARAMS|DCode=20|XSize=25.6mil|YSize=39.4mil|CornerRadius=2.6mil|HoleSize=0mil|Usage=FLASHONLY|Rotation=90.000|XOffset=0mil|YOffset=0mil|HoleType=Round|Shape=RoundedRectangle|*
%AMROUNDEDRECTD20*
21,1,0.0256,0.0343,0,0,90.0*
21,1,0.0205,0.0394,0,0,90.0*
1,1,0.0051,0.0171,0.0102*
1,1,0.0051,0.0171,-0.0102*
1,1,0.0051,-0.0171,-0.0102*
1,1,0.0051,-0.0171,0.0102*
%
%ADD20ROUNDEDRECTD20*%
G04:AMPARAMS|DCode=21|XSize=196.9mil|YSize=196.9mil|CornerRadius=9.8mil|HoleSize=0mil|Usage=FLASHONLY|Rotation=90.000|XOffset=0mil|YOffset=0mil|HoleType=Round|Shape=RoundedRectangle|*
%AMROUNDEDRECTD21*
21,1,0.1969,0.1772,0,0,90.0*
21,1,0.1772,0.1969,0,0,90.0*
1,1,0.0197,0.0886,0.0886*
1,1,0.0197,0.0886,-0.0886*
1,1,0.0197,-0.0886,-0.0886*
1,1,0.0197,-0.0886,0.0886*
%
%ADD21ROUNDEDRECTD21*%
G04:AMPARAMS|DCode=22|XSize=47.2mil|YSize=11.8mil|CornerRadius=5.9mil|HoleSize=0mil|Usage=FLASHONLY|Rotation=90.000|XOffset=0mil|YOffset=0mil|HoleType=Round|Shape=RoundedRectangle|*
%AMROUNDEDRECTD22*
21,1,0.0472,0.0000,0,0,90.0*
21,1,0.0354,0.0118,0,0,90.0*
1,1,0.0118,0.0000,0.0177*
1,1,0.0118,0.0000,-0.0177*
1,1,0.0118,0.0000,-0.0177*
1,1,0.0118,0.0000,0.0177*
%
%ADD22ROUNDEDRECTD22*%
G04:AMPARAMS|DCode=23|XSize=47.2mil|YSize=11.8mil|CornerRadius=5.9mil|HoleSize=0mil|Usage=FLASHONLY|Rotation=0.000|XOffset=0mil|YOffset=0mil|HoleType=Round|Shape=RoundedRectangle|*
%AMROUNDEDRECTD23*
21,1,0.0472,0.0000,0,0,0.0*
21,1,0.0354,0.0118,0,0,0.0*
1,1,0.0118,0.0177,0.0000*
1,1,0.0118,-0.0177,0.0000*
1,1,0.0118,-0.0177,0.0000*
1,1,0.0118,0.0177,0.0000*
%
%ADD23ROUNDEDRECTD23*%
G04:AMPARAMS|DCode=24|XSize=39mil|YSize=11.8mil|CornerRadius=0.9mil|HoleSize=0mil|Usage=FLASHONLY|Rotation=180.000|XOffset=0mil|YOffset=0mil|HoleType=Round|Shape=RoundedRectangle|*
%AMROUNDEDRECTD24*
21,1,0.0390,0.0100,0,0,180.0*
21,1,0.0372,0.0118,0,0,180.0*
1,1,0.0018,-0.0186,0.0050*
1,1,0.0018,0.0186,0.0050*
1,1,0.0018,0.0186,-0.0050*
1,1,0.0018,-0.0186,-0.0050*
%
%ADD24ROUNDEDRECTD24*%
G04:AMPARAMS|DCode=25|XSize=31.5mil|YSize=29.5mil|CornerRadius=3mil|HoleSize=0mil|Usage=FLASHONLY|Rotation=180.000|XOffset=0mil|YOffset=0mil|HoleType=Round|Shape=RoundedRectangle|*
%AMROUNDEDRECTD25*
21,1,0.0315,0.0236,0,0,180.0*
21,1,0.0256,0.0295,0,0,180.0*
1,1,0.0059,-0.0128,0.0118*
1,1,0.0059,0.0128,0.0118*
1,1,0.0059,0.0128,-0.0118*
1,1,0.0059,-0.0128,-0.0118*
%
%ADD25ROUNDEDRECTD25*%
G04:AMPARAMS|DCode=26|XSize=31.5mil|YSize=29.5mil|CornerRadius=3mil|HoleSize=0mil|Usage=FLASHONLY|Rotation=270.000|XOffset=0mil|YOffset=0mil|HoleType=Round|Shape=RoundedRectangle|*
%AMROUNDEDRECTD26*
21,1,0.0315,0.0236,0,0,270.0*
21,1,0.0256,0.0295,0,0,270.0*
1,1,0.0059,-0.0118,-0.0128*
1,1,0.0059,-0.0118,0.0128*
1,1,0.0059,0.0118,0.0128*
1,1,0.0059,0.0118,-0.0128*
%
%ADD26ROUNDEDRECTD26*%
G04:AMPARAMS|DCode=27|XSize=31.5mil|YSize=31.5mil|CornerRadius=3.2mil|HoleSize=0mil|Usage=FLASHONLY|Rotation=180.000|XOffset=0mil|YOffset=0mil|HoleType=Round|Shape=RoundedRectangle|*
%AMROUNDEDRECTD27*
21,1,0.0315,0.0252,0,0,180.0*
21,1,0.0252,0.0315,0,0,180.0*
1,1,0.0063,-0.0126,0.0126*
1,1,0.0063,0.0126,0.0126*
1,1,0.0063,0.0126,-0.0126*
1,1,0.0063,-0.0126,-0.0126*
%
%ADD27ROUNDEDRECTD27*%
G04:AMPARAMS|DCode=28|XSize=31.5mil|YSize=31.5mil|CornerRadius=3.2mil|HoleSize=0mil|Usage=FLASHONLY|Rotation=90.000|XOffset=0mil|YOffset=0mil|HoleType=Round|Shape=RoundedRectangle|*
%AMROUNDEDRECTD28*
21,1,0.0315,0.0252,0,0,90.0*
21,1,0.0252,0.0315,0,0,90.0*
1,1,0.0063,0.0126,0.0126*
1,1,0.0063,0.0126,-0.0126*
1,1,0.0063,-0.0126,-0.0126*
1,1,0.0063,-0.0126,0.0126*
%
%ADD28ROUNDEDRECTD28*%
G04:AMPARAMS|DCode=29|XSize=47.2mil|YSize=78.7mil|CornerRadius=3.5mil|HoleSize=0mil|Usage=FLASHONLY|Rotation=90.000|XOffset=0mil|YOffset=0mil|HoleType=Round|Shape=RoundedRectangle|*
%AMROUNDEDRECTD29*
21,1,0.0472,0.0717,0,0,90.0*
21,1,0.0402,0.0787,0,0,90.0*
1,1,0.0071,0.0358,0.0201*
1,1,0.0071,0.0358,-0.0201*
1,1,0.0071,-0.0358,-0.0201*
1,1,0.0071,-0.0358,0.0201*
%
%ADD29ROUNDEDRECTD29*%
G04:AMPARAMS|DCode=30|XSize=47.2mil|YSize=78.7mil|CornerRadius=0mil|HoleSize=0mil|Usage=FLASHONLY|Rotation=90.000|XOffset=0mil|YOffset=0mil|HoleType=Round|Shape=RoundedRectangle|*
%AMROUNDEDRECTD30*
21,1,0.0472,0.0787,0,0,90.0*
21,1,0.0472,0.0787,0,0,90.0*
1,1,0.0000,0.0394,0.0236*
1,1,0.0000,0.0394,-0.0236*
1,1,0.0000,-0.0394,-0.0236*
1,1,0.0000,-0.0394,0.0236*
%
%ADD30ROUNDEDRECTD30*%
G04:AMPARAMS|DCode=31|XSize=39.4mil|YSize=59.1mil|CornerRadius=3mil|HoleSize=0mil|Usage=FLASHONLY|Rotation=0.000|XOffset=0mil|YOffset=0mil|HoleType=Round|Shape=RoundedRectangle|*
%AMROUNDEDRECTD31*
21,1,0.0394,0.0532,0,0,0.0*
21,1,0.0335,0.0591,0,0,0.0*
1,1,0.0059,0.0167,-0.0266*
1,1,0.0059,-0.0167,-0.0266*
1,1,0.0059,-0.0167,0.0266*
1,1,0.0059,0.0167,0.0266*
%
%ADD31ROUNDEDRECTD31*%
%ADD32C,0.0080*%
%ADD33C,0.0100*%
G04:AMPARAMS|DCode=34|XSize=3.9mil|YSize=3.9mil|CornerRadius=0.3mil|HoleSize=0mil|Usage=FLASHONLY|Rotation=0.000|XOffset=0mil|YOffset=0mil|HoleType=Round|Shape=RoundedRectangle|*
%AMROUNDEDRECTD34*
21,1,0.0039,0.0033,0,0,0.0*
21,1,0.0033,0.0039,0,0,0.0*
1,1,0.0006,0.0017,-0.0017*
1,1,0.0006,-0.0017,-0.0017*
1,1,0.0006,-0.0017,0.0017*
1,1,0.0006,0.0017,0.0017*
%
%ADD34ROUNDEDRECTD34*%
%ADD35C,0.0197*%
%ADD36C,0.0315*%
%ADD37C,0.0039*%
%ADD38O,0.1260X0.0512*%
%ADD39C,0.0472*%
G04:AMPARAMS|DCode=40|XSize=45.3mil|YSize=86.6mil|CornerRadius=1.1mil|HoleSize=0mil|Usage=FLASHONLY|Rotation=270.000|XOffset=0mil|YOffset=0mil|HoleType=Round|Shape=RoundedRectangle|*
%AMROUNDEDRECTD40*
21,1,0.0453,0.0843,0,0,270.0*
21,1,0.0430,0.0866,0,0,270.0*
1,1,0.0023,-0.0422,-0.0215*
1,1,0.0023,-0.0422,0.0215*
1,1,0.0023,0.0422,0.0215*
1,1,0.0023,0.0422,-0.0215*
%
%ADD40ROUNDEDRECTD40*%
G04:AMPARAMS|DCode=41|XSize=45.3mil|YSize=98.4mil|CornerRadius=1.1mil|HoleSize=0mil|Usage=FLASHONLY|Rotation=270.000|XOffset=0mil|YOffset=0mil|HoleType=Round|Shape=RoundedRectangle|*
%AMROUNDEDRECTD41*
21,1,0.0453,0.0962,0,0,270.0*
21,1,0.0430,0.0984,0,0,270.0*
1,1,0.0023,-0.0481,-0.0215*
1,1,0.0023,-0.0481,0.0215*
1,1,0.0023,0.0481,0.0215*
1,1,0.0023,0.0481,-0.0215*
%
%ADD41ROUNDEDRECTD41*%
G04:AMPARAMS|DCode=42|XSize=31.5mil|YSize=48.8mil|CornerRadius=0.8mil|HoleSize=0mil|Usage=FLASHONLY|Rotation=270.000|XOffset=0mil|YOffset=0mil|HoleType=Round|Shape=RoundedRectangle|*
%AMROUNDEDRECTD42*
21,1,0.0315,0.0472,0,0,270.0*
21,1,0.0299,0.0488,0,0,270.0*
1,1,0.0016,-0.0236,-0.0150*
1,1,0.0016,-0.0236,0.0150*
1,1,0.0016,0.0236,0.0150*
1,1,0.0016,0.0236,-0.0150*
%
%ADD42ROUNDEDRECTD42*%
G04:AMPARAMS|DCode=43|XSize=59.1mil|YSize=45.3mil|CornerRadius=1.1mil|HoleSize=0mil|Usage=FLASHONLY|Rotation=270.000|XOffset=0mil|YOffset=0mil|HoleType=Round|Shape=RoundedRectangle|*
%AMROUNDEDRECTD43*
21,1,0.0591,0.0430,0,0,270.0*
21,1,0.0568,0.0453,0,0,270.0*
1,1,0.0023,-0.0215,-0.0284*
1,1,0.0023,-0.0215,0.0284*
1,1,0.0023,0.0215,0.0284*
1,1,0.0023,0.0215,-0.0284*
%
%ADD43ROUNDEDRECTD43*%
G04:AMPARAMS|DCode=44|XSize=45.7mil|YSize=47.2mil|CornerRadius=1.1mil|HoleSize=0mil|Usage=FLASHONLY|Rotation=270.000|XOffset=0mil|YOffset=0mil|HoleType=Round|Shape=RoundedRectangle|*
%AMROUNDEDRECTD44*
21,1,0.0457,0.0450,0,0,270.0*
21,1,0.0434,0.0472,0,0,270.0*
1,1,0.0023,-0.0225,-0.0217*
1,1,0.0023,-0.0225,0.0217*
1,1,0.0023,0.0225,0.0217*
1,1,0.0023,0.0225,-0.0217*
%
%ADD44ROUNDEDRECTD44*%
%ADD45C,0.0079*%
%ADD46C,0.0070*%
%ADD47R,0.0236X0.1181*%
%ADD48R,0.0295X0.0315*%
%ADD49R,0.0157X0.0571*%
%ADD50R,0.0394X0.0236*%
%ADD51R,0.0236X0.0394*%
G36*
X5276Y6142D02*
X5079Y6339D01*
X5472D01*
X5276Y6142D01*
D02*
G37*
D10*
X11890Y5197D02*
G03*
X11575Y5197I-157J0D01*
G01*
X11496D02*
X11575D01*
X11890D02*
X11968D01*
X11496D02*
Y6339D01*
X11968Y6339D01*
Y6220D02*
Y6339D01*
Y5197D02*
Y6220D01*
D45*
X6480Y1890D02*
Y1984D01*
Y2425D02*
Y2520D01*
X6157Y2425D02*
X6157Y2520D01*
Y1890D02*
Y1984D01*
X9882Y528D02*
X9976D01*
X10417Y528D02*
X10512Y528D01*
X10417Y850D02*
X10512D01*
X9882D02*
X9976D01*
X9941Y1614D02*
Y1870D01*
X9941Y1654D02*
X10197D01*
X9941Y1713D02*
X10197D01*
X9941Y1791D02*
X10197D01*
X9941Y1870D02*
X10197D01*
X10197Y1614D02*
X10315Y1496D01*
X9941Y1614D02*
X10197D01*
X10197Y1614D02*
X10197Y1870D01*
X7441Y1870D02*
X7441Y1614D01*
X7441Y1614D02*
X7697D01*
X7441Y4370D02*
X7697Y4370D01*
X7441Y4114D02*
Y4370D01*
X9941Y4370D02*
X10197D01*
X10197Y4114D02*
Y4370D01*
X10197Y4114D02*
X10197Y4114D01*
X10059Y5591D02*
X10138Y5669D01*
X10059Y5276D02*
X10138Y5197D01*
X10059Y5276D02*
Y5591D01*
X39Y866D02*
X276D01*
X827Y906D02*
X1063D01*
X1614D02*
X1850D01*
X2402D02*
X2638D01*
X3189D02*
X3425D01*
X3976D02*
X4213D01*
X4764D02*
X5000D01*
X4764Y5787D02*
X5000D01*
X3976D02*
X4213D01*
X3189D02*
X3425D01*
X2402D02*
X2638D01*
X1614D02*
X1850D01*
X827D02*
X1063D01*
X39D02*
X276D01*
X5551Y906D02*
X5787D01*
Y5787D01*
X5551D02*
X5787D01*
X6673Y1073D02*
X6988D01*
X6673Y915D02*
X6988D01*
X11486Y4705D02*
Y5020D01*
X11644Y4705D02*
Y5020D01*
X11486Y4232D02*
Y4547D01*
X11644Y4232D02*
Y4547D01*
X11644Y3760D02*
Y4075D01*
X11486Y3760D02*
Y4075D01*
X13218Y6083D02*
Y6398D01*
X13376Y6083D02*
Y6398D01*
X12618Y531D02*
Y846D01*
X12776Y531D02*
Y846D01*
X11486Y3287D02*
Y3602D01*
X11644Y3287D02*
Y3602D01*
X9016Y531D02*
Y846D01*
X8858Y531D02*
Y846D01*
X7835Y531D02*
Y846D01*
X7677Y531D02*
Y846D01*
D46*
X8583Y6142D02*
X9213D01*
Y5906D02*
Y6142D01*
Y5354D02*
Y5591D01*
X8583Y5354D02*
X9213D01*
D47*
X11653Y1614D02*
D03*
D48*
X8696Y5988D02*
D03*
D49*
X11575Y2677D02*
D03*
D50*
X6319Y994D02*
D03*
X6319Y3691D02*
D03*
X6339Y5748D02*
D03*
X7244Y5748D02*
D03*
D51*
X11476Y689D02*
D03*
X10128Y6083D02*
D03*
M02*
