M48
;Layer_Color=9474304
;FILE_FORMAT=2:4
INCH,LZ
;TYPE=PLATED
T1F00S00C0.0157
;TYPE=NON_PLATED
T3F00S00C0.0197
T4F00S00C0.0433
%
T01
X010591Y001043
Y001378
X01122Y001535
X010689Y002067
X011732Y002185
X012362Y002598
Y003917
X012323Y004685
X011634Y004626
X011555Y005394
X01185Y005768
X010846Y005394
X010866Y005
X010492Y004724
X010709Y00437
X010689Y003366
X011594Y00315
X013071Y004213
X014823Y004803
Y006378
X010846
X012323Y001102
X012087Y000709
X011575Y000276
X013307
X014823
Y002047
X013661
X010197Y001713
X010197Y000689
X009902Y000276
X008996Y001181
X008228Y00124
X007835Y001161
X007795Y000276
X006417
X004921
X00372
X004134Y000807
Y001122
X005276Y001398
X005906Y001476
X006319Y002205
X006732Y002598
X006654Y003799
X007067Y00378
X006713Y00435
X005689Y00435
X005433Y004724
X005728Y00502
X006024Y005433
X006909
X007717Y006378
X008898Y006142
X009232Y006378
X009409Y005315
X009606Y004941
X009114
X009094Y003819
X009606
Y002992
X009094
Y002165
X009606
X010295Y00437
X004882Y005197
X004646Y006378
X003346
X001654
X001791Y005197
X001319Y005079
X000984Y003898
X001673Y00378
X001299Y003228
X000984Y002717
Y001535
X000906Y001122
Y000807
X000276Y000276
X001654
X001634Y001909
X000276Y002087
Y003307
Y004488
Y006378
X003071Y00435
X002657Y002598
X002913Y002283
X005984Y006378
T03
X011575Y006732
X01189
X012205
X01252
X012835
Y007362
X01252
X012205
X01189
X011575
X003543
X003228
X002913
X002598
X002283
Y006732
X002598
X002913
X003228
X003543
T04
X014173Y000394
X014016Y002444
Y004216
X000787Y006299
M30
